*
G04 Mass Parameters ***
*
G04 Image ***
*
%IND:\UTENTI\00.LAVORI IN CORSO\METALTRONICA\22-315-0\22-315-0.SPB*%
%ICAS*%
%MOIN*%
%IPPOS*%
%ASAXBY*%
G74*%FSLAN2X34Y34*%
*
G04 Aperture Definitions ***
*
%AMTHERMAL75*
1,1,0.1133,0,0,*
1,0,0.0894,0,0,*
21,0,0.1134,0.0100,0,0,45.0*
21,0,0.1134,0.0100,0,0,135.0*%
%AMTHERMAL79*
1,1,0.1172,0,0,*
1,0,0.0933,0,0,*
21,0,0.1173,0.0100,0,0,45.0*
21,0,0.1173,0.0100,0,0,135.0*%
%AMTHERMAL82*
1,1,0.1172,0,0,*
1,0,0.0933,0,0,*
21,0,0.1173,0.0100,0,0,315.0*
21,0,0.1173,0.0100,0,0,45.0*%
%ADD10R,0.1060X0.1180*%
%ADD11R,0.0501X0.0404*%
%ADD12R,0.0404X0.0501*%
%ADD13R,0.1260X0.0630*%
%ADD14R,0.0400X0.0710*%
%ADD15R,0.0886X0.0905*%
%ADD16R,0.0905X0.0886*%
%ADD17R,0.0380X0.0320*%
%ADD18R,0.0320X0.0380*%
%ADD19R,0.0370X0.0370*%
%ADD20R,0.0430X0.0650*%
%ADD21R,0.0850X0.1080*%
%ADD22R,0.0472X0.0472*%
%ADD23C,0.2756*%
%ADD24C,0.1378*%
%ADD25R,0.0905X0.1220*%
%ADD26C,0.0590*%
%ADD27R,0.0630X0.0630*%
%ADD28C,0.0787*%
%ADD29R,0.0787X0.0787*%
%ADD30C,0.0630*%
%ADD31R,0.0236X0.0413*%
%ADD32C,0.0187*%
%ADD33R,0.0787X0.0472*%
%ADD34C,0.0276*%
%ADD35R,0.0680X0.1580*%
%ADD36R,0.0680X0.0550*%
%ADD37R,0.0710X0.0400*%
%ADD38R,0.0630X0.0866*%
%ADD39R,0.1080X0.0850*%
%ADD40O,0.0256X0.0650*%
%ADD41R,0.0950X0.1220*%
%ADD42R,0.0750X0.0240*%
%ADD43R,0.1181X0.1701*%
%ADD44R,0.0649X0.0177*%
%ADD45R,0.1580X0.0680*%
%ADD46R,0.0550X0.0680*%
%ADD47C,0.0800*%
%ADD48R,0.0354X0.0165*%
%ADD49O,0.0110X0.0700*%
%ADD50R,0.0110X0.0700*%
%ADD51O,0.0700X0.0110*%
%ADD52R,0.0700X0.0110*%
%ADD53R,0.0354X0.0512*%
%ADD54R,0.0394X0.0197*%
%ADD55C,0.0050*%
%ADD56C,0.0100*%
%ADD57C,0.0120*%
%ADD58C,0.0276*%
%ADD59C,0.0080*%
%ADD60C,0.0250*%
%ADD61C,0.0150*%
%ADD62C,0.0300*%
%ADD63C,0.0170*%
%ADD64C,0.0500*%
%ADD65C,0.0060*%
%ADD66R,0.1024X0.0510*%
%ADD67R,0.0197X0.0315*%
%ADD68R,0.0500X0.0400*%
%ADD69R,0.0400X0.0500*%
%ADD70R,0.0500X0.0270*%
%ADD71C,0.0276*%
%ADD72C,0.1575*%
%ADD73C,0.0708*%
%ADD74R,0.0708X0.0708*%
%ADD75THERMAL75*%
%ADD76C,0.0708*%
%ADD77R,0.0708X0.0708*%
%ADD78C,0.1027*%
%ADD79THERMAL79*%
%ADD80R,0.0984X0.0984*%
%ADD81C,0.1100*%
%ADD82THERMAL82*%
%ADD83C,0.1100*%
%ADD84C,0.0050*%
%ADD85C,0.0276*%
%ADD86C,0.0050*%
%ADD87R,0.0433X0.0433*%
*
G04 Plot Data ***
*
G54D11*
X0026000Y0009100D03*
Y0009900D03*
X0033000Y0006600D03*
Y0007400D03*
X0007750Y0007650D03*
Y0006850D03*
G54D17*
X0028000Y0005530D03*
Y0004970D03*
X0030000D03*
Y0005530D03*
Y0002220D03*
Y0002780D03*
X0021750Y0009530D03*
Y0008970D03*
X0020745Y0005030D03*
Y0004470D03*
X0020000Y0005030D03*
Y0004470D03*
X0018250Y0005030D03*
Y0004470D03*
X0019000Y0005030D03*
Y0004470D03*
X0018500Y0003030D03*
Y0002470D03*
X0019250Y0003030D03*
Y0002470D03*
X0020000Y0003030D03*
Y0002470D03*
X0020750Y0001530D03*
Y0000970D03*
X0021500Y0002280D03*
Y0001720D03*
X0025000Y0005470D03*
Y0006030D03*
X0023250Y0011030D03*
Y0010470D03*
X0026750Y0011030D03*
Y0010470D03*
X0018750Y0009530D03*
Y0008970D03*
X0020250Y0009530D03*
Y0008970D03*
X0032250Y0009280D03*
Y0008720D03*
X0030250Y0007220D03*
Y0007780D03*
X0029500D03*
Y0007220D03*
Y0009530D03*
Y0008970D03*
X0017250Y0004970D03*
Y0005530D03*
X0016500D03*
Y0004970D03*
X0030250Y0004030D03*
Y0003470D03*
X0029250Y0002780D03*
Y0002220D03*
Y0001530D03*
Y0000970D03*
X0028500D03*
Y0001530D03*
Y0002220D03*
Y0002780D03*
X0026500Y0001530D03*
Y0000970D03*
X0027250Y0001530D03*
Y0000970D03*
X0035500Y0000470D03*
Y0001030D03*
X0033250Y0000470D03*
Y0001030D03*
X0012000Y0010530D03*
Y0009970D03*
X0008250Y0005030D03*
Y0004470D03*
X0012000Y0008280D03*
Y0007720D03*
X0009750Y0004470D03*
Y0005030D03*
X0021250Y0006380D03*
Y0005820D03*
X0022000D03*
Y0006380D03*
X0020500Y0006970D03*
Y0007530D03*
X0022000D03*
Y0006970D03*
X0018750D03*
Y0007530D03*
X0025995Y0008280D03*
Y0007720D03*
X0021000Y0009530D03*
Y0008970D03*
X0020750Y0002470D03*
Y0003030D03*
X0023500Y0003530D03*
Y0002970D03*
X0026750Y0007780D03*
Y0007220D03*
X0028000Y0009220D03*
Y0009780D03*
X0023250Y0005470D03*
Y0006030D03*
X0025000Y0008280D03*
Y0007720D03*
X0024250Y0005470D03*
Y0006030D03*
X0019500Y0009530D03*
Y0008970D03*
X0022500Y0011030D03*
Y0010470D03*
X0024000Y0011030D03*
Y0010470D03*
X0025995Y0011030D03*
Y0010470D03*
X0028700Y0009780D03*
Y0009220D03*
X0017000Y0008970D03*
Y0009530D03*
X0016000Y0008970D03*
Y0009530D03*
X0013750Y0004380D03*
Y0003820D03*
X0013250Y0006030D03*
Y0005470D03*
X0009000Y0004970D03*
Y0005530D03*
X0031000Y0003470D03*
Y0004030D03*
X0026500Y0002780D03*
Y0002220D03*
X0010100Y0001830D03*
Y0001270D03*
X0027250Y0002780D03*
Y0002220D03*
X0019500Y0006970D03*
Y0007530D03*
G54D37*
X0022500Y0003160D03*
Y0001840D03*
G54D66*
X0015500Y0005100D03*
Y0006400D03*
G54D67*
X0034750Y0001144D03*
Y0000356D03*
X0034000Y0001144D03*
Y0000356D03*
G54D68*
X0030300Y0009000D03*
X0031200Y0009400D03*
Y0008600D03*
X0010050Y0007750D03*
X0010950Y0008150D03*
Y0007350D03*
X0010050Y0009500D03*
X0010950Y0009900D03*
Y0009100D03*
G54D69*
X0031750Y0001800D03*
X0031350Y0002700D03*
X0032150D03*
X0035250Y0001800D03*
X0034850Y0002700D03*
X0035650D03*
X0033500Y0001800D03*
X0033100Y0002700D03*
X0033900D03*
G54D70*
X0028500Y0003500D03*
Y0003880D03*
Y0004250D03*
X0029520D03*
Y0003500D03*
M02*
