*
G04 Mass Parameters ***
*
G04 Image ***
*
%IND:\UTENTI\00.LAVORI IN CORSO\METALTRONICA\22-315-0\22-315-0.SPT*%
%ICAS*%
%MOIN*%
%IPPOS*%
%ASAXBY*%
G74*%FSLAN2X34Y34*%
*
G04 Aperture Definitions ***
*
%AMTHERMAL78*
1,1,0.1133,0,0,*
1,0,0.0894,0,0,*
21,0,0.1134,0.0100,0,0,45.0*
21,0,0.1134,0.0100,0,0,135.0*%
%AMTHERMAL82*
1,1,0.1172,0,0,*
1,0,0.0933,0,0,*
21,0,0.1173,0.0100,0,0,45.0*
21,0,0.1173,0.0100,0,0,135.0*%
%AMTHERMAL84*
1,1,0.1133,0,0,*
1,0,0.0894,0,0,*
21,0,0.1134,0.0100,0,0,315.0*
21,0,0.1134,0.0100,0,0,45.0*%
%AMTHERMAL88*
1,1,0.1172,0,0,*
1,0,0.0933,0,0,*
21,0,0.1173,0.0100,0,0,315.0*
21,0,0.1173,0.0100,0,0,45.0*%
%ADD10R,0.1060X0.1180*%
%ADD11R,0.0501X0.0404*%
%ADD12R,0.0404X0.0501*%
%ADD13R,0.1260X0.0630*%
%ADD14R,0.0400X0.0710*%
%ADD15R,0.0886X0.0905*%
%ADD16R,0.0905X0.0886*%
%ADD17R,0.0380X0.0320*%
%ADD18R,0.0320X0.0380*%
%ADD19R,0.0370X0.0370*%
%ADD20R,0.0430X0.0650*%
%ADD21R,0.0850X0.1080*%
%ADD22R,0.0472X0.0472*%
%ADD23C,0.2756*%
%ADD24C,0.1378*%
%ADD25R,0.0905X0.1220*%
%ADD26C,0.0590*%
%ADD27R,0.0630X0.0630*%
%ADD28R,0.0590X0.0590*%
%ADD29C,0.0787*%
%ADD30R,0.0787X0.0787*%
%ADD31C,0.0630*%
%ADD32R,0.0236X0.0413*%
%ADD33C,0.0187*%
%ADD34R,0.0787X0.0472*%
%ADD35C,0.0276*%
%ADD36R,0.0680X0.1580*%
%ADD37R,0.0680X0.0550*%
%ADD38R,0.0710X0.0400*%
%ADD39R,0.0630X0.0866*%
%ADD40R,0.1080X0.0850*%
%ADD41O,0.0256X0.0650*%
%ADD42R,0.0950X0.1220*%
%ADD43R,0.0750X0.0240*%
%ADD44R,0.1181X0.1701*%
%ADD45R,0.0649X0.0177*%
%ADD46R,0.1580X0.0680*%
%ADD47R,0.0550X0.0680*%
%ADD48C,0.0800*%
%ADD49R,0.0354X0.0165*%
%ADD50O,0.0110X0.0700*%
%ADD51R,0.0110X0.0700*%
%ADD52O,0.0700X0.0110*%
%ADD53R,0.0700X0.0110*%
%ADD54R,0.0354X0.0512*%
%ADD55R,0.0165X0.0354*%
%ADD56R,0.0394X0.0197*%
%ADD57C,0.0050*%
%ADD58C,0.0100*%
%ADD59C,0.0300*%
%ADD60C,0.0120*%
%ADD61C,0.0276*%
%ADD62C,0.0080*%
%ADD63C,0.0150*%
%ADD64C,0.0250*%
%ADD65C,0.0170*%
%ADD66C,0.0500*%
%ADD67C,0.0276*%
%ADD68C,0.0060*%
%ADD69R,0.1024X0.0510*%
%ADD70R,0.0197X0.0315*%
%ADD71R,0.0500X0.0400*%
%ADD72R,0.0400X0.0500*%
%ADD73R,0.0500X0.0270*%
%ADD74C,0.0276*%
%ADD75C,0.1575*%
%ADD76C,0.0708*%
%ADD77R,0.0708X0.0708*%
%ADD78THERMAL78*%
%ADD79C,0.0708*%
%ADD80R,0.0708X0.0708*%
%ADD81C,0.1027*%
%ADD82THERMAL82*%
%ADD83R,0.0984X0.0984*%
%ADD84THERMAL84*%
%ADD85C,0.0708*%
%ADD86R,0.0708X0.0708*%
%ADD87C,0.1100*%
%ADD88THERMAL88*%
%ADD89C,0.0050*%
%ADD90C,0.0050*%
%ADD91R,0.0433X0.0433*%
*
G04 Plot Data ***
*
G54D57*
G01X0000392Y0007168D02*
Y0004372D01*
X0000662Y0007168D02*
Y0006001D01*
X0001337Y0007157D02*
X0000352D01*
X0001337Y0007112D02*
X0000352D01*
X0001337Y0007067D02*
X0000352D01*
X0001337Y0007022D02*
X0000352D01*
X0001337Y0006977D02*
X0000352D01*
X0001337Y0006932D02*
X0000352D01*
X0001337Y0006887D02*
X0000352D01*
X0001337Y0006842D02*
X0000352D01*
X0001324Y0006797D02*
X0000352D01*
X0001229Y0006752D02*
X0000352D01*
X0001152Y0006707D02*
X0000352D01*
X0001086Y0006662D02*
X0000352D01*
X0001030Y0006617D02*
X0000352D01*
X0000980Y0006572D02*
X0000352D01*
X0000936Y0006527D02*
X0000352D01*
X0000896Y0006482D02*
X0000352D01*
X0000860Y0006437D02*
X0000352D01*
X0000828Y0006392D02*
X0000352D01*
X0000799Y0006347D02*
X0000352D01*
X0000774Y0006302D02*
X0000352D01*
X0000750Y0006257D02*
X0000352D01*
X0000730Y0006212D02*
X0000352D01*
X0000711Y0006167D02*
X0000352D01*
X0000695Y0006122D02*
X0000352D01*
X0000681Y0006077D02*
X0000352D01*
X0000669Y0006032D02*
X0000352D01*
X0000659Y0005987D02*
X0000352D01*
X0000651Y0005942D02*
X0000352D01*
X0000645Y0005897D02*
X0000352D01*
X0000641Y0005852D02*
X0000352D01*
X0000638Y0005807D02*
X0000352D01*
X0000638Y0005762D02*
X0000352D01*
X0000639Y0005717D02*
X0000352D01*
X0000642Y0005672D02*
X0000352D01*
X0000647Y0005627D02*
X0000352D01*
X0000653Y0005582D02*
X0000352D01*
X0000662Y0005537D02*
X0000352D01*
X0000673Y0005492D02*
X0000352D01*
X0000685Y0005447D02*
X0000352D01*
X0000700Y0005402D02*
X0000352D01*
X0000717Y0005357D02*
X0000352D01*
X0000736Y0005312D02*
X0000352D01*
X0000758Y0005267D02*
X0000352D01*
X0000782Y0005222D02*
X0000352D01*
X0000809Y0005177D02*
X0000352D01*
X0000838Y0005132D02*
X0000352D01*
X0000872Y0005087D02*
X0000352D01*
X0000909Y0005042D02*
X0000352D01*
X0000950Y0004997D02*
X0000352D01*
X0000996Y0004952D02*
X0000352D01*
X0001048Y0004907D02*
X0000352D01*
X0001107Y0004862D02*
X0000352D01*
X0001176Y0004817D02*
X0000352D01*
X0001258Y0004772D02*
X0000352D01*
X0001337Y0004727D02*
X0000352D01*
X0001337Y0004682D02*
X0000352D01*
X0001337Y0004637D02*
X0000352D01*
X0001337Y0004592D02*
X0000352D01*
X0001337Y0004547D02*
X0000352D01*
X0001337Y0004502D02*
X0000352D01*
X0001337Y0004457D02*
X0000352D01*
X0001292Y0007168D02*
Y0006783D01*
X0001247Y0007168D02*
Y0006762D01*
X0001202Y0007168D02*
Y0006738D01*
X0001157Y0007168D02*
Y0006711D01*
X0001112Y0007168D02*
Y0006681D01*
X0001067Y0007168D02*
Y0006648D01*
X0001022Y0007168D02*
Y0006611D01*
X0000977Y0007168D02*
Y0006570D01*
X0000932Y0007168D02*
Y0006523D01*
X0000887Y0007168D02*
Y0006472D01*
X0000842Y0007168D02*
Y0006412D01*
X0000797Y0007168D02*
Y0006343D01*
X0000752Y0007168D02*
Y0006261D01*
X0000707Y0007168D02*
Y0006156D01*
X0001337Y0004412D02*
X0000352D01*
X0001337Y0007168D02*
Y0006802D01*
Y0007168D02*
X0000352D01*
Y0004372D01*
X0001337D02*
X0000352D01*
X0001337Y0004737D02*
Y0004372D01*
X0001292Y0004756D02*
Y0004372D01*
X0001247Y0004778D02*
Y0004372D01*
X0001202Y0004802D02*
Y0004372D01*
X0001157Y0004829D02*
Y0004372D01*
X0001112Y0004858D02*
Y0004372D01*
X0001067Y0004892D02*
Y0004372D01*
X0001022Y0004929D02*
Y0004372D01*
X0000977Y0004970D02*
Y0004372D01*
X0000932Y0005016D02*
Y0004372D01*
X0000887Y0005068D02*
Y0004372D01*
X0000842Y0005127D02*
Y0004372D01*
X0000797Y0005196D02*
Y0004372D01*
X0000752Y0005278D02*
Y0004372D01*
X0000707Y0005382D02*
Y0004372D01*
X0000662Y0005537D02*
Y0004372D01*
X0000617Y0007168D02*
Y0004372D01*
X0000572Y0007168D02*
Y0004372D01*
X0000527Y0007168D02*
Y0004372D01*
X0000482Y0007168D02*
Y0004372D01*
X0000437Y0007168D02*
Y0004372D01*
X0002203Y0004754D02*
Y0004372D01*
Y0007168D02*
Y0006786D01*
X0003148Y0007157D02*
X0002163D01*
X0003148Y0007112D02*
X0002163D01*
X0003148Y0007067D02*
X0002163D01*
X0003148Y0007022D02*
X0002163D01*
X0003148Y0006977D02*
X0002163D01*
X0003148Y0006932D02*
X0002163D01*
X0003148Y0006887D02*
X0002163D01*
X0003148Y0006842D02*
X0002163D01*
X0003148Y0006797D02*
X0002176D01*
X0003148Y0006752D02*
X0002272D01*
X0003148Y0006707D02*
X0002349D01*
X0003148Y0006662D02*
X0002414D01*
X0003148Y0006617D02*
X0002470D01*
X0003148Y0006572D02*
X0002520D01*
X0003148Y0006527D02*
X0002565D01*
X0003148Y0006482D02*
X0002604D01*
X0003148Y0006437D02*
X0002640D01*
X0003148Y0006392D02*
X0002672D01*
X0003148Y0006347D02*
X0002701D01*
X0003148Y0006302D02*
X0002727D01*
X0003148Y0006257D02*
X0002750D01*
X0003148Y0006212D02*
X0002770D01*
X0003148Y0006167D02*
X0002789D01*
X0003148Y0006122D02*
X0002805D01*
X0003148Y0006077D02*
X0002819D01*
X0003148Y0006032D02*
X0002831D01*
X0003148Y0005987D02*
X0002841D01*
X0003148Y0005942D02*
X0002849D01*
X0003148Y0005897D02*
X0002855D01*
X0003148Y0005852D02*
X0002859D01*
X0003148Y0005807D02*
X0002862D01*
X0003148Y0005762D02*
X0002862D01*
X0003148Y0005717D02*
X0002861D01*
X0003148Y0005672D02*
X0002858D01*
X0003148Y0005627D02*
X0002853D01*
X0003148Y0005582D02*
X0002846D01*
X0003148Y0005537D02*
X0002838D01*
X0003148Y0005492D02*
X0002827D01*
X0003148Y0005447D02*
X0002814D01*
X0003148Y0005402D02*
X0002800D01*
X0003148Y0005357D02*
X0002783D01*
X0003148Y0005312D02*
X0002764D01*
X0003148Y0005267D02*
X0002742D01*
X0003148Y0005222D02*
X0002718D01*
X0003148Y0005177D02*
X0002691D01*
X0003148Y0005132D02*
X0002661D01*
X0003148Y0005087D02*
X0002628D01*
X0003148Y0005042D02*
X0002591D01*
X0003148Y0004997D02*
X0002550D01*
X0003148Y0004952D02*
X0002504D01*
X0003148Y0004907D02*
X0002452D01*
X0003148Y0004862D02*
X0002393D01*
X0003148Y0004817D02*
X0002324D01*
X0003148Y0004772D02*
X0002242D01*
X0003148Y0004727D02*
X0002163D01*
X0003148Y0004682D02*
X0002163D01*
X0003148Y0004637D02*
X0002163D01*
X0003148Y0004592D02*
X0002163D01*
X0003148Y0004547D02*
X0002163D01*
X0003148Y0004502D02*
X0002163D01*
X0003148Y0004457D02*
X0002163D01*
X0002833Y0007168D02*
Y0006022D01*
X0002788Y0007168D02*
Y0006169D01*
X0002743Y0007168D02*
Y0006270D01*
X0002698Y0007168D02*
Y0006351D01*
X0002653Y0007168D02*
Y0006419D01*
X0002608Y0007168D02*
Y0006477D01*
X0002563Y0007168D02*
Y0006529D01*
X0002518Y0007168D02*
Y0006574D01*
X0002473Y0007168D02*
Y0006615D01*
X0002428Y0007168D02*
Y0006651D01*
X0002383Y0007168D02*
Y0006684D01*
X0002338Y0007168D02*
Y0006714D01*
X0002293Y0007168D02*
Y0006740D01*
X0002248Y0007168D02*
Y0006764D01*
X0003148Y0004412D02*
X0002163D01*
Y0004737D02*
Y0004372D01*
X0003148D02*
X0002163D01*
X0003148Y0007168D02*
Y0004372D01*
Y0007168D02*
X0002163D01*
Y0006802D01*
X0003103Y0007168D02*
Y0004372D01*
X0003058Y0007168D02*
Y0004372D01*
X0003013Y0007168D02*
Y0004372D01*
X0002968Y0007168D02*
Y0004372D01*
X0002923Y0007168D02*
Y0004372D01*
X0002878Y0007168D02*
Y0004372D01*
X0002833Y0005517D02*
Y0004372D01*
X0002788Y0005371D02*
Y0004372D01*
X0002743Y0005269D02*
Y0004372D01*
X0002698Y0005188D02*
Y0004372D01*
X0002653Y0005121D02*
Y0004372D01*
X0002608Y0005062D02*
Y0004372D01*
X0002563Y0005011D02*
Y0004372D01*
X0002518Y0004966D02*
Y0004372D01*
X0002473Y0004925D02*
Y0004372D01*
X0002428Y0004888D02*
Y0004372D01*
X0002383Y0004855D02*
Y0004372D01*
X0002338Y0004826D02*
Y0004372D01*
X0002293Y0004799D02*
Y0004372D01*
X0002248Y0004775D02*
Y0004372D01*
X0009783Y0005820D02*
X0009537D01*
X0009765Y0005775D02*
X0009537D01*
X0009750Y0005730D02*
X0009537D01*
X0009738Y0005685D02*
X0009537D01*
X0009728Y0005640D02*
X0009537D01*
X0009722Y0005595D02*
X0009537D01*
X0009718Y0005550D02*
X0009537D01*
X0009717Y0005505D02*
X0009537D01*
X0009719Y0005460D02*
X0009537D01*
X0009723Y0005415D02*
X0009537D01*
X0009730Y0005370D02*
X0009537D01*
X0009739Y0005325D02*
X0009537D01*
X0009752Y0005280D02*
X0009537D01*
X0009767Y0005235D02*
X0009537D01*
X0009785Y0005190D02*
X0009537D01*
X0009806Y0005145D02*
X0009537D01*
X0009831Y0005100D02*
X0009537D01*
X0009859Y0005055D02*
X0009537D01*
X0009892Y0005010D02*
X0009537D01*
X0009930Y0004965D02*
X0009537D01*
X0009974Y0004920D02*
X0009537D01*
X0010026Y0004875D02*
X0009537D01*
X0010089Y0004830D02*
X0009537D01*
X0010157Y0004785D02*
X0009537D01*
X0010157Y0004740D02*
X0009537D01*
X0010157Y0004695D02*
X0009537D01*
X0010157Y0004650D02*
X0009537D01*
X0010157Y0004605D02*
X0009537D01*
X0010117Y0004812D02*
Y0004520D01*
X0010072Y0004841D02*
Y0004520D01*
X0010027Y0004874D02*
Y0004520D01*
X0009982Y0004913D02*
Y0004520D01*
X0009937Y0004958D02*
Y0004520D01*
X0009892Y0005010D02*
Y0004520D01*
X0009847Y0005073D02*
Y0004520D01*
X0009802Y0005153D02*
Y0004520D01*
X0009757Y0005263D02*
Y0004520D01*
X0009712Y0006480D02*
Y0004520D01*
X0009667Y0006480D02*
Y0004520D01*
X0009622Y0006480D02*
Y0004520D01*
X0009577Y0006470D02*
Y0004530D01*
X0009757Y0006480D02*
Y0005752D01*
X0010157Y0006450D02*
X0009554D01*
X0010157Y0006405D02*
X0009537D01*
X0010157Y0006360D02*
X0009537D01*
X0010157Y0006315D02*
X0009537D01*
X0010157Y0006270D02*
X0009537D01*
X0010157Y0006225D02*
X0009537D01*
X0010109Y0006180D02*
X0009537D01*
X0010039Y0006135D02*
X0009537D01*
X0009982Y0006090D02*
X0009537D01*
X0009935Y0006045D02*
X0009537D01*
X0009895Y0006000D02*
X0009537D01*
X0009860Y0005955D02*
X0009537D01*
X0009830Y0005910D02*
X0009537D01*
X0009805Y0005865D02*
X0009537D01*
X0010117Y0006480D02*
Y0006184D01*
X0010072Y0006480D02*
Y0006157D01*
X0010027Y0006480D02*
Y0006126D01*
X0009982Y0006480D02*
Y0006089D01*
X0009937Y0006480D02*
Y0006047D01*
X0009892Y0006480D02*
Y0005996D01*
X0009847Y0006480D02*
Y0005935D01*
X0009802Y0006480D02*
Y0005859D01*
X0010157Y0004560D02*
X0009547D01*
X0010157Y0006210D02*
X0010147Y0006200D01*
X0010157Y0006480D02*
Y0006210D01*
Y0006480D02*
X0009617D01*
X0009615D01*
X0009537Y0006400D02*
Y0004600D01*
Y0004598D01*
X0010157Y0004520D02*
X0009617D01*
X0010157Y0004790D02*
Y0004520D01*
X0009717Y0005505D02*
Y0005500D01*
X0011478Y0005823D02*
X0011226D01*
X0011478Y0005778D02*
X0011245D01*
X0011478Y0005733D02*
X0011260D01*
X0011478Y0005688D02*
X0011273D01*
X0011478Y0005643D02*
X0011283D01*
X0011478Y0005598D02*
X0011291D01*
X0011478Y0005553D02*
X0011296D01*
X0011478Y0005508D02*
X0011298D01*
X0011478Y0005463D02*
X0011298D01*
X0011478Y0005418D02*
X0011294D01*
X0011478Y0005373D02*
X0011288D01*
X0011478Y0005328D02*
X0011280D01*
X0011478Y0005283D02*
X0011268D01*
X0011478Y0005238D02*
X0011254D01*
X0011478Y0005193D02*
X0011236D01*
X0011478Y0005148D02*
X0011215D01*
X0011478Y0005103D02*
X0011191D01*
X0011478Y0005058D02*
X0011162D01*
X0011478Y0005013D02*
X0011128D01*
X0011478Y0004968D02*
X0011090D01*
X0011478Y0004923D02*
X0011044D01*
X0011478Y0004878D02*
X0010989D01*
X0011478Y0004833D02*
X0010923D01*
X0011478Y0004788D02*
X0010858D01*
X0011478Y0004743D02*
X0010858D01*
X0011478Y0004698D02*
X0010858D01*
X0011478Y0004653D02*
X0010858D01*
X0011478Y0004608D02*
X0010858D01*
X0011438Y0006473D02*
Y0004533D01*
X0011393Y0006483D02*
Y0004523D01*
X0011348Y0006483D02*
Y0004523D01*
X0011303Y0006483D02*
Y0004523D01*
X0011258Y0005251D02*
Y0004523D01*
X0011213Y0005144D02*
Y0004523D01*
X0011168Y0005067D02*
Y0004523D01*
X0011123Y0005006D02*
Y0004523D01*
X0011078Y0004956D02*
Y0004523D01*
X0011033Y0004913D02*
Y0004523D01*
X0010988Y0004877D02*
Y0004523D01*
X0010943Y0004846D02*
Y0004523D01*
X0010898Y0004819D02*
Y0004523D01*
Y0006483D02*
Y0006190D01*
X0011461Y0006453D02*
X0010858D01*
X0011478Y0006408D02*
X0010858D01*
X0011478Y0006363D02*
X0010858D01*
X0011478Y0006318D02*
X0010858D01*
X0011478Y0006273D02*
X0010858D01*
X0011478Y0006228D02*
X0010858D01*
X0011478Y0006183D02*
X0010911D01*
X0011478Y0006138D02*
X0010976D01*
X0011478Y0006093D02*
X0011030D01*
X0011478Y0006048D02*
X0011076D01*
X0011478Y0006003D02*
X0011115D01*
X0011478Y0005958D02*
X0011149D01*
X0011478Y0005913D02*
X0011178D01*
X0011478Y0005868D02*
X0011204D01*
X0011258Y0006483D02*
Y0005739D01*
X0011213Y0006483D02*
Y0005850D01*
X0011168Y0006483D02*
Y0005929D01*
X0011123Y0006483D02*
Y0005993D01*
X0011078Y0006483D02*
Y0006045D01*
X0011033Y0006483D02*
Y0006090D01*
X0010988Y0006483D02*
Y0006128D01*
X0010943Y0006483D02*
Y0006162D01*
X0011468Y0004563D02*
X0010858D01*
X0011298Y0005503D02*
Y0005498D01*
X0010858Y0006483D02*
Y0006213D01*
X0011398Y0006483D02*
X0010858D01*
X0011400D02*
X0011398D01*
X0011478Y0006403D02*
Y0004603D01*
Y0004601D01*
X0011398Y0004523D02*
X0010858D01*
Y0004793D02*
Y0004523D01*
X0010868Y0004803D02*
X0010858Y0004793D01*
G01X0000638Y0005770D02*
G03X0001337Y0004737I0001112J0000000D01*
Y0006802D02*
G03X0000638Y0005770I0000413J0001032D01*
G01X0002862D02*
G03X0002163Y0006802I0001112J0000000D01*
Y0004737D02*
G03X0002863Y0005770I0000413J0001033D01*
G01X0009615Y0006480D02*
G03X0009537Y0006402I0000000J0000078D01*
G03X0009537Y0006400I0000078J0000000D01*
Y0004598D02*
G03X0009615Y0004520I0000078J0000000D01*
G03X0009617Y0004520I0000000J0000078D01*
G01X0009717Y0005500D02*
G03X0010157Y0004790I0000820J0000017D01*
G01X0010147Y0006200D02*
G03X0009717Y0005505I0000346J0000695D01*
G01X0010868Y0004803D02*
G03X0011299Y0005498I0000345J0000695D01*
G01X0011298Y0005503D02*
G03X0010858Y0006213I0000820J0000017D01*
G01X0011478Y0006405D02*
G03X0011400Y0006483I0000078J0000000D01*
G01X0011478Y0006403D02*
G03X0011478Y0006405I0000078J0000002D01*
G01X0011400Y0004523D02*
G03X0011478Y0004601I0000000J0000078D01*
G01X0011398Y0004523D02*
G03X0011400Y0004523I0000002J0000078D01*
G54D58*
G01X0034660Y0005200D02*
Y0004600D01*
X0034570Y0005200D02*
Y0004600D01*
X0034480Y0005200D02*
Y0004600D01*
X0034390Y0005200D02*
Y0004600D01*
X0034700Y0005180D02*
X0034350D01*
X0034700Y0005090D02*
X0034350D01*
X0034700Y0005000D02*
X0034350D01*
X0034700Y0004910D02*
X0034350D01*
X0034700Y0004820D02*
X0034350D01*
X0034700Y0004730D02*
X0034350D01*
X0034700Y0004640D02*
X0034350D01*
Y0005200D02*
Y0004600D01*
X0034700D02*
X0034350D01*
X0034700Y0005200D02*
Y0004600D01*
Y0005200D02*
X0034350D01*
X0034110D02*
Y0004600D01*
X0034020Y0005200D02*
Y0004600D01*
X0033930Y0005200D02*
Y0004600D01*
X0033840Y0005200D02*
Y0004600D01*
X0034150Y0005180D02*
X0033800D01*
X0034150Y0005090D02*
X0033800D01*
X0034150Y0005000D02*
X0033800D01*
X0034150Y0004910D02*
X0033800D01*
X0034150Y0004820D02*
X0033800D01*
X0034150Y0004730D02*
X0033800D01*
X0034150Y0004640D02*
X0033800D01*
Y0005200D02*
Y0004600D01*
X0034150D02*
X0033800D01*
X0034150Y0005200D02*
Y0004600D01*
Y0005200D02*
X0033800D01*
X0034660Y0004400D02*
Y0003800D01*
X0034570Y0004400D02*
Y0003800D01*
X0034480Y0004400D02*
Y0003800D01*
X0034390Y0004400D02*
Y0003800D01*
X0034700Y0004380D02*
X0034350D01*
X0034700Y0004290D02*
X0034350D01*
X0034700Y0004200D02*
X0034350D01*
X0034700Y0004110D02*
X0034350D01*
X0034700Y0004020D02*
X0034350D01*
X0034700Y0003930D02*
X0034350D01*
X0034700Y0003840D02*
X0034350D01*
X0034700Y0004400D02*
X0034350D01*
X0034700D02*
Y0003800D01*
X0034350D01*
Y0004400D02*
Y0003800D01*
X0034110Y0004400D02*
Y0003800D01*
X0034020Y0004400D02*
Y0003800D01*
X0033930Y0004400D02*
Y0003800D01*
X0033840Y0004400D02*
Y0003800D01*
X0034150Y0004380D02*
X0033800D01*
X0034150Y0004290D02*
X0033800D01*
X0034150Y0004200D02*
X0033800D01*
X0034150Y0004110D02*
X0033800D01*
X0034150Y0004020D02*
X0033800D01*
X0034150Y0003930D02*
X0033800D01*
X0034150Y0003840D02*
X0033800D01*
X0034150Y0004400D02*
X0033800D01*
X0034150D02*
Y0003800D01*
X0033800D01*
Y0004400D02*
Y0003800D01*
G54D10*
X0007246Y0007500D03*
X0004254D03*
G54D11*
X0020750Y0002600D03*
Y0003400D03*
X0020000Y0002600D03*
Y0003400D03*
X0018500Y0002600D03*
Y0003400D03*
X0019250Y0002600D03*
Y0003400D03*
X0018500Y0000600D03*
Y0001400D03*
X0019250Y0000600D03*
Y0001400D03*
X0020000Y0000600D03*
Y0001400D03*
X0017750Y0005350D03*
Y0006150D03*
X0017000Y0005350D03*
Y0006150D03*
X0033750Y0001600D03*
Y0002400D03*
X0032000Y0002600D03*
Y0003400D03*
X0003750Y0005100D03*
Y0005900D03*
G54D12*
X0031650Y0006500D03*
X0030850D03*
X0005150Y0009250D03*
X0004350D03*
G54D13*
X0033016Y0007750D03*
X0034984D03*
G54D14*
X0007410Y0009250D03*
X0006090D03*
X0030590Y0005500D03*
X0031910D03*
G54D15*
X0015750Y0003464D03*
Y0001535D03*
X0017250Y0003464D03*
Y0001535D03*
X0011750Y0003464D03*
Y0001535D03*
X0010250Y0003464D03*
Y0001535D03*
X0012500Y0006714D03*
Y0004785D03*
X0008500Y0006714D03*
Y0004785D03*
G54D16*
X0028214Y0010500D03*
X0026285D03*
G54D17*
X-0001750Y0005220D03*
Y0005780D03*
Y0006470D03*
Y0007030D03*
X-0001000Y0006280D03*
Y0005720D03*
X-0000250Y0003780D03*
Y0003220D03*
X0006495Y0002220D03*
Y0002780D03*
X0033000Y0002280D03*
Y0001720D03*
X0026500Y0008970D03*
Y0009530D03*
X0025250Y0010480D03*
Y0009920D03*
X-0000250Y0006280D03*
Y0005720D03*
X-0001750Y0008280D03*
Y0007720D03*
X0026895Y0006170D03*
Y0006730D03*
G54D18*
X0031530Y0004500D03*
X0030970D03*
X0026325Y0004450D03*
X0026885D03*
G54D19*
X0009250Y0010885D03*
Y0010115D03*
X0011500Y0010885D03*
Y0010115D03*
G54D20*
X0008570Y0010500D03*
X0009930D03*
X0010820D03*
X0012180D03*
G54D21*
X0003630Y0003250D03*
X0005370D03*
G54D25*
X0032543Y0010250D03*
X0035457D03*
G54D32*
X0017697Y0007650D03*
Y0008850D03*
X0017303D03*
Y0007650D03*
G54D34*
X0011976Y0009000D03*
X0009033D03*
X0009024Y0008000D03*
X0011976D03*
G54D36*
X0028700Y0008250D03*
G54D37*
X0031300Y0007350D03*
Y0008250D03*
Y0009150D03*
G54D38*
X0037250Y0007660D03*
Y0006340D03*
Y0005410D03*
Y0004090D03*
G54D39*
X0028050Y0003987D03*
Y0006113D03*
G54D40*
X0030750Y0002620D03*
Y0000880D03*
X0029000Y0002620D03*
Y0000880D03*
G54D41*
X0019000Y0006000D03*
X0019500D03*
X0020000D03*
X0020500D03*
Y0008400D03*
X0020000D03*
X0019500D03*
X0019000D03*
G54D42*
X0006000Y0005250D03*
G54D43*
X0004905Y0006000D03*
Y0005500D03*
Y0005000D03*
Y0004500D03*
X0007095D03*
Y0005000D03*
Y0005500D03*
Y0006000D03*
G54D45*
X0033049Y0005907D03*
Y0005651D03*
Y0005396D03*
Y0005140D03*
Y0004884D03*
Y0004628D03*
Y0004372D03*
Y0004116D03*
Y0003860D03*
Y0003604D03*
Y0003348D03*
Y0003093D03*
X0035451D03*
Y0003348D03*
Y0003604D03*
Y0003860D03*
Y0004116D03*
Y0004372D03*
Y0004628D03*
Y0004884D03*
Y0005140D03*
Y0005396D03*
Y0005651D03*
Y0005907D03*
G54D46*
X0013750Y0003300D03*
X0008250D03*
G54D47*
X0012850Y0000700D03*
X0013750D03*
X0014650D03*
X0007350D03*
X0008250D03*
X0009150D03*
G54D49*
X0022500Y0011000D03*
Y0010744D03*
Y0010488D03*
Y0010232D03*
X0024429Y0011000D03*
Y0010744D03*
Y0010488D03*
Y0010232D03*
G54D50*
X0025220Y0008985D03*
X0025023D03*
X0024826D03*
X0024432D03*
X0024235D03*
X0024038D03*
X0023841D03*
X0023644D03*
X0023447D03*
X0023250D03*
X0023053D03*
X0022856D03*
X0022462D03*
X0022265D03*
Y0004470D03*
X0022659D03*
X0022856D03*
X0023053D03*
X0023250D03*
X0023447D03*
X0023644D03*
X0023841D03*
X0024038D03*
X0024235D03*
X0024629D03*
X0024826D03*
X0025023D03*
X0025220D03*
G54D51*
X0024629Y0008985D03*
X0022659D03*
X0022462Y0004470D03*
X0024432D03*
G54D52*
X0026000Y0005447D03*
Y0005644D03*
Y0005841D03*
Y0006038D03*
Y0006235D03*
Y0006432D03*
Y0006629D03*
Y0006826D03*
Y0007220D03*
Y0007417D03*
Y0007614D03*
Y0007811D03*
Y0008008D03*
Y0008205D03*
X0021485D03*
Y0008008D03*
Y0007811D03*
Y0007614D03*
Y0007417D03*
Y0007220D03*
Y0007023D03*
Y0006629D03*
Y0006432D03*
Y0006235D03*
Y0006038D03*
Y0005841D03*
Y0005644D03*
Y0005447D03*
Y0005250D03*
G54D53*
X0026000D03*
Y0007023D03*
X0021485Y0006826D03*
G54D54*
X0029250Y0003760D03*
X0029750D03*
Y0006240D03*
X0029250D03*
G54D55*
X-0001000Y0007000D03*
X-0000744D03*
X-0000488D03*
X-0000232D03*
X-0001000Y0008929D03*
X-0000744D03*
X-0000488D03*
X-0000232D03*
G54D56*
X0026900Y0005566D03*
Y0005133D03*
G54D91*
X0027500Y0009301D03*
Y0008199D03*
M02*
