*
G04 Mass Parameters ***
*
G04 Image ***
*
%IND:\UTENTI\00.LAVORI IN CORSO\METALTRONICA\22-315-0\22-315-0.GND*%
%ICAS*%
%MOIN*%
%IPPOS*%
%ASAXBY*%
G74*%FSLAN2X34Y34*%
*
G04 Aperture Definitions ***
*
%AMTHERMAL75*
1,1,0.1133,0,0,*
1,0,0.0894,0,0,*
21,0,0.1134,0.0100,0,0,45.0*
21,0,0.1134,0.0100,0,0,135.0*%
%AMTHERMAL79*
1,1,0.1172,0,0,*
1,0,0.0933,0,0,*
21,0,0.1173,0.0100,0,0,45.0*
21,0,0.1173,0.0100,0,0,135.0*%
%AMTHERMAL82*
1,1,0.1172,0,0,*
1,0,0.0933,0,0,*
21,0,0.1173,0.0100,0,0,315.0*
21,0,0.1173,0.0100,0,0,45.0*%
%ADD10R,0.1060X0.1180*%
%ADD11R,0.0501X0.0404*%
%ADD12R,0.0404X0.0501*%
%ADD13R,0.1260X0.0630*%
%ADD14R,0.0400X0.0710*%
%ADD15R,0.0886X0.0905*%
%ADD16R,0.0905X0.0886*%
%ADD17R,0.0380X0.0320*%
%ADD18R,0.0320X0.0380*%
%ADD19R,0.0370X0.0370*%
%ADD20R,0.0430X0.0650*%
%ADD21R,0.0850X0.1080*%
%ADD22R,0.0472X0.0472*%
%ADD23C,0.2756*%
%ADD24C,0.1378*%
%ADD25R,0.0905X0.1220*%
%ADD26C,0.0590*%
%ADD27R,0.0630X0.0630*%
%ADD28C,0.0787*%
%ADD29R,0.0787X0.0787*%
%ADD30C,0.0630*%
%ADD31R,0.0236X0.0413*%
%ADD32C,0.0187*%
%ADD33R,0.0787X0.0472*%
%ADD34C,0.0276*%
%ADD35R,0.0680X0.1580*%
%ADD36R,0.0680X0.0550*%
%ADD37R,0.0710X0.0400*%
%ADD38R,0.0630X0.0866*%
%ADD39R,0.1080X0.0850*%
%ADD40O,0.0256X0.0650*%
%ADD41R,0.0950X0.1220*%
%ADD42R,0.0750X0.0240*%
%ADD43R,0.1181X0.1701*%
%ADD44R,0.0649X0.0177*%
%ADD45R,0.1580X0.0680*%
%ADD46R,0.0550X0.0680*%
%ADD47C,0.0800*%
%ADD48R,0.0354X0.0165*%
%ADD49O,0.0110X0.0700*%
%ADD50R,0.0110X0.0700*%
%ADD51O,0.0700X0.0110*%
%ADD52R,0.0700X0.0110*%
%ADD53R,0.0354X0.0512*%
%ADD54R,0.0394X0.0197*%
%ADD55C,0.0050*%
%ADD56C,0.0100*%
%ADD57C,0.0120*%
%ADD58C,0.0276*%
%ADD59C,0.0080*%
%ADD60C,0.0250*%
%ADD61C,0.0150*%
%ADD62C,0.0300*%
%ADD63C,0.0170*%
%ADD64C,0.0500*%
%ADD65C,0.0060*%
%ADD66R,0.1024X0.0510*%
%ADD67R,0.0197X0.0315*%
%ADD68R,0.0500X0.0400*%
%ADD69R,0.0400X0.0500*%
%ADD70R,0.0500X0.0270*%
%ADD71C,0.0276*%
%ADD72C,0.1575*%
%ADD73C,0.0708*%
%ADD74R,0.0708X0.0708*%
%ADD75THERMAL75*%
%ADD76C,0.0708*%
%ADD77R,0.0708X0.0708*%
%ADD78C,0.1027*%
%ADD79THERMAL79*%
%ADD80R,0.0984X0.0984*%
%ADD81C,0.1100*%
%ADD82THERMAL82*%
%ADD83C,0.1100*%
%ADD84C,0.0050*%
%ADD85C,0.0276*%
%ADD86C,0.0050*%
*
G04 Plot Data ***
*
G54D75*
X0004175Y0001000D03*
G54D79*
X0024500Y0001250D03*
G54D82*
X0014250Y0006750D03*
G54D56*
G01X0000000Y0000000D02*
X0039370D01*
Y0011811D01*
X0000000D01*
Y0000000D01*
G54D65*
G01X0036407Y0010267D02*
Y0010667D01*
X0036383Y0010267D02*
X0036523D01*
X0036570Y0010400D01*
Y0010533D01*
X0036523Y0010667D01*
X0036383D01*
X0036240D02*
Y0010267D01*
X0036193Y0010333D01*
X0036100Y0010600D01*
X0036053Y0010667D01*
Y0010267D01*
X0035817Y0010467D02*
X0035910D01*
Y0010333D01*
X0035887Y0010267D01*
X0035747D01*
X0035723Y0010333D01*
Y0010600D01*
X0035747Y0010667D01*
X0035887D01*
X0035910Y0010600D01*
G54D71*
X0025250Y0011000D03*
X0033300Y0008400D03*
X0036300Y0003800D03*
X0009000Y0006000D03*
X0036300Y0007750D03*
X0032100Y0006550D03*
X0034400Y0002350D03*
X0021850Y0003050D03*
X0024550Y0009900D03*
X0007095Y0004055D03*
X0022659Y0005059D03*
X0022400Y0006700D03*
X0022500Y0007750D03*
X0028100Y0008650D03*
X0029750Y0006800D03*
X0025400Y0006650D03*
X0033450Y0009500D03*
Y0010150D03*
X0029000Y0011000D03*
X0027500Y0010500D03*
X0018250Y0009700D03*
X0028350Y0004650D03*
X0023150Y0009550D03*
X0022700Y0007450D03*
X0022100Y0003900D03*
X0028450Y0005350D03*
X0018500Y0001950D03*
X0023080Y0003350D03*
X0031900Y0007400D03*
X0020500Y0006550D03*
X0024500Y0008000D03*
X0024600Y0006850D03*
X0027450Y0000550D03*
X0023550Y0009550D03*
X0022500Y0007150D03*
X0029450Y0005250D03*
X0031950Y0004350D03*
X0021950Y0004250D03*
X0023400Y0008350D03*
X0007750Y0005000D03*
X0022300Y0009600D03*
X0018250Y0005750D03*
X0020000Y0001950D03*
X0029450Y0004850D03*
X0027300Y0006450D03*
X0030300Y0006300D03*
X0030400Y0004450D03*
X0032500Y0003200D03*
X0025400Y0005750D03*
X0031050Y0005700D03*
X0031250Y0005100D03*
X0032150Y0004900D03*
X0032350Y0005550D03*
X0021950Y0010750D03*
X0023850Y0008200D03*
X0031500Y0003400D03*
X0024900Y0003450D03*
X0018200Y0004050D03*
X0030150Y0009500D03*
X0036350Y0003200D03*
X0018700Y0004050D03*
X0007700Y0006350D03*
X0019500Y0004450D03*
X0018550Y0008400D03*
X0017000Y0006700D03*
X0018650Y0005750D03*
X0019250Y0001950D03*
X0029000Y0004250D03*
X0024400Y0006450D03*
X0017400Y0006700D03*
X0021200Y0004400D03*
G54D72*
X0001575Y0001575D03*
Y0010236D03*
X0037795D03*
Y0001575D03*
G54D73*
X0038500Y0005463D03*
Y0004675D03*
Y0003888D03*
X0005287Y0010750D03*
G54D74*
X0038500Y0006250D03*
X0004500Y0010750D03*
G54D76*
X0014984Y0010250D03*
X0015968D03*
X0016953D03*
X0019787Y0010750D03*
X0020575D03*
X0021362D03*
X0030537Y0010500D03*
X0031325D03*
X0004963Y0001000D03*
G54D77*
X0014000Y0010250D03*
X0019000Y0010750D03*
X0029750Y0010500D03*
X0005750Y0001000D03*
G54D78*
X0025500Y0001250D03*
Y0002250D03*
X0024500D03*
X0023500D03*
G54D80*
Y0001250D03*
G54D81*
X0014250Y0005750D03*
G54D83*
Y0007750D03*
G54D84*
X0026500Y0003250D03*
X0026435Y0004000D03*
X0027550Y0004970D03*
X0037250Y0005850D03*
Y0008200D03*
X0035451Y0006250D03*
X0024200Y0006850D03*
X0020500Y0000600D03*
X0017250Y0000750D03*
X0017950Y0000600D03*
X0013250Y0004800D03*
X0007400Y0009950D03*
X0009250Y0009600D03*
X0006100Y0003250D03*
X0020000Y0007850D03*
X0012250Y0000700D03*
X0011750Y0000750D03*
X0010250Y0002400D03*
X0004200Y0004500D03*
X0009000Y0007526D03*
X0013300Y0006450D03*
X0015500Y0007000D03*
X0003400Y0007750D03*
X0022300Y0001400D03*
X0032750Y0009150D03*
X0006350Y0004750D03*
X0005650D03*
X0006350Y0005250D03*
X0005650D03*
X0006350Y0005750D03*
X0005650D03*
X0027350Y0003400D03*
X0034750Y0003200D03*
X0034250D03*
X0033700D03*
X0034800Y0003850D03*
X0034250D03*
X0033700D03*
X0034800Y0004550D03*
X0034250D03*
X0033700D03*
X0034800Y0005350D03*
X0034250D03*
X0033700D03*
X0034800Y0006100D03*
Y0006850D03*
X0034250Y0006100D03*
X0033700D03*
X0035400Y0006850D03*
X0034250D03*
X0033700D03*
X0029950Y0000450D03*
X0016500Y0008950D03*
G54D85*
X0021500Y0002800D03*
X0023750Y0005450D03*
Y0007850D03*
X0021000Y0008550D03*
X0010070Y0000700D03*
X0036230Y0000470D03*
X0032570D03*
X0015550Y0000650D03*
X0030000Y0001800D03*
X0020000Y0006550D03*
X0027000Y0004000D03*
X0027800Y0001600D03*
X0017400Y0004300D03*
X0026950Y0009050D03*
X0029250Y0006800D03*
X0018280Y0008970D03*
X0027450Y0010050D03*
X0016400Y0002750D03*
X0036300Y0005250D03*
X0007700Y0002150D03*
X0008800D03*
X0008250Y0001450D03*
X0009300D03*
X0007200D03*
Y0002800D03*
X0008250D03*
X0009300D03*
X0013200Y0002100D03*
X0014300D03*
X0014800Y0001450D03*
X0013750D03*
X0012750D03*
X0014800Y0002750D03*
X0013750D03*
X0012750D03*
G54D86*
X0019500Y0006550D03*
X0024050Y0010000D03*
X0021750Y0008550D03*
X0021200Y0003030D03*
X0009200Y0004450D03*
X0027500Y0006750D03*
X0025000Y0006950D03*
X0022900Y0010150D03*
X0027200Y0011000D03*
X0022350Y0002600D03*
X0023250Y0006450D03*
X0020850Y0006050D03*
X0032500Y0001300D03*
X0030900Y0001650D03*
X0032650Y0002700D03*
X0031750Y0001250D03*
X0034700Y0001600D03*
X0030450Y0004900D03*
X0030680Y0007780D03*
X0029150Y0010000D03*
X0018250Y0006950D03*
X0007700Y0008350D03*
X0016900Y0004500D03*
M02*
