*
G04 Mass Parameters ***
*
G04 Image ***
*
%IND:\UTENTI\00.LAVORI IN CORSO\METALTRONICA\22-315-0\22-315-0.SST*%
%ICAS*%
%MOIN*%
%IPPOS*%
%ASAXBY*%
G74*%FSLAN2X34Y34*%
*
G04 Aperture Definitions ***
*
%AMTHERMAL75*
1,1,0.1133,0,0,*
1,0,0.0894,0,0,*
21,0,0.1134,0.0100,0,0,45.0*
21,0,0.1134,0.0100,0,0,135.0*%
%AMTHERMAL79*
1,1,0.1172,0,0,*
1,0,0.0933,0,0,*
21,0,0.1173,0.0100,0,0,45.0*
21,0,0.1173,0.0100,0,0,135.0*%
%AMTHERMAL82*
1,1,0.1172,0,0,*
1,0,0.0933,0,0,*
21,0,0.1173,0.0100,0,0,315.0*
21,0,0.1173,0.0100,0,0,45.0*%
%ADD10R,0.1060X0.1180*%
%ADD11R,0.0501X0.0404*%
%ADD12R,0.0404X0.0501*%
%ADD13R,0.1260X0.0630*%
%ADD14R,0.0400X0.0710*%
%ADD15R,0.0886X0.0905*%
%ADD16R,0.0905X0.0886*%
%ADD17R,0.0380X0.0320*%
%ADD18R,0.0320X0.0380*%
%ADD19R,0.0370X0.0370*%
%ADD20R,0.0430X0.0650*%
%ADD21R,0.0850X0.1080*%
%ADD22R,0.0472X0.0472*%
%ADD23C,0.2756*%
%ADD24C,0.1378*%
%ADD25R,0.0905X0.1220*%
%ADD26C,0.0590*%
%ADD27R,0.0630X0.0630*%
%ADD28C,0.0787*%
%ADD29R,0.0787X0.0787*%
%ADD30C,0.0630*%
%ADD31R,0.0236X0.0413*%
%ADD32C,0.0187*%
%ADD33R,0.0787X0.0472*%
%ADD34C,0.0276*%
%ADD35R,0.0680X0.1580*%
%ADD36R,0.0680X0.0550*%
%ADD37R,0.0710X0.0400*%
%ADD38R,0.0630X0.0866*%
%ADD39R,0.1080X0.0850*%
%ADD40O,0.0256X0.0650*%
%ADD41R,0.0950X0.1220*%
%ADD42R,0.0750X0.0240*%
%ADD43R,0.1181X0.1701*%
%ADD44R,0.0649X0.0177*%
%ADD45R,0.1580X0.0680*%
%ADD46R,0.0550X0.0680*%
%ADD47C,0.0800*%
%ADD48R,0.0354X0.0165*%
%ADD49O,0.0110X0.0700*%
%ADD50R,0.0110X0.0700*%
%ADD51O,0.0700X0.0110*%
%ADD52R,0.0700X0.0110*%
%ADD53R,0.0354X0.0512*%
%ADD54R,0.0394X0.0197*%
%ADD55C,0.0050*%
%ADD56C,0.0100*%
%ADD57C,0.0120*%
%ADD58C,0.0276*%
%ADD59C,0.0080*%
%ADD60C,0.0250*%
%ADD61C,0.0150*%
%ADD62C,0.0300*%
%ADD63C,0.0170*%
%ADD64C,0.0500*%
%ADD65C,0.0060*%
%ADD66R,0.1024X0.0510*%
%ADD67R,0.0197X0.0315*%
%ADD68R,0.0500X0.0400*%
%ADD69R,0.0400X0.0500*%
%ADD70R,0.0500X0.0270*%
%ADD71C,0.0276*%
%ADD72C,0.1575*%
%ADD73C,0.0708*%
%ADD74R,0.0708X0.0708*%
%ADD75THERMAL75*%
%ADD76C,0.0708*%
%ADD77R,0.0708X0.0708*%
%ADD78C,0.1027*%
%ADD79THERMAL79*%
%ADD80R,0.0984X0.0984*%
%ADD81C,0.1100*%
%ADD82THERMAL82*%
%ADD83C,0.1100*%
%ADD84C,0.0050*%
%ADD85C,0.0276*%
%ADD86C,0.0050*%
%ADD87R,0.0433X0.0433*%
%ADD88C,0.0079*%
*
G04 Plot Data ***
*
G54D55*
G01X0009397Y0004380D02*
X0011627D01*
Y0006600D01*
X0009397D01*
Y0004380D01*
G54D56*
G01X0034530Y0001200D02*
Y0000750D01*
X0034440Y0001200D02*
Y0000750D01*
X0034350Y0001200D02*
Y0000750D01*
X0034260Y0001200D02*
Y0000750D01*
X0034170Y0001200D02*
Y0000750D01*
X0034080Y0001200D02*
Y0000750D01*
X0033990Y0001200D02*
Y0000750D01*
X0036550Y0001150D02*
X0033950D01*
X0036550Y0001060D02*
X0033950D01*
X0036550Y0000970D02*
X0033950D01*
X0036550Y0000880D02*
X0033950D01*
X0035520Y0001200D02*
Y0000750D01*
X0035430Y0001200D02*
Y0000750D01*
X0035340Y0001200D02*
Y0000750D01*
X0035250Y0001200D02*
Y0000750D01*
X0035160Y0001200D02*
Y0000750D01*
X0035070Y0001200D02*
Y0000750D01*
X0034980Y0001200D02*
Y0000750D01*
X0034890Y0001200D02*
Y0000750D01*
X0034800Y0001200D02*
Y0000750D01*
X0034710Y0001200D02*
Y0000750D01*
X0034620Y0001200D02*
Y0000750D01*
X0036510Y0001200D02*
Y0000750D01*
X0036420Y0001200D02*
Y0000750D01*
X0036330Y0001200D02*
Y0000750D01*
X0036240Y0001200D02*
Y0000750D01*
X0036150Y0001200D02*
Y0000750D01*
X0036060Y0001200D02*
Y0000750D01*
X0035970Y0001200D02*
Y0000750D01*
X0035880Y0001200D02*
Y0000750D01*
X0035790Y0001200D02*
Y0000750D01*
X0035700Y0001200D02*
Y0000750D01*
X0035610Y0001200D02*
Y0000750D01*
X0036550Y0000790D02*
X0033950D01*
X0036550Y0000750D02*
X0033950D01*
X0036550Y0001200D02*
Y0000750D01*
Y0001200D02*
X0033950D01*
Y0000750D01*
X0019120Y0009932D02*
Y0009667D01*
X0019030Y0009948D02*
Y0009651D01*
X0018940Y0009902D02*
Y0009698D01*
X0019182Y0009870D02*
X0018917D01*
X0019198Y0009780D02*
X0018901D01*
X0019152Y0009690D02*
X0018948D01*
X0013820Y0009182D02*
Y0008917D01*
X0013730Y0009198D02*
Y0008901D01*
X0013640Y0009152D02*
Y0008948D01*
X0013882Y0009120D02*
X0013617D01*
X0013898Y0009030D02*
X0013601D01*
X0013852Y0008940D02*
X0013648D01*
X0004570Y0009982D02*
Y0009717D01*
X0004480Y0009998D02*
Y0009701D01*
X0004390Y0009952D02*
Y0009748D01*
X0004632Y0009920D02*
X0004367D01*
X0004648Y0009830D02*
X0004351D01*
X0004602Y0009740D02*
X0004398D01*
X0030020Y0009982D02*
Y0009717D01*
X0029930Y0009998D02*
Y0009701D01*
X0029840Y0009952D02*
Y0009748D01*
X0030082Y0009920D02*
X0029817D01*
X0030098Y0009830D02*
X0029801D01*
X0030052Y0009740D02*
X0029848D01*
X0004450Y0006300D02*
X0004350Y0006200D01*
Y0004200D01*
X0007650D01*
Y0006300D01*
X0005700D01*
X0005550Y0006150D01*
X0005400Y0006300D01*
X0004450D01*
X0005820Y0002082D02*
Y0001817D01*
X0005730Y0002098D02*
Y0001801D01*
X0005640Y0002052D02*
Y0001848D01*
X0005882Y0002020D02*
X0005617D01*
X0005898Y0001930D02*
X0005601D01*
X0005852Y0001840D02*
X0005648D01*
X0021320Y0000382D02*
Y0000117D01*
X0021230Y0000398D02*
Y0000101D01*
X0021140Y0000352D02*
Y0000148D01*
X0021382Y0000320D02*
X0021117D01*
X0021398Y0000230D02*
X0021101D01*
X0021352Y0000140D02*
X0021148D01*
X0037670Y0006382D02*
Y0006117D01*
X0037580Y0006398D02*
Y0006101D01*
X0037490Y0006352D02*
Y0006148D01*
X0037732Y0006320D02*
X0037467D01*
X0037748Y0006230D02*
X0037451D01*
X0037702Y0006140D02*
X0037498D01*
X0034440Y0000600D02*
Y0000100D01*
X0034350Y0000600D02*
Y0000100D01*
X0034260Y0000600D02*
Y0000100D01*
X0034170Y0000600D02*
Y0000100D01*
X0034080Y0000600D02*
Y0000100D01*
X0033990Y0000600D02*
Y0000100D01*
X0036550Y0000590D02*
X0033950D01*
X0036550Y0000500D02*
X0033950D01*
X0036550Y0000410D02*
X0033950D01*
X0036550Y0000320D02*
X0033950D01*
X0036550Y0000230D02*
X0033950D01*
X0035430Y0000600D02*
Y0000100D01*
X0035340Y0000600D02*
Y0000100D01*
X0035250Y0000600D02*
Y0000100D01*
X0035160Y0000600D02*
Y0000100D01*
X0035070Y0000600D02*
Y0000100D01*
X0034980Y0000600D02*
Y0000100D01*
X0034890Y0000600D02*
Y0000100D01*
X0034800Y0000600D02*
Y0000100D01*
X0034710Y0000600D02*
Y0000100D01*
X0034620Y0000600D02*
Y0000100D01*
X0034530Y0000600D02*
Y0000100D01*
X0036420Y0000600D02*
Y0000100D01*
X0036330Y0000600D02*
Y0000100D01*
X0036240Y0000600D02*
Y0000100D01*
X0036150Y0000600D02*
Y0000100D01*
X0036060Y0000600D02*
Y0000100D01*
X0035970Y0000600D02*
Y0000100D01*
X0035880Y0000600D02*
Y0000100D01*
X0035790Y0000600D02*
Y0000100D01*
X0035700Y0000600D02*
Y0000100D01*
X0035610Y0000600D02*
Y0000100D01*
X0035520Y0000600D02*
Y0000100D01*
X0036550Y0000140D02*
X0033950D01*
X0036550Y0000100D02*
X0033950D01*
X0036550Y0000600D02*
Y0000100D01*
Y0000600D02*
X0033950D01*
Y0000100D01*
X0036510Y0000600D02*
Y0000100D01*
G01X0018900Y0009800D02*
G03X0019050Y0009650I0000150J0000000D01*
Y0009950D02*
G03X0018900Y0009800I0000000J0000150D01*
G01X0019200D02*
G03X0019050Y0009950I0000150J0000000D01*
Y0009650D02*
G03X0019200Y0009800I0000000J0000150D01*
G01X0013600Y0009050D02*
G03X0013750Y0008900I0000150J0000000D01*
Y0009200D02*
G03X0013600Y0009050I0000000J0000150D01*
G01X0013900D02*
G03X0013750Y0009200I0000150J0000000D01*
Y0008900D02*
G03X0013900Y0009050I0000000J0000150D01*
G01X0004350Y0009850D02*
G03X0004500Y0009700I0000150J0000000D01*
Y0010000D02*
G03X0004350Y0009850I0000000J0000150D01*
G01X0004650D02*
G03X0004500Y0010000I0000150J0000000D01*
Y0009700D02*
G03X0004650Y0009850I0000000J0000150D01*
G01X0029800D02*
G03X0029950Y0009700I0000150J0000000D01*
Y0010000D02*
G03X0029800Y0009850I0000000J0000150D01*
G01X0030100D02*
G03X0029950Y0010000I0000150J0000000D01*
Y0009700D02*
G03X0030100Y0009850I0000000J0000150D01*
G01X0005600Y0001950D02*
G03X0005750Y0001800I0000150J0000000D01*
Y0002100D02*
G03X0005600Y0001950I0000000J0000150D01*
G01X0005900D02*
G03X0005750Y0002100I0000150J0000000D01*
Y0001800D02*
G03X0005900Y0001950I0000000J0000150D01*
G01X0021100Y0000250D02*
G03X0021250Y0000100I0000150J0000000D01*
Y0000400D02*
G03X0021100Y0000250I0000000J0000150D01*
G01X0021400D02*
G03X0021250Y0000400I0000150J0000000D01*
Y0000100D02*
G03X0021400Y0000250I0000000J0000150D01*
G01X0037450Y0006250D02*
G03X0037600Y0006100I0000150J0000000D01*
Y0006400D02*
G03X0037450Y0006250I0000000J0000150D01*
G01X0037750D02*
G03X0037600Y0006400I0000150J0000000D01*
Y0006100D02*
G03X0037750Y0006250I0000000J0000150D01*
G54D59*
G01X0033705Y0000328D02*
X0033487D01*
X0033705Y0000094D02*
Y0000561D01*
X0033487Y0000094D02*
Y0000561D01*
X0033300Y0000172D02*
X0033273Y0000094D01*
X0033109D01*
X0033082Y0000172D01*
Y0000483D01*
X0033109Y0000561D01*
X0033273D01*
X0033300Y0000483D01*
X0032895D02*
X0032868Y0000561D01*
X0032704D01*
X0032677Y0000483D01*
Y0000405D01*
X0032704Y0000328D01*
X0032868D01*
X0032895Y0000250D01*
Y0000172D01*
X0032868Y0000094D01*
X0032704D01*
X0032677Y0000172D01*
X0033601Y0000694D02*
Y0000928D01*
X0033710Y0001161D02*
X0033628Y0000928D01*
X0033574D01*
X0033492Y0001161D01*
X0033305Y0001083D02*
X0033278Y0001161D01*
X0033114D01*
X0033087Y0001083D01*
Y0001005D01*
X0033114Y0000928D01*
X0033278D01*
X0033305Y0000850D01*
Y0000772D01*
X0033278Y0000694D01*
X0033114D01*
X0033087Y0000772D01*
X0032900Y0001083D02*
X0032873Y0001161D01*
X0032709D01*
X0032682Y0001083D01*
Y0001005D01*
X0032709Y0000928D01*
X0032873D01*
X0032900Y0000850D01*
Y0000772D01*
X0032873Y0000694D01*
X0032709D01*
X0032682Y0000772D01*
X0032495Y0000850D02*
X0032277D01*
X0032495Y0000694D02*
Y0000928D01*
X0032413Y0001161D01*
X0032359D01*
X0032277Y0000928D01*
Y0000694D01*
G54D65*
G01X0021359Y0009044D02*
X0021305Y0009122D01*
X0021278Y0009200D01*
Y0009355D01*
X0021305Y0009433D01*
X0021359Y0009511D01*
X0021414D01*
X0021468Y0009433D01*
X0021495Y0009355D01*
Y0009200D01*
X0021468Y0009122D01*
X0021414Y0009044D01*
X0021359D01*
X0021130Y0009278D02*
X0020913D01*
X0020548Y0009122D02*
X0020575Y0009044D01*
X0020738D01*
X0020765Y0009122D01*
Y0009278D01*
X0020711Y0009355D01*
X0020548D01*
Y0009511D01*
X0020765D01*
X0020400Y0009044D02*
X0020292D01*
X0020346D02*
Y0009511D01*
X0020292Y0009433D01*
X0019872Y0009122D02*
X0019927Y0009044D01*
X0020035D01*
X0020090Y0009122D01*
Y0009200D01*
X0019981Y0009355D01*
X0020090Y0009511D01*
X0019872D01*
X0019725Y0009278D02*
X0019507D01*
X0019360Y0009044D02*
X0019142D01*
X0019360Y0009355D01*
Y0009433D01*
X0019333Y0009511D01*
X0019169D01*
X0019142Y0009433D01*
X0018995Y0009044D02*
X0018777D01*
X0018995Y0009355D01*
Y0009433D01*
X0018968Y0009511D01*
X0018804D01*
X0018777Y0009433D01*
X0012803Y0009536D02*
X0012870Y0009559D01*
Y0009699D01*
X0012803Y0009722D01*
X0012670D01*
X0012603Y0009676D01*
Y0009536D01*
X0012470D01*
Y0009722D01*
X0012737Y0009392D02*
Y0009206D01*
X0012470Y0009299D01*
Y0009346D01*
X0012870D01*
X0012803Y0009062D02*
X0012870Y0009039D01*
Y0008899D01*
X0012803Y0008876D01*
X0012537D01*
X0012470Y0008899D01*
Y0009039D01*
X0012537Y0009062D01*
X0028066Y0001630D02*
Y0001536D01*
Y0001583D02*
X0027666D01*
X0027732Y0001536D01*
X0028066Y0001346D02*
Y0001253D01*
Y0001300D02*
X0027666D01*
X0027732Y0001253D01*
Y0001063D02*
X0027666Y0001040D01*
Y0000900D01*
X0027732Y0000876D01*
X0027799D01*
X0027866Y0000900D01*
Y0001040D01*
X0027932Y0001063D01*
X0027999D01*
X0028066Y0001040D01*
Y0000900D01*
X0027999Y0000876D01*
X0027666Y0000733D02*
X0027799D01*
X0028066Y0000640D01*
X0027799Y0000546D01*
X0027666D01*
X0028066Y0000310D02*
X0027666D01*
Y0000403D02*
Y0000216D01*
X0032066Y0001676D02*
Y0001490D01*
X0031799Y0001676D01*
X0031732D01*
X0031666Y0001653D01*
Y0001513D01*
X0031732Y0001490D01*
X0032066Y0001346D02*
Y0001253D01*
Y0001300D02*
X0031666D01*
X0031732Y0001253D01*
Y0001063D02*
X0031666Y0001040D01*
Y0000900D01*
X0031732Y0000876D01*
X0031799D01*
X0031866Y0000900D01*
Y0001040D01*
X0031932Y0001063D01*
X0031999D01*
X0032066Y0001040D01*
Y0000900D01*
X0031999Y0000876D01*
X0031666Y0000733D02*
X0031799D01*
X0032066Y0000640D01*
X0031799Y0000546D01*
X0031666D01*
X0032066Y0000310D02*
X0031666D01*
Y0000403D02*
Y0000216D01*
X0028082Y0007468D02*
Y0007375D01*
Y0007422D02*
X0027682D01*
X0027749Y0007375D01*
X0027682Y0007185D02*
X0028015D01*
X0028082Y0007162D01*
X0027882Y0007092D01*
X0027815D02*
X0027882D01*
X0028082Y0007022D01*
X0028015Y0006998D01*
X0027682D01*
X0027749Y0006855D02*
X0027682Y0006832D01*
Y0006692D01*
X0027749Y0006668D01*
X0027815D01*
X0027882Y0006692D01*
Y0006832D01*
X0027949Y0006855D01*
X0028015D01*
X0028082Y0006832D01*
Y0006692D01*
X0028015Y0006668D01*
X0030553Y0004106D02*
Y0004013D01*
Y0004059D02*
X0030153D01*
X0030219Y0004013D01*
X0030553Y0003823D02*
Y0003729D01*
Y0003776D02*
X0030153D01*
X0030219Y0003729D01*
X0030153Y0003539D02*
X0030486D01*
X0030553Y0003516D01*
Y0003376D01*
X0030486Y0003353D01*
X0030153D01*
X0031378Y0004083D02*
Y0003989D01*
Y0004036D02*
X0030978D01*
X0031044Y0003989D01*
X0031378Y0003799D02*
Y0003706D01*
Y0003753D02*
X0030978D01*
X0031044Y0003706D01*
X0031178Y0003446D02*
X0031378Y0003516D01*
X0031178Y0003329D02*
Y0003469D01*
X0031111Y0003516D01*
X0031044D01*
X0030978Y0003469D01*
Y0003329D01*
X0031378D01*
X0036030Y0009136D02*
Y0009042D01*
Y0009089D02*
X0035630D01*
X0035697Y0009042D01*
X0035830Y0008782D02*
X0036030Y0008852D01*
X0035830Y0008666D02*
Y0008806D01*
X0035764Y0008852D01*
X0035697D01*
X0035630Y0008806D01*
Y0008666D01*
X0036030D01*
X0035830Y0008476D02*
Y0008336D01*
X0036030D02*
X0035630D01*
Y0008522D01*
X0017054Y0007223D02*
X0016654Y0007363D01*
Y0007176D01*
Y0007033D02*
X0016987D01*
X0017054Y0007009D01*
Y0006869D01*
X0016987Y0006846D01*
X0016654D01*
X0021383Y0000877D02*
X0020983Y0001017D01*
Y0000830D01*
X0021250Y0000523D02*
X0021317D01*
X0021383Y0000547D01*
Y0000640D01*
X0021317Y0000663D01*
X0020983D01*
Y0000687D02*
Y0000593D01*
X0017924Y0000787D02*
X0017991Y0000810D01*
Y0000950D01*
X0017924Y0000973D01*
X0017791D01*
X0017724Y0000927D01*
Y0000787D01*
X0017591D01*
Y0000973D01*
X0017991Y0000643D02*
Y0000480D01*
X0017591D01*
X0017991Y0000173D02*
X0017591D01*
X0017991Y0000150D02*
Y0000290D01*
X0017857Y0000337D01*
X0017724D01*
X0017591Y0000290D01*
Y0000150D01*
X0026806Y0008409D02*
Y0008222D01*
X0026539Y0008315D01*
Y0008362D01*
X0026939D01*
Y0007915D02*
X0026539D01*
X0026939Y0007892D02*
Y0008032D01*
X0026806Y0008079D01*
X0026673D01*
X0026539Y0008032D01*
Y0007892D01*
X0025227Y0011504D02*
Y0011644D01*
X0025294Y0011668D01*
X0025360D01*
X0025427Y0011644D01*
Y0011504D01*
X0025360Y0011481D01*
X0025294D01*
X0025027Y0011574D01*
X0025427Y0011338D02*
Y0011244D01*
Y0011291D02*
X0025027D01*
X0025094Y0011244D01*
X0025227Y0010984D02*
X0025427Y0011054D01*
X0025227Y0010868D02*
Y0011008D01*
X0025160Y0011054D01*
X0025094D01*
X0025027Y0011008D01*
Y0010868D01*
X0025427D01*
X0003556Y0007867D02*
Y0007681D01*
X0003289Y0007867D01*
X0003223D01*
X0003156Y0007844D01*
Y0007704D01*
X0003223Y0007681D01*
X0003489Y0007537D02*
X0003556Y0007514D01*
Y0007374D01*
X0003489Y0007351D01*
X0003223D01*
X0003156Y0007374D01*
Y0007514D01*
X0003223Y0007537D01*
X0010557Y0006823D02*
X0010604Y0006757D01*
X0010697D01*
X0010744Y0006823D01*
Y0006890D01*
X0010650Y0007023D01*
X0010744Y0007157D01*
X0010557D01*
X0010414Y0006757D02*
X0010250D01*
Y0007157D01*
X0036123Y0007992D02*
X0035723Y0008132D01*
Y0007945D01*
X0036056Y0007802D02*
X0036123Y0007778D01*
Y0007638D01*
X0036056Y0007615D01*
X0035789D01*
X0035723Y0007638D01*
Y0007778D01*
X0035789Y0007802D01*
X0017191Y0004927D02*
Y0004833D01*
Y0004880D02*
X0016791D01*
X0016857Y0004833D01*
X0017191Y0004643D02*
Y0004480D01*
X0016791D01*
X0017191Y0004173D02*
X0016791D01*
X0017191Y0004150D02*
Y0004290D01*
X0017057Y0004337D01*
X0016924D01*
X0016791Y0004290D01*
Y0004150D01*
X0015835Y0000997D02*
Y0000810D01*
X0015568Y0000903D01*
Y0000950D01*
X0015968D01*
Y0000667D02*
Y0000480D01*
X0015702Y0000667D01*
X0015635D01*
X0015568Y0000643D01*
Y0000503D01*
X0015635Y0000480D01*
X0015902Y0000337D02*
X0015968Y0000313D01*
Y0000173D01*
X0015902Y0000150D01*
X0015635D01*
X0015568Y0000173D01*
Y0000313D01*
X0015635Y0000337D01*
X0027573Y0011431D02*
X0027597Y0011498D01*
Y0011565D01*
X0027573Y0011631D01*
X0027433D01*
X0027410Y0011565D01*
Y0011498D01*
X0027433Y0011431D01*
X0027573D01*
X0027597Y0011365D01*
Y0011298D01*
X0027573Y0011231D01*
X0027433D01*
X0027410Y0011298D01*
Y0011365D01*
X0027433Y0011431D01*
X0027267Y0011231D02*
X0027080D01*
X0027267Y0011498D01*
Y0011565D01*
X0027243Y0011631D01*
X0027103D01*
X0027080Y0011565D01*
X0026937Y0011298D02*
X0026913Y0011231D01*
X0026773D01*
X0026750Y0011298D01*
Y0011565D01*
X0026773Y0011631D01*
X0026913D01*
X0026937Y0011565D01*
X0032014Y0002027D02*
X0032154D01*
X0032178Y0001960D01*
Y0001894D01*
X0032154Y0001827D01*
X0032014D01*
X0031991Y0001894D01*
Y0001960D01*
X0032084Y0002227D01*
X0031848Y0001894D02*
X0031824Y0001827D01*
X0031684D01*
X0031661Y0001894D01*
Y0002160D01*
X0031684Y0002227D01*
X0031824D01*
X0031848Y0002160D01*
X0017352Y0000810D02*
X0017418Y0000857D01*
Y0000950D01*
X0017352Y0000997D01*
X0017285D01*
X0017152Y0000903D01*
X0017018Y0000997D01*
Y0000810D01*
X0017418Y0000667D02*
Y0000480D01*
X0017152Y0000667D01*
X0017085D01*
X0017018Y0000643D01*
Y0000503D01*
X0017085Y0000480D01*
X0017352Y0000337D02*
X0017418Y0000313D01*
Y0000173D01*
X0017352Y0000150D01*
X0017085D01*
X0017018Y0000173D01*
Y0000313D01*
X0017085Y0000337D01*
X0032436Y0004729D02*
X0032370Y0004682D01*
X0032303Y0004659D01*
X0032170D01*
X0032103Y0004682D01*
X0032036Y0004729D01*
Y0004775D01*
X0032103Y0004822D01*
X0032170Y0004845D01*
X0032303D01*
X0032370Y0004822D01*
X0032436Y0004775D01*
Y0004729D01*
Y0004515D02*
Y0004422D01*
Y0004469D02*
X0032036D01*
X0032103Y0004422D01*
X0032370Y0004232D02*
X0032436Y0004209D01*
Y0004069D01*
X0032370Y0004045D01*
X0032103D01*
X0032036Y0004069D01*
Y0004209D01*
X0032103Y0004232D01*
X0008367Y0009380D02*
X0008433Y0009403D01*
Y0009543D01*
X0008367Y0009567D01*
X0008233D01*
X0008167Y0009520D01*
Y0009380D01*
X0008033D01*
Y0009567D01*
X0008433Y0009237D02*
Y0009073D01*
X0008033D01*
X0034621Y0002387D02*
Y0002294D01*
Y0002340D02*
X0034221D01*
X0034288Y0002294D01*
X0034621Y0002104D02*
Y0002010D01*
Y0002057D02*
X0034221D01*
X0034288Y0002010D01*
X0034554Y0001820D02*
X0034621Y0001797D01*
Y0001657D01*
X0034554Y0001634D01*
X0034288D01*
X0034221Y0001657D01*
Y0001797D01*
X0034288Y0001820D01*
X0011368Y0000997D02*
Y0000810D01*
X0011102Y0000997D01*
X0011035D01*
X0010968Y0000973D01*
Y0000833D01*
X0011035Y0000810D01*
X0011368Y0000667D02*
Y0000480D01*
X0011102Y0000667D01*
X0011035D01*
X0010968Y0000643D01*
Y0000503D01*
X0011035Y0000480D01*
X0011302Y0000337D02*
X0011368Y0000313D01*
Y0000173D01*
X0011302Y0000150D01*
X0011035D01*
X0010968Y0000173D01*
Y0000313D01*
X0011035Y0000337D01*
X0010418Y0000950D02*
Y0000857D01*
Y0000903D02*
X0010018D01*
X0010085Y0000857D01*
X0010418Y0000667D02*
Y0000480D01*
X0010152Y0000667D01*
X0010085D01*
X0010018Y0000643D01*
Y0000503D01*
X0010085Y0000480D01*
X0010352Y0000337D02*
X0010418Y0000313D01*
Y0000173D01*
X0010352Y0000150D01*
X0010085D01*
X0010018Y0000173D01*
Y0000313D01*
X0010085Y0000337D01*
X0004165Y0006317D02*
X0003978D01*
X0004165Y0006583D01*
Y0006650D01*
X0004142Y0006717D01*
X0004002D01*
X0003978Y0006650D01*
X0003835Y0006717D02*
Y0006383D01*
X0003812Y0006317D01*
X0003672D01*
X0003648Y0006383D01*
Y0006717D01*
X0019991Y0004650D02*
X0019924Y0004673D01*
X0019857D01*
X0019791Y0004650D01*
Y0004510D01*
X0019857Y0004487D01*
X0019924D01*
X0019991Y0004510D01*
Y0004650D01*
X0020057Y0004673D01*
X0020124D01*
X0020191Y0004650D01*
Y0004510D01*
X0020124Y0004487D01*
X0020057D01*
X0019991Y0004510D01*
X0020191Y0004343D02*
Y0004180D01*
X0019791D01*
X0020191Y0003873D02*
X0019791D01*
X0020191Y0003850D02*
Y0003990D01*
X0020057Y0004037D01*
X0019924D01*
X0019791Y0003990D01*
Y0003850D01*
X0018278Y0009780D02*
X0018211Y0009804D01*
X0018144D01*
X0018078Y0009780D01*
Y0009640D01*
X0018144Y0009617D01*
X0018211D01*
X0018278Y0009640D01*
Y0009780D01*
X0018344Y0009804D01*
X0018411D01*
X0018478Y0009780D01*
Y0009640D01*
X0018411Y0009617D01*
X0018344D01*
X0018278Y0009640D01*
X0018344Y0009310D02*
X0018411D01*
X0018478Y0009334D01*
Y0009427D01*
X0018411Y0009450D01*
X0018078D01*
Y0009474D02*
Y0009380D01*
X0012818Y0008127D02*
X0012752Y0008150D01*
X0012685D01*
X0012618Y0008127D01*
Y0007987D01*
X0012685Y0007963D01*
X0012752D01*
X0012818Y0007987D01*
Y0008127D01*
X0012885Y0008150D01*
X0012952D01*
X0013018Y0008127D01*
Y0007987D01*
X0012952Y0007963D01*
X0012885D01*
X0012818Y0007987D01*
X0013018Y0007820D02*
Y0007727D01*
Y0007773D02*
X0012618D01*
X0012685Y0007727D01*
X0012952Y0007537D02*
X0013018Y0007513D01*
Y0007373D01*
X0012952Y0007350D01*
X0012685D01*
X0012618Y0007373D01*
Y0007513D01*
X0012685Y0007537D01*
X0003439Y0011633D02*
Y0011540D01*
Y0011586D02*
X0003039D01*
X0003105Y0011540D01*
X0003305Y0011186D02*
X0003372D01*
X0003439Y0011210D01*
Y0011303D01*
X0003372Y0011326D01*
X0003039D01*
Y0011350D02*
Y0011256D01*
X0003689Y0009528D02*
Y0009341D01*
X0003423Y0009434D01*
Y0009481D01*
X0003823D01*
X0003756Y0009198D02*
X0003823Y0009174D01*
Y0009034D01*
X0003756Y0009011D01*
X0003489D01*
X0003423Y0009034D01*
Y0009174D01*
X0003489Y0009198D01*
X0019241Y0004510D02*
Y0004650D01*
X0019307Y0004673D01*
X0019374D01*
X0019441Y0004650D01*
Y0004510D01*
X0019374Y0004487D01*
X0019307D01*
X0019041Y0004580D01*
X0019441Y0004343D02*
Y0004180D01*
X0019041D01*
X0019441Y0003873D02*
X0019041D01*
X0019441Y0003850D02*
Y0003990D01*
X0019307Y0004037D01*
X0019174D01*
X0019041Y0003990D01*
Y0003850D01*
X0028535Y0011346D02*
X0028559Y0011280D01*
X0028699D01*
X0028722Y0011346D01*
Y0011480D01*
X0028675Y0011546D01*
X0028535D01*
Y0011680D01*
X0028722D01*
X0028229Y0011413D02*
Y0011346D01*
X0028252Y0011280D01*
X0028345D01*
X0028369Y0011346D01*
Y0011680D01*
X0028392D02*
X0028299D01*
X0008518Y0007960D02*
X0008118Y0008100D01*
Y0007913D01*
X0008518Y0007770D02*
Y0007677D01*
Y0007723D02*
X0008118D01*
X0008185Y0007677D01*
X0008452Y0007487D02*
X0008518Y0007463D01*
Y0007323D01*
X0008452Y0007300D01*
X0008185D01*
X0008118Y0007323D01*
Y0007463D01*
X0008185Y0007487D01*
X0026039Y0009289D02*
X0025639Y0009429D01*
Y0009242D01*
X0026039Y0009099D02*
Y0009005D01*
Y0009052D02*
X0025639D01*
X0025706Y0009005D01*
X0025839Y0008745D02*
X0026039Y0008815D01*
X0025839Y0008629D02*
Y0008769D01*
X0025773Y0008815D01*
X0025706D01*
X0025639Y0008769D01*
Y0008629D01*
X0026039D01*
X0017733Y0007320D02*
Y0007227D01*
Y0007273D02*
X0017333D01*
X0017400Y0007227D01*
X0017733Y0007037D02*
Y0006873D01*
X0017333D01*
X0027030Y0003744D02*
X0026844D01*
X0026937Y0004010D01*
X0026984D01*
Y0003610D01*
X0026700Y0003744D02*
X0026514D01*
X0026607Y0004010D01*
X0026654D01*
Y0003610D01*
X0026370Y0003677D02*
X0026347Y0003610D01*
X0026207D01*
X0026184Y0003677D01*
Y0003944D01*
X0026207Y0004010D01*
X0026347D01*
X0026370Y0003944D01*
X0003904Y0004514D02*
X0003971Y0004560D01*
Y0004654D01*
X0003904Y0004700D01*
X0003838D01*
X0003704Y0004607D01*
X0003571Y0004700D01*
Y0004514D01*
X0003904Y0004370D02*
X0003971Y0004347D01*
Y0004207D01*
X0003904Y0004184D01*
X0003638D01*
X0003571Y0004207D01*
Y0004347D01*
X0003638Y0004370D01*
X0036489Y0007234D02*
X0036555Y0007280D01*
Y0007374D01*
X0036489Y0007420D01*
X0036422D01*
X0036289Y0007327D01*
X0036155Y0007420D01*
Y0007234D01*
X0036555Y0007090D02*
Y0006997D01*
Y0007044D02*
X0036155D01*
X0036222Y0006997D01*
X0036355Y0006737D02*
X0036555Y0006807D01*
X0036355Y0006620D02*
Y0006760D01*
X0036289Y0006807D01*
X0036222D01*
X0036155Y0006760D01*
Y0006620D01*
X0036555D01*
X0020741Y0004650D02*
Y0004510D01*
X0020674Y0004487D01*
X0020607D01*
X0020541Y0004510D01*
Y0004650D01*
X0020607Y0004673D01*
X0020674D01*
X0020941Y0004580D01*
Y0004343D02*
Y0004180D01*
X0020541D01*
X0020941Y0003873D02*
X0020541D01*
X0020941Y0003850D02*
Y0003990D01*
X0020807Y0004037D01*
X0020674D01*
X0020541Y0003990D01*
Y0003850D01*
X0003361Y0000467D02*
X0003428Y0000514D01*
Y0000607D01*
X0003361Y0000654D01*
X0003294D01*
X0003161Y0000560D01*
X0003028Y0000654D01*
Y0000467D01*
X0003294Y0000160D02*
X0003361D01*
X0003428Y0000184D01*
Y0000277D01*
X0003361Y0000300D01*
X0003028D01*
Y0000324D02*
Y0000230D01*
X0020824Y0001787D02*
X0020891Y0001833D01*
Y0001927D01*
X0020824Y0001973D01*
X0020757D01*
X0020624Y0001880D01*
X0020491Y0001973D01*
Y0001787D01*
X0020891Y0001643D02*
Y0001480D01*
X0020491D01*
X0020891Y0001173D02*
X0020491D01*
X0020891Y0001150D02*
Y0001290D01*
X0020757Y0001337D01*
X0020624D01*
X0020491Y0001290D01*
Y0001150D01*
X0007770Y0010809D02*
Y0010949D01*
X0007837Y0010972D01*
X0007903D01*
X0007970Y0010949D01*
Y0010809D01*
X0007903Y0010786D01*
X0007837D01*
X0007570Y0010879D01*
X0007837Y0010642D02*
Y0010456D01*
X0007570Y0010549D01*
Y0010596D01*
X0007970D01*
X0007903Y0010312D02*
X0007970Y0010289D01*
Y0010149D01*
X0007903Y0010126D01*
X0007637D01*
X0007570Y0010149D01*
Y0010289D01*
X0007637Y0010312D01*
X0027234Y0007289D02*
X0027281Y0007222D01*
X0027374D01*
X0027421Y0007289D01*
Y0007355D01*
X0027328Y0007489D01*
X0027421Y0007622D01*
X0027234D01*
X0027091Y0007355D02*
X0026904D01*
X0026998Y0007622D01*
X0027044D01*
Y0007222D01*
X0026761Y0007289D02*
X0026738Y0007222D01*
X0026598D01*
X0026574Y0007289D01*
Y0007555D01*
X0026598Y0007622D01*
X0026738D01*
X0026761Y0007555D01*
X0021839Y0009866D02*
Y0010006D01*
X0021905Y0010030D01*
X0021972D01*
X0022039Y0010006D01*
Y0009866D01*
X0021972Y0009843D01*
X0021905D01*
X0021639Y0009936D01*
X0021905Y0009536D02*
X0021972D01*
X0022039Y0009560D01*
Y0009653D01*
X0021972Y0009676D01*
X0021639D01*
Y0009700D02*
Y0009606D01*
X0036555Y0005170D02*
Y0004984D01*
X0036289Y0005170D01*
X0036222D01*
X0036155Y0005147D01*
Y0005007D01*
X0036222Y0004984D01*
X0036555Y0004840D02*
Y0004747D01*
Y0004794D02*
X0036155D01*
X0036222Y0004747D01*
X0036355Y0004487D02*
X0036555Y0004557D01*
X0036355Y0004370D02*
Y0004510D01*
X0036289Y0004557D01*
X0036222D01*
X0036155Y0004510D01*
Y0004370D01*
X0036555D01*
X0035543Y0002433D02*
X0035610Y0002479D01*
Y0002573D01*
X0035543Y0002619D01*
X0035477D01*
X0035343Y0002526D01*
X0035210Y0002619D01*
Y0002433D01*
Y0002289D02*
X0035543D01*
X0035610Y0002266D01*
Y0002126D01*
X0035543Y0002103D01*
X0035210D01*
X0012011Y0000828D02*
X0011944Y0000851D01*
X0011878D01*
X0011811Y0000828D01*
Y0000688D01*
X0011878Y0000665D01*
X0011944D01*
X0012011Y0000688D01*
Y0000828D01*
X0012078Y0000851D01*
X0012144D01*
X0012211Y0000828D01*
Y0000688D01*
X0012144Y0000665D01*
X0012078D01*
X0012011Y0000688D01*
X0011811Y0000521D02*
X0012144D01*
X0012211Y0000498D01*
Y0000358D01*
X0012144Y0000335D01*
X0011811D01*
X0009368Y0004011D02*
X0009181D01*
X0009274Y0004278D01*
X0009321D01*
Y0003878D01*
X0009038Y0004278D02*
Y0003945D01*
X0009014Y0003878D01*
X0008874D01*
X0008851Y0003945D01*
Y0004278D01*
X0004590Y0002276D02*
Y0002182D01*
Y0002229D02*
X0004190D01*
X0004257Y0002182D01*
X0004590Y0001829D02*
X0004190D01*
X0004590Y0001806D02*
Y0001946D01*
X0004457Y0001992D01*
X0004323D01*
X0004190Y0001946D01*
Y0001806D01*
X0038796Y0007811D02*
Y0007624D01*
X0038530Y0007811D01*
X0038463D01*
X0038396Y0007788D01*
Y0007648D01*
X0038463Y0007624D01*
X0038663Y0007318D02*
X0038730D01*
X0038796Y0007341D01*
Y0007434D01*
X0038730Y0007458D01*
X0038396D01*
Y0007481D02*
Y0007388D01*
X0019654Y0001927D02*
X0019467D01*
X0019561Y0002193D01*
X0019607D01*
Y0001793D01*
X0019324D02*
X0019161D01*
Y0002193D01*
X0018854Y0001793D02*
Y0002193D01*
X0018831Y0001793D02*
X0018971D01*
X0019017Y0001927D01*
Y0002060D01*
X0018971Y0002193D01*
X0018831D01*
X0025883Y0004700D02*
Y0004607D01*
Y0004653D02*
X0025483D01*
X0025550Y0004607D01*
X0025883Y0004323D02*
X0025483D01*
Y0004417D02*
Y0004230D01*
X0025883Y0004087D02*
X0025483Y0003947D01*
Y0004087D02*
X0025883Y0003947D01*
X0022426Y0010017D02*
Y0009877D01*
X0022360Y0009853D01*
X0022293D01*
X0022226Y0009877D01*
Y0010017D01*
X0022293Y0010040D01*
X0022360D01*
X0022626Y0009947D01*
X0022226Y0009710D02*
X0022560D01*
X0022626Y0009687D01*
Y0009547D01*
X0022560Y0009523D01*
X0022226D01*
X0017891Y0004923D02*
Y0004737D01*
X0017624Y0004923D01*
X0017557D01*
X0017491Y0004900D01*
Y0004760D01*
X0017557Y0004737D01*
X0017891Y0004593D02*
Y0004430D01*
X0017491D01*
X0017891Y0004123D02*
X0017491D01*
X0017891Y0004100D02*
Y0004240D01*
X0017757Y0004287D01*
X0017624D01*
X0017491Y0004240D01*
Y0004100D01*
X0032255Y0008881D02*
X0032322Y0008904D01*
Y0009044D01*
X0032255Y0009068D01*
X0032122D01*
X0032055Y0009021D01*
Y0008881D01*
X0031922D01*
Y0009068D01*
X0032189Y0008644D02*
X0032322Y0008738D01*
X0032255Y0008551D02*
X0032322Y0008574D01*
Y0008668D01*
X0032255Y0008691D01*
X0032189Y0008738D01*
X0031989D01*
X0031922Y0008714D01*
Y0008574D01*
X0031989Y0008551D01*
X0032255D01*
X0021907Y0004838D02*
X0021841Y0004791D01*
X0021774Y0004768D01*
X0021641D01*
X0021574Y0004791D01*
X0021507Y0004838D01*
Y0004885D01*
X0021574Y0004931D01*
X0021641Y0004955D01*
X0021774D01*
X0021841Y0004931D01*
X0021907Y0004885D01*
Y0004838D01*
Y0004625D02*
Y0004531D01*
Y0004578D02*
X0021507D01*
X0021574Y0004531D01*
X0021507Y0004341D02*
X0021841D01*
X0021907Y0004318D01*
Y0004178D01*
X0021841Y0004155D01*
X0021507D01*
X0026283Y0005063D02*
Y0004970D01*
Y0005017D02*
X0025883D01*
X0025950Y0004970D01*
X0006680Y0010444D02*
Y0010304D01*
X0006614Y0010281D01*
X0006547D01*
X0006480Y0010304D01*
Y0010444D01*
X0006547Y0010468D01*
X0006614D01*
X0006880Y0010374D01*
X0006680Y0010068D02*
X0006880Y0010138D01*
X0006680Y0009951D02*
Y0010091D01*
X0006614Y0010138D01*
X0006547D01*
X0006480Y0010091D01*
Y0009951D01*
X0006880D01*
X0018444Y0007339D02*
Y0007246D01*
Y0007292D02*
X0018044D01*
X0018111Y0007246D01*
X0018044Y0007056D02*
X0018378D01*
X0018444Y0007032D01*
Y0006892D01*
X0018378Y0006869D01*
X0018044D01*
X0006384Y0004005D02*
Y0003865D01*
X0006318Y0003842D01*
X0006251D01*
X0006184Y0003865D01*
Y0004005D01*
X0006251Y0004029D01*
X0006318D01*
X0006584Y0003935D01*
Y0003699D02*
Y0003605D01*
Y0003652D02*
X0006184D01*
X0006251Y0003605D01*
X0006384Y0003345D02*
X0006584Y0003415D01*
X0006384Y0003229D02*
Y0003369D01*
X0006318Y0003415D01*
X0006251D01*
X0006184Y0003369D01*
Y0003229D01*
X0006584D01*
X0032427Y0002194D02*
X0032360Y0002218D01*
X0032294D01*
X0032227Y0002194D01*
Y0002054D01*
X0032294Y0002031D01*
X0032360D01*
X0032427Y0002054D01*
Y0002194D01*
X0032494Y0002218D01*
X0032560D01*
X0032627Y0002194D01*
Y0002054D01*
X0032560Y0002031D01*
X0032494D01*
X0032427Y0002054D01*
X0032627Y0001888D02*
Y0001794D01*
Y0001841D02*
X0032227D01*
X0032294Y0001794D01*
X0032427Y0001534D02*
X0032627Y0001604D01*
X0032427Y0001418D02*
Y0001558D01*
X0032360Y0001604D01*
X0032294D01*
X0032227Y0001558D01*
Y0001418D01*
X0032627D01*
X0018741Y0004583D02*
X0018341Y0004723D01*
Y0004537D01*
X0018741Y0004393D02*
Y0004230D01*
X0018341D01*
X0018741Y0003923D02*
X0018341D01*
X0018741Y0003900D02*
Y0004040D01*
X0018607Y0004087D01*
X0018474D01*
X0018341Y0004040D01*
Y0003900D01*
X0000723Y0004063D02*
Y0003923D01*
X0000657Y0003900D01*
X0000590D01*
X0000523Y0003923D01*
Y0004063D01*
X0000590Y0004087D01*
X0000657D01*
X0000923Y0003993D01*
Y0003757D02*
Y0003593D01*
X0000523D01*
X0030223Y0006754D02*
Y0006614D01*
X0030156Y0006591D01*
X0030089D01*
X0030023Y0006614D01*
Y0006754D01*
X0030089Y0006778D01*
X0030156D01*
X0030423Y0006684D01*
X0030356Y0006448D02*
X0030423Y0006424D01*
Y0006284D01*
X0030356Y0006261D01*
X0030089D01*
X0030023Y0006284D01*
Y0006424D01*
X0030089Y0006448D01*
X0028973Y0003654D02*
X0028845D01*
X0028932Y0003752D02*
Y0003618D01*
X0028878Y0003749D02*
Y0003621D01*
X0028976Y0003708D02*
X0028842D01*
X0030146Y0002930D02*
X0030033D01*
X0030124Y0002999D02*
Y0002900D01*
X0030070Y0003006D02*
Y0002893D01*
X0030139Y0002984D02*
X0030040D01*
X0029980Y0002070D02*
X0031530D01*
X0027657Y0003870D02*
X0027342D01*
Y0006230D01*
X0027617D01*
X0028483Y0003870D02*
X0028758D01*
Y0006230D01*
X0028483D01*
X0028214Y0002614D02*
X0028213Y0000900D01*
Y0000255D01*
X0029787D01*
X0029790Y0003060D01*
X0029610Y0003240D01*
X0028350D01*
X0028210Y0003070D01*
X0028214Y0002614D01*
X0028776Y0003220D02*
Y0003150D01*
X0028722Y0003220D02*
Y0003150D01*
X0028668Y0003220D02*
Y0003150D01*
X0028614Y0003220D02*
Y0003150D01*
X0028560Y0003220D02*
Y0003150D01*
X0028506Y0003220D02*
Y0003150D01*
X0028452Y0003220D02*
Y0003150D01*
X0028398Y0003220D02*
Y0003150D01*
X0028344Y0003213D02*
Y0003150D01*
X0029616Y0003214D02*
X0028345D01*
X0029370Y0003220D02*
Y0003150D01*
X0029316Y0003220D02*
Y0003150D01*
X0029262Y0003220D02*
Y0003150D01*
X0029208Y0003220D02*
Y0003150D01*
X0029154Y0003220D02*
Y0003150D01*
X0029100Y0003220D02*
Y0003150D01*
X0029046Y0003220D02*
Y0003150D01*
X0028992Y0003220D02*
Y0003150D01*
X0028938Y0003220D02*
Y0003150D01*
X0028884Y0003220D02*
Y0003150D01*
X0028830Y0003220D02*
Y0003150D01*
X0029610Y0003220D02*
X0028350D01*
X0028300Y0003160D01*
X0028270Y0003140D01*
X0028250Y0003120D01*
X0029640Y0003190D02*
Y0003150D01*
X0029586Y0003220D02*
Y0003150D01*
X0029532Y0003220D02*
Y0003150D01*
X0029478Y0003220D02*
Y0003150D01*
X0029424Y0003220D02*
Y0003150D01*
X0029670Y0003160D02*
X0028300D01*
X0028290D02*
X0028250Y0003120D01*
X0028290Y0003160D02*
X0028300Y0003150D01*
X0029680D02*
X0028300D01*
X0029610Y0003220D02*
X0029680Y0003150D01*
X0028396Y0002930D02*
X0028283D01*
X0028374Y0002999D02*
Y0002900D01*
X0028320Y0003006D02*
Y0002893D01*
X0028389Y0002984D02*
X0028290D01*
X0028230Y0002070D02*
X0029780D01*
X0029964Y0002614D02*
X0029963Y0000900D01*
Y0000255D01*
X0031537D01*
X0031540Y0003060D01*
X0031360Y0003240D01*
X0030100D01*
X0029960Y0003070D01*
X0029964Y0002614D01*
X0030526Y0003220D02*
Y0003150D01*
X0030472Y0003220D02*
Y0003150D01*
X0030418Y0003220D02*
Y0003150D01*
X0030364Y0003220D02*
Y0003150D01*
X0030310Y0003220D02*
Y0003150D01*
X0030256Y0003220D02*
Y0003150D01*
X0030202Y0003220D02*
Y0003150D01*
X0030148Y0003220D02*
Y0003150D01*
X0030094Y0003213D02*
Y0003150D01*
X0031366Y0003214D02*
X0030095D01*
X0031120Y0003220D02*
Y0003150D01*
X0031066Y0003220D02*
Y0003150D01*
X0031012Y0003220D02*
Y0003150D01*
X0030958Y0003220D02*
Y0003150D01*
X0030904Y0003220D02*
Y0003150D01*
X0030850Y0003220D02*
Y0003150D01*
X0030796Y0003220D02*
Y0003150D01*
X0030742Y0003220D02*
Y0003150D01*
X0030688Y0003220D02*
Y0003150D01*
X0030634Y0003220D02*
Y0003150D01*
X0030580Y0003220D02*
Y0003150D01*
X0031360Y0003220D02*
X0030100D01*
X0030050Y0003160D01*
X0030020Y0003140D01*
X0030000Y0003120D01*
X0031390Y0003190D02*
Y0003150D01*
X0031336Y0003220D02*
Y0003150D01*
X0031282Y0003220D02*
Y0003150D01*
X0031228Y0003220D02*
Y0003150D01*
X0031174Y0003220D02*
Y0003150D01*
X0031420Y0003160D02*
X0030050D01*
X0030040D02*
X0030000Y0003120D01*
X0030040Y0003160D02*
X0030050Y0003150D01*
X0031430D02*
X0030050D01*
X0031360Y0003220D02*
X0031430Y0003150D01*
X0003089Y0004970D02*
X0002530Y0004411D01*
X0000608D01*
X0000412Y0004608D02*
Y0006529D01*
X0000971Y0007088D01*
X0002892D01*
X0003089Y0006892D02*
Y0004970D01*
X0002948Y0004273D02*
X0003227Y0004552D01*
X0000273Y0006948D02*
X0000552Y0007227D01*
X0000608D02*
X0000830Y0007004D01*
X0000858Y0006976D01*
X0000524Y0006642D02*
X0000496Y0006670D01*
X0000273Y0006892D01*
X0002893Y0004273D02*
X0002670Y0004496D01*
X0002642Y0004524D01*
X0002976Y0004858D02*
X0003004Y0004830D01*
X0003227Y0004607D01*
X0001750Y0007068D02*
Y0007069D01*
X0031950Y0006850D02*
X0030550D01*
Y0006150D01*
X0031950D01*
Y0006850D01*
X0031825Y0004825D02*
X0030675D01*
Y0004180D01*
X0031825D01*
Y0004825D01*
X0021905Y0003000D02*
X0027094D01*
X0027331Y0003236D01*
X0021669D01*
X0021905Y0003000D01*
Y0000500D01*
X0021669Y0000264D01*
Y0003236D01*
X0025386Y0000008D02*
X0023614D01*
X0021492D01*
Y0003492D01*
X0022338D01*
X0022594D02*
X0024372D01*
X0024628D02*
X0026405D01*
X0026661D02*
X0027508D01*
Y0000008D01*
X0025386D01*
Y0000264D01*
X0027331D01*
X0027094Y0000500D01*
Y0003000D01*
X0021905Y0000500D02*
X0023614D01*
Y0000264D01*
X0021669D01*
X0027094Y0000500D02*
X0025386D01*
Y0000264D01*
X0027331D02*
Y0003236D01*
X0023614Y0000008D02*
Y0000264D01*
X0024453Y0002297D02*
X0024374Y0002376D01*
Y0002124D01*
X0024453Y0002203D01*
Y0002297D01*
X0024547D01*
X0024626Y0002376D01*
X0024374D01*
X0024547Y0002297D02*
Y0002203D01*
X0024626Y0002124D01*
X0024374D01*
X0024626Y0002376D02*
Y0002124D01*
X0024453Y0002203D02*
X0024547D01*
X0023453Y0001297D02*
X0023374Y0001376D01*
Y0001124D01*
X0023453Y0001203D01*
Y0001297D01*
X0023547D01*
X0023626Y0001376D01*
X0023374D01*
X0023547Y0001297D02*
Y0001203D01*
X0023626Y0001124D01*
X0023374D01*
X0023626Y0001376D02*
Y0001124D01*
X0023453Y0001203D02*
X0023547D01*
X0024453Y0001297D02*
X0024374Y0001376D01*
Y0001124D01*
X0024453Y0001203D01*
Y0001297D01*
X0024547D01*
X0024626Y0001376D01*
X0024374D01*
X0024547Y0001297D02*
Y0001203D01*
X0024626Y0001124D01*
X0024374D01*
X0024626Y0001376D02*
Y0001124D01*
X0024453Y0001203D02*
X0024547D01*
X0025453Y0001297D02*
X0025374Y0001376D01*
Y0001124D01*
X0025453Y0001203D01*
Y0001297D01*
X0025547D01*
X0025626Y0001376D01*
X0025374D01*
X0025547Y0001297D02*
Y0001203D01*
X0025626Y0001124D01*
X0025374D01*
X0025626Y0001376D02*
Y0001124D01*
X0025453Y0001203D02*
X0025547D01*
X0025453Y0002297D02*
X0025374Y0002376D01*
Y0002124D01*
X0025453Y0002203D01*
Y0002297D01*
X0025547D01*
X0025626Y0002376D01*
X0025374D01*
X0025547Y0002297D02*
Y0002203D01*
X0025626Y0002124D01*
X0025374D01*
X0025626Y0002376D02*
Y0002124D01*
X0025453Y0002203D02*
X0025547D01*
X0023453Y0002297D02*
X0023374Y0002376D01*
Y0002124D01*
X0023453Y0002203D01*
Y0002297D01*
X0023547D01*
X0023626Y0002376D01*
X0023374D01*
X0023547Y0002297D02*
Y0002203D01*
X0023626Y0002124D01*
X0023374D01*
X0023626Y0002376D02*
Y0002124D01*
X0023453Y0002203D02*
X0023547D01*
X0018750Y0000300D02*
X0018250D01*
X0018150Y0000400D01*
Y0001700D01*
X0018850D01*
Y0000400D01*
X0018750Y0000300D01*
X0018850Y0000900D02*
X0018150D01*
X0024925Y0010775D02*
Y0009625D01*
X0025570D01*
Y0010775D01*
X0024925D01*
X0004310Y0008150D02*
Y0008360D01*
X0007190D01*
Y0008150D01*
X0007647Y0008521D02*
Y0008198D01*
X0007593Y0008537D02*
Y0008182D01*
X0007539Y0008536D02*
Y0008184D01*
X0007485Y0008517D02*
Y0008202D01*
X0007431Y0008473D02*
Y0008247D01*
X0007691Y0008491D02*
X0007448D01*
X0007731Y0008437D02*
X0007408D01*
X0007747Y0008383D02*
X0007392D01*
X0007746Y0008329D02*
X0007394D01*
X0007727Y0008275D02*
X0007412D01*
X0007683Y0008221D02*
X0007457D01*
X0007701Y0008481D02*
Y0008238D01*
X0006625Y0007259D02*
X0006375D01*
X0006625Y0007205D02*
X0006375D01*
X0006625Y0007151D02*
X0006375D01*
X0006625Y0007097D02*
X0006375D01*
X0006625Y0007043D02*
X0006375D01*
X0006625Y0006989D02*
X0006375D01*
X0006625Y0006935D02*
X0006375D01*
X0006625Y0006881D02*
X0006375D01*
X0006625Y0006827D02*
X0006375D01*
X0006625Y0006773D02*
X0006375D01*
X0006625Y0006719D02*
X0006375D01*
X0006625Y0007853D02*
X0006375D01*
X0006625Y0007799D02*
X0006375D01*
X0006625Y0007745D02*
X0006375D01*
X0006625Y0007691D02*
X0006375D01*
X0006625Y0007637D02*
X0006375D01*
X0006625Y0007583D02*
X0006375D01*
X0006625Y0007529D02*
X0006375D01*
X0006625Y0007475D02*
X0006375D01*
X0006625Y0007421D02*
X0006375D01*
X0006625Y0007367D02*
X0006375D01*
X0006625Y0007313D02*
X0006375D01*
X0006415Y0008375D02*
Y0006625D01*
X0006625Y0008339D02*
X0006375D01*
X0006625Y0008285D02*
X0006375D01*
X0006625Y0008231D02*
X0006375D01*
X0006625Y0008177D02*
X0006375D01*
X0006625Y0008123D02*
X0006375D01*
X0006625Y0008069D02*
X0006375D01*
X0006625Y0008015D02*
X0006375D01*
X0006625Y0007961D02*
X0006375D01*
X0006625Y0007907D02*
X0006375D01*
X0006625Y0006665D02*
X0006375D01*
X0006625Y0008375D02*
X0006375D01*
Y0006625D01*
X0006625D02*
X0006375D01*
X0006625Y0008375D02*
Y0006625D01*
X0006577Y0008375D02*
Y0006625D01*
X0006523Y0008375D02*
Y0006625D01*
X0006469Y0008375D02*
Y0006625D01*
X0007190Y0006850D02*
Y0006640D01*
X0004310D01*
Y0006850D01*
X0010499Y0004520D02*
Y0004534D01*
X0010498D01*
X0010047Y0004645D02*
X0010041Y0004634D01*
X0009631Y0005045D02*
X0009643Y0005051D01*
X0009618Y0005100D01*
X0009611Y0005117D01*
X0009604Y0005134D01*
X0009597Y0005151D01*
X0009590Y0005168D01*
X0009584Y0005185D01*
X0009578Y0005203D01*
X0009573Y0005221D01*
X0009568Y0005239D01*
X0009563Y0005257D01*
X0009558Y0005275D01*
X0009554Y0005293D01*
X0009544Y0005348D01*
X0009541Y0005367D01*
X0009538Y0005386D01*
X0009536Y0005405D01*
X0009532Y0005501D01*
X0009533Y0005554D01*
X0009535Y0005588D01*
X0009537Y0005606D01*
X0009539Y0005623D01*
X0009557Y0005723D01*
X0009561Y0005739D01*
X0009565Y0005756D01*
X0009585Y0005820D01*
X0009591Y0005835D01*
X0009597Y0005851D01*
X0009603Y0005866D01*
X0009623Y0005912D01*
X0009611Y0005917D01*
X0009604Y0005902D01*
X0009591Y0005871D01*
X0009584Y0005856D01*
X0009579Y0005840D01*
X0009573Y0005824D01*
X0009553Y0005759D01*
X0009548Y0005743D01*
X0009544Y0005726D01*
X0009541Y0005709D01*
X0009537Y0005692D01*
X0009531Y0005659D01*
X0009528Y0005641D01*
X0009526Y0005624D01*
X0009524Y0005607D01*
X0009522Y0005589D01*
X0009520Y0005554D01*
X0009519Y0005501D01*
X0009523Y0005404D01*
X0009525Y0005384D01*
X0009528Y0005365D01*
X0009531Y0005346D01*
X0009550Y0005253D01*
X0009555Y0005235D01*
X0009560Y0005217D01*
X0009566Y0005199D01*
X0009572Y0005181D01*
X0009592Y0005129D01*
X0009599Y0005112D01*
X0009607Y0005095D01*
X0009631Y0005045D01*
X0010499Y0006482D02*
Y0006469D01*
X0010596Y0006464D01*
X0010634Y0006460D01*
X0010652Y0006457D01*
X0010708Y0006447D01*
X0010726Y0006442D01*
X0010744Y0006438D01*
X0010780Y0006428D01*
X0010798Y0006422D01*
X0010815Y0006416D01*
X0010850Y0006404D01*
X0010867Y0006397D01*
X0010901Y0006382D01*
X0010950Y0006358D01*
X0010956Y0006370D01*
X0010906Y0006394D01*
X0010889Y0006402D01*
X0010872Y0006409D01*
X0010819Y0006429D01*
X0010802Y0006435D01*
X0010784Y0006440D01*
X0010766Y0006446D01*
X0010747Y0006450D01*
X0010654Y0006470D01*
X0010635Y0006473D01*
X0010597Y0006477D01*
X0010499Y0006482D01*
X0011368Y0005958D02*
X0011356Y0005952D01*
X0011467Y0005501D02*
X0011480D01*
X0011395Y0004517D02*
X0009935D01*
Y0004537D01*
X0011400Y0004538D01*
X0011463Y0004606D02*
Y0006066D01*
X0011484D01*
Y0004606D01*
X0011395Y0004517D02*
Y0004521D01*
X0011480Y0004605D02*
Y0005114D01*
X0011324D01*
Y0005101D01*
X0011467D01*
Y0004600D01*
X0011401Y0004534D02*
X0010914D01*
Y0004680D01*
X0011330Y0005105D02*
X0011318Y0005111D01*
X0010901Y0004688D02*
Y0004521D01*
X0011395D01*
X0010095Y0006325D02*
X0010115D01*
Y0006486D01*
X0009877D01*
X0009515Y0006130D01*
Y0005904D01*
X0009691D01*
X0009705Y0005931D01*
X0009717Y0005952D01*
X0009754Y0006012D01*
X0009768Y0006031D01*
X0009812Y0006087D01*
X0009827Y0006105D01*
X0009843Y0006122D01*
X0009860Y0006139D01*
X0009877Y0006155D01*
X0009894Y0006171D01*
X0009912Y0006187D01*
X0009948Y0006217D01*
X0009967Y0006231D01*
X0010046Y0006283D01*
X0010067Y0006294D01*
X0010088Y0006306D01*
X0010109Y0006316D01*
X0010100Y0006334D01*
X0010057Y0006312D01*
X0010036Y0006300D01*
X0009955Y0006247D01*
X0009936Y0006233D01*
X0009845Y0006153D01*
X0009828Y0006136D01*
X0009812Y0006118D01*
X0009796Y0006100D01*
X0009781Y0006081D01*
X0009766Y0006062D01*
X0009724Y0006003D01*
X0009711Y0005983D01*
X0009699Y0005962D01*
X0009687Y0005941D01*
X0009679Y0005925D01*
X0009535D01*
Y0006121D01*
X0009885Y0006465D01*
X0010095D01*
Y0006325D01*
X0009535Y0006121D02*
Y0004937D01*
X0009515D01*
Y0006130D01*
X0009885Y0006465D02*
X0011064D01*
Y0006486D01*
X0009877D01*
X0009973Y0004966D02*
X0009964Y0004975D01*
X0009744Y0004755D01*
X0009754Y0004746D01*
X0009973Y0004966D01*
X0011254Y0006257D02*
X0011482Y0006066D01*
X0011280Y0005864D01*
X0011273Y0005879D01*
X0011019Y0006196D02*
X0011030Y0006188D01*
X0011284Y0005886D02*
X0011463Y0006065D01*
X0011246Y0006247D01*
X0011063Y0006465D01*
X0010884Y0006286D01*
X0011028Y0006197D02*
X0011021Y0006187D01*
X0010862Y0006282D02*
X0011064Y0006484D01*
X0011254Y0006257D01*
X0011246Y0006247D01*
X0011469Y0006061D01*
X0011479Y0006057D01*
X0011055Y0006481D02*
X0011059Y0006470D01*
X0011245Y0006248D01*
X0011255Y0006256D01*
X0011070Y0006477D01*
X0011074Y0006469D01*
X0011467Y0006075D02*
X0011475Y0006072D01*
X0011254Y0006257D01*
X0011250Y0006252D01*
X0011065Y0006474D01*
X0011064Y0006475D01*
X0011473Y0006066D02*
X0011472Y0006067D01*
X0011250Y0006252D01*
X0011254Y0006247D01*
X0011245Y0006256D01*
X0011025Y0006036D01*
X0011035Y0006027D01*
X0011254Y0006247D01*
X0009526Y0004937D02*
X0009527Y0004936D01*
X0009749Y0004751D01*
X0009935Y0004529D01*
Y0004528D01*
X0009929Y0004526D01*
X0009926Y0004534D01*
X0009532Y0004927D02*
X0009745Y0004746D01*
X0009754Y0004756D01*
X0009531Y0004942D01*
X0009520Y0004947D01*
X0009944Y0004522D02*
X0009940Y0004532D01*
X0009754Y0004755D01*
X0009744Y0004747D01*
X0009929Y0004526D01*
X0009810Y0004986D02*
X0009805Y0004981D01*
X0010137Y0004720D02*
X0009935Y0004518D01*
X0009744Y0004747D01*
X0009516Y0004937D01*
X0009718Y0005139D01*
X0009814Y0004980D02*
X0009804Y0004972D01*
X0009715Y0005116D02*
X0009536Y0004937D01*
X0009754Y0004755D01*
X0009935Y0004537D01*
X0010114Y0004717D01*
X0009813Y0004971D02*
X0009805Y0004981D01*
X0009810Y0004986D01*
X0011194Y0006021D02*
X0011186Y0006031D01*
X0011195Y0006030D02*
X0011185Y0006023D01*
X0035558Y0007301D02*
Y0007172D01*
X0035504Y0007324D02*
Y0007149D01*
X0035450Y0007310D02*
Y0007163D01*
X0035562Y0007297D02*
X0035433D01*
X0035586Y0007243D02*
X0035410D01*
X0035572Y0007189D02*
X0035424D01*
X0035184Y0008194D02*
X0035298D01*
Y0008537D01*
X0034787Y0009048D01*
X0032702D01*
Y0008190D01*
X0032836D01*
X0035180Y0007318D02*
X0035298D01*
Y0006963D01*
X0034787Y0006452D01*
X0032702D01*
Y0007306D01*
X0032824D01*
X0017250Y0005050D02*
X0016750D01*
X0016650Y0005150D01*
Y0006450D01*
X0017350D01*
Y0005150D01*
X0017250Y0005050D01*
X0017350Y0005650D02*
X0016650D01*
X0015238Y0003681D02*
X0015120D01*
Y0001319D01*
X0015238D01*
X0015597Y0002950D02*
Y0002825D01*
X0015543Y0002950D02*
Y0002825D01*
X0015489Y0002950D02*
Y0002825D01*
X0015435Y0002950D02*
Y0002825D01*
X0015381Y0002950D02*
Y0002825D01*
X0015327Y0002950D02*
Y0002825D01*
X0015273Y0002950D02*
Y0002825D01*
X0015219Y0002950D02*
Y0002825D01*
X0015165Y0002950D02*
Y0002825D01*
X0016375Y0002919D02*
X0015125D01*
X0016191Y0002950D02*
Y0002825D01*
X0016137Y0002950D02*
Y0002825D01*
X0016083Y0002950D02*
Y0002825D01*
X0016029Y0002950D02*
Y0002825D01*
X0015975Y0002950D02*
Y0002825D01*
X0015921Y0002950D02*
Y0002825D01*
X0015867Y0002950D02*
Y0002825D01*
X0015813Y0002950D02*
Y0002825D01*
X0015759Y0002950D02*
Y0002825D01*
X0015705Y0002950D02*
Y0002825D01*
X0015651Y0002950D02*
Y0002825D01*
X0016375Y0002865D02*
X0015125D01*
Y0002950D02*
Y0002825D01*
X0016375D02*
X0015125D01*
X0016375Y0002950D02*
Y0002825D01*
Y0002950D02*
X0015125D01*
X0016353D02*
Y0002825D01*
X0016299Y0002950D02*
Y0002825D01*
X0016245Y0002950D02*
Y0002825D01*
X0016262Y0003681D02*
X0016380D01*
Y0001319D01*
X0016262D01*
X0015208Y0003868D02*
X0015111D01*
X0015204Y0003898D02*
Y0003857D01*
X0015150Y0003926D02*
Y0003829D01*
X0015180Y0003922D02*
X0015138D01*
X0028431Y0011012D02*
Y0011130D01*
X0026069D01*
Y0011012D01*
X0027700Y0010509D02*
X0027575D01*
X0027700Y0010455D02*
X0027575D01*
X0027700Y0010401D02*
X0027575D01*
X0027700Y0010347D02*
X0027575D01*
X0027700Y0010293D02*
X0027575D01*
X0027700Y0010239D02*
X0027575D01*
X0027700Y0010185D02*
X0027575D01*
X0027700Y0010131D02*
X0027575D01*
X0027700Y0010077D02*
X0027575D01*
X0027700Y0010023D02*
X0027575D01*
X0027700Y0009969D02*
X0027575D01*
X0027700Y0011103D02*
X0027575D01*
X0027700Y0011049D02*
X0027575D01*
X0027700Y0010995D02*
X0027575D01*
X0027700Y0010941D02*
X0027575D01*
X0027700Y0010887D02*
X0027575D01*
X0027700Y0010833D02*
X0027575D01*
X0027700Y0010779D02*
X0027575D01*
X0027700Y0010725D02*
X0027575D01*
X0027700Y0010671D02*
X0027575D01*
X0027700Y0010617D02*
X0027575D01*
X0027700Y0010563D02*
X0027575D01*
X0027700Y0009915D02*
X0027575D01*
X0027700Y0011125D02*
X0027575D01*
Y0009875D01*
X0027700D02*
X0027575D01*
X0027700Y0011125D02*
Y0009875D01*
X0027669Y0011125D02*
Y0009875D01*
X0027615Y0011125D02*
Y0009875D01*
X0028431Y0009988D02*
Y0009870D01*
X0026069D01*
Y0009988D01*
X0028676Y0011081D02*
X0028579D01*
X0028672Y0011111D02*
Y0011069D01*
X0028618Y0011139D02*
Y0011042D01*
X0028648Y0011135D02*
X0028607D01*
X0032350Y0002300D02*
Y0003700D01*
X0031650D01*
Y0002300D01*
X0032350D01*
X0016738Y0003681D02*
X0016620D01*
Y0001319D01*
X0016738D01*
X0017097Y0002950D02*
Y0002825D01*
X0017043Y0002950D02*
Y0002825D01*
X0016989Y0002950D02*
Y0002825D01*
X0016935Y0002950D02*
Y0002825D01*
X0016881Y0002950D02*
Y0002825D01*
X0016827Y0002950D02*
Y0002825D01*
X0016773Y0002950D02*
Y0002825D01*
X0016719Y0002950D02*
Y0002825D01*
X0016665Y0002950D02*
Y0002825D01*
X0017875Y0002919D02*
X0016625D01*
X0017691Y0002950D02*
Y0002825D01*
X0017637Y0002950D02*
Y0002825D01*
X0017583Y0002950D02*
Y0002825D01*
X0017529Y0002950D02*
Y0002825D01*
X0017475Y0002950D02*
Y0002825D01*
X0017421Y0002950D02*
Y0002825D01*
X0017367Y0002950D02*
Y0002825D01*
X0017313Y0002950D02*
Y0002825D01*
X0017259Y0002950D02*
Y0002825D01*
X0017205Y0002950D02*
Y0002825D01*
X0017151Y0002950D02*
Y0002825D01*
X0017875Y0002865D02*
X0016625D01*
Y0002950D02*
Y0002825D01*
X0017875D02*
X0016625D01*
X0017875Y0002950D02*
Y0002825D01*
Y0002950D02*
X0016625D01*
X0017853D02*
Y0002825D01*
X0017799Y0002950D02*
Y0002825D01*
X0017745Y0002950D02*
Y0002825D01*
X0017762Y0003681D02*
X0017880D01*
Y0001319D01*
X0017762D01*
X0016708Y0003868D02*
X0016611D01*
X0016704Y0003898D02*
Y0003857D01*
X0016650Y0003926D02*
Y0003829D01*
X0016680Y0003922D02*
X0016638D01*
X0030200Y0004950D02*
Y0006050D01*
X0032300D01*
Y0004950D01*
X0030200D01*
X0008689Y0009602D02*
Y0007398D01*
X0008768Y0007319D02*
X0012232D01*
X0012311Y0007398D02*
Y0009602D01*
X0012232Y0009681D02*
X0008768D01*
X0012064Y0007469D02*
X0011936D01*
X0012023Y0007567D02*
Y0007433D01*
X0011969Y0007564D02*
Y0007436D01*
X0012067Y0007523D02*
X0011933D01*
X0012064Y0009469D02*
X0011936D01*
X0012023Y0009567D02*
Y0009433D01*
X0011969Y0009564D02*
Y0009436D01*
X0012067Y0009523D02*
X0011933D01*
X0034100Y0001300D02*
Y0002700D01*
X0033400D01*
Y0001300D01*
X0034100D01*
X0011238Y0003681D02*
X0011120D01*
Y0001319D01*
X0011238D01*
X0011597Y0002950D02*
Y0002825D01*
X0011543Y0002950D02*
Y0002825D01*
X0011489Y0002950D02*
Y0002825D01*
X0011435Y0002950D02*
Y0002825D01*
X0011381Y0002950D02*
Y0002825D01*
X0011327Y0002950D02*
Y0002825D01*
X0011273Y0002950D02*
Y0002825D01*
X0011219Y0002950D02*
Y0002825D01*
X0011165Y0002950D02*
Y0002825D01*
X0012375Y0002919D02*
X0011125D01*
X0012191Y0002950D02*
Y0002825D01*
X0012137Y0002950D02*
Y0002825D01*
X0012083Y0002950D02*
Y0002825D01*
X0012029Y0002950D02*
Y0002825D01*
X0011975Y0002950D02*
Y0002825D01*
X0011921Y0002950D02*
Y0002825D01*
X0011867Y0002950D02*
Y0002825D01*
X0011813Y0002950D02*
Y0002825D01*
X0011759Y0002950D02*
Y0002825D01*
X0011705Y0002950D02*
Y0002825D01*
X0011651Y0002950D02*
Y0002825D01*
X0012375Y0002865D02*
X0011125D01*
Y0002950D02*
Y0002825D01*
X0012375D02*
X0011125D01*
X0012375Y0002950D02*
Y0002825D01*
Y0002950D02*
X0011125D01*
X0012353D02*
Y0002825D01*
X0012299Y0002950D02*
Y0002825D01*
X0012245Y0002950D02*
Y0002825D01*
X0012262Y0003681D02*
X0012380D01*
Y0001319D01*
X0012262D01*
X0011208Y0003868D02*
X0011111D01*
X0011204Y0003898D02*
Y0003857D01*
X0011150Y0003926D02*
Y0003829D01*
X0011180Y0003922D02*
X0011138D01*
X0009738Y0003681D02*
X0009620D01*
Y0001319D01*
X0009738D01*
X0010097Y0002950D02*
Y0002825D01*
X0010043Y0002950D02*
Y0002825D01*
X0009989Y0002950D02*
Y0002825D01*
X0009935Y0002950D02*
Y0002825D01*
X0009881Y0002950D02*
Y0002825D01*
X0009827Y0002950D02*
Y0002825D01*
X0009773Y0002950D02*
Y0002825D01*
X0009719Y0002950D02*
Y0002825D01*
X0009665Y0002950D02*
Y0002825D01*
X0010875Y0002919D02*
X0009625D01*
X0010691Y0002950D02*
Y0002825D01*
X0010637Y0002950D02*
Y0002825D01*
X0010583Y0002950D02*
Y0002825D01*
X0010529Y0002950D02*
Y0002825D01*
X0010475Y0002950D02*
Y0002825D01*
X0010421Y0002950D02*
Y0002825D01*
X0010367Y0002950D02*
Y0002825D01*
X0010313Y0002950D02*
Y0002825D01*
X0010259Y0002950D02*
Y0002825D01*
X0010205Y0002950D02*
Y0002825D01*
X0010151Y0002950D02*
Y0002825D01*
X0010875Y0002865D02*
X0009625D01*
Y0002950D02*
Y0002825D01*
X0010875D02*
X0009625D01*
X0010875Y0002950D02*
Y0002825D01*
Y0002950D02*
X0009625D01*
X0010853D02*
Y0002825D01*
X0010799Y0002950D02*
Y0002825D01*
X0010745Y0002950D02*
Y0002825D01*
X0010762Y0003681D02*
X0010880D01*
Y0001319D01*
X0010762D01*
X0009708Y0003868D02*
X0009611D01*
X0009704Y0003898D02*
Y0003857D01*
X0009650Y0003926D02*
Y0003829D01*
X0009680Y0003922D02*
X0009638D01*
X0020250Y0002300D02*
X0019750D01*
X0019650Y0002400D01*
Y0003700D01*
X0020350D01*
Y0002400D01*
X0020250Y0002300D01*
X0020350Y0002900D02*
X0019650D01*
X0011988Y0006931D02*
X0011870D01*
Y0004569D01*
X0011988D01*
X0012347Y0006200D02*
Y0006075D01*
X0012293Y0006200D02*
Y0006075D01*
X0012239Y0006200D02*
Y0006075D01*
X0012185Y0006200D02*
Y0006075D01*
X0012131Y0006200D02*
Y0006075D01*
X0012077Y0006200D02*
Y0006075D01*
X0012023Y0006200D02*
Y0006075D01*
X0011969Y0006200D02*
Y0006075D01*
X0011915Y0006200D02*
Y0006075D01*
X0013125Y0006169D02*
X0011875D01*
X0012941Y0006200D02*
Y0006075D01*
X0012887Y0006200D02*
Y0006075D01*
X0012833Y0006200D02*
Y0006075D01*
X0012779Y0006200D02*
Y0006075D01*
X0012725Y0006200D02*
Y0006075D01*
X0012671Y0006200D02*
Y0006075D01*
X0012617Y0006200D02*
Y0006075D01*
X0012563Y0006200D02*
Y0006075D01*
X0012509Y0006200D02*
Y0006075D01*
X0012455Y0006200D02*
Y0006075D01*
X0012401Y0006200D02*
Y0006075D01*
X0013125Y0006115D02*
X0011875D01*
Y0006200D02*
Y0006075D01*
X0013125D02*
X0011875D01*
X0013125Y0006200D02*
Y0006075D01*
Y0006200D02*
X0011875D01*
X0013103D02*
Y0006075D01*
X0013049Y0006200D02*
Y0006075D01*
X0012995Y0006200D02*
Y0006075D01*
X0013012Y0006931D02*
X0013130D01*
Y0004569D01*
X0013012D01*
X0011958Y0007118D02*
X0011861D01*
X0011954Y0007148D02*
Y0007107D01*
X0011900Y0007176D02*
Y0007079D01*
X0011930Y0007172D02*
X0011888D01*
X0005450Y0009600D02*
X0004050D01*
Y0008900D01*
X0005450D01*
Y0009600D01*
X0019500Y0002300D02*
X0019000D01*
X0018900Y0002400D01*
Y0003700D01*
X0019600D01*
Y0002400D01*
X0019500Y0002300D01*
X0019600Y0002900D02*
X0018900D01*
X0007988Y0006931D02*
X0007870D01*
Y0004569D01*
X0007988D01*
X0008347Y0006200D02*
Y0006075D01*
X0008293Y0006200D02*
Y0006075D01*
X0008239Y0006200D02*
Y0006075D01*
X0008185Y0006200D02*
Y0006075D01*
X0008131Y0006200D02*
Y0006075D01*
X0008077Y0006200D02*
Y0006075D01*
X0008023Y0006200D02*
Y0006075D01*
X0007969Y0006200D02*
Y0006075D01*
X0007915Y0006200D02*
Y0006075D01*
X0009125Y0006169D02*
X0007875D01*
X0008941Y0006200D02*
Y0006075D01*
X0008887Y0006200D02*
Y0006075D01*
X0008833Y0006200D02*
Y0006075D01*
X0008779Y0006200D02*
Y0006075D01*
X0008725Y0006200D02*
Y0006075D01*
X0008671Y0006200D02*
Y0006075D01*
X0008617Y0006200D02*
Y0006075D01*
X0008563Y0006200D02*
Y0006075D01*
X0008509Y0006200D02*
Y0006075D01*
X0008455Y0006200D02*
Y0006075D01*
X0008401Y0006200D02*
Y0006075D01*
X0009125Y0006115D02*
X0007875D01*
Y0006200D02*
Y0006075D01*
X0009125D02*
X0007875D01*
X0009125Y0006200D02*
Y0006075D01*
Y0006200D02*
X0007875D01*
X0009103D02*
Y0006075D01*
X0009049Y0006200D02*
Y0006075D01*
X0008995Y0006200D02*
Y0006075D01*
X0009012Y0006931D02*
X0009130D01*
Y0004569D01*
X0009012D01*
X0007958Y0007118D02*
X0007861D01*
X0007954Y0007148D02*
Y0007107D01*
X0007900Y0007176D02*
Y0007079D01*
X0007930Y0007172D02*
X0007888D01*
X0026825Y0008675D02*
Y0009825D01*
X0026180D01*
Y0008675D01*
X0026825D01*
X0017992Y0008860D02*
Y0008880D01*
X0017972D01*
X0017027D01*
X0017008D01*
Y0008860D01*
Y0007640D02*
Y0007620D01*
X0017027D01*
X0017972D01*
X0017992D01*
Y0007640D01*
X0017008D02*
Y0008860D01*
X0017992D02*
Y0007640D01*
X0017382Y0008860D02*
X0017224D01*
X0017618Y0007640D02*
X0017776D01*
X0026030Y0004125D02*
X0027180D01*
Y0004770D01*
X0026030D01*
Y0004125D01*
X0004100Y0004800D02*
Y0006200D01*
X0003400D01*
Y0004800D01*
X0004100D01*
X0036700Y0008050D02*
X0037800D01*
Y0005950D01*
X0036700D01*
Y0008050D01*
X0021000Y0002300D02*
X0020500D01*
X0020400Y0002400D01*
Y0003700D01*
X0021100D01*
Y0002400D01*
X0021000Y0002300D01*
X0021100Y0002900D02*
X0020400D01*
X0020250Y0000300D02*
X0019750D01*
X0019650Y0000400D01*
Y0001700D01*
X0020350D01*
Y0000400D01*
X0020250Y0000300D01*
X0020350Y0000900D02*
X0019650D01*
X0010300Y0009850D02*
X0008200D01*
Y0011150D01*
X0010300D01*
Y0009850D01*
X0027220Y0005875D02*
Y0007025D01*
X0026575D01*
Y0005875D01*
X0027220D01*
X0036700Y0005800D02*
X0037800D01*
Y0003700D01*
X0036700D01*
Y0005800D01*
X0012400Y0000210D02*
X0015100D01*
Y0003790D01*
X0012400D01*
Y0000210D01*
X0006900D02*
X0009600D01*
Y0003790D01*
X0006900D01*
Y0000210D01*
X0003636Y0002464D02*
X0005350Y0002463D01*
X0005995D01*
Y0004037D01*
X0003190Y0004040D01*
X0003010Y0003860D01*
Y0002600D01*
X0003180Y0002460D01*
X0003636Y0002464D01*
X0003100Y0003134D02*
X0003030D01*
X0003100Y0003080D02*
X0003030D01*
X0003100Y0003026D02*
X0003030D01*
X0003100Y0002972D02*
X0003030D01*
X0003100Y0002918D02*
X0003030D01*
X0003100Y0002864D02*
X0003030D01*
X0003100Y0002810D02*
X0003030D01*
X0003100Y0002756D02*
X0003030D01*
X0003100Y0002702D02*
X0003030D01*
X0003100Y0002648D02*
X0003030D01*
X0003100Y0002594D02*
X0003037D01*
X0003100Y0003728D02*
X0003030D01*
X0003100Y0003674D02*
X0003030D01*
X0003100Y0003620D02*
X0003030D01*
X0003100Y0003566D02*
X0003030D01*
X0003100Y0003512D02*
X0003030D01*
X0003100Y0003458D02*
X0003030D01*
X0003100Y0003404D02*
X0003030D01*
X0003100Y0003350D02*
X0003030D01*
X0003100Y0003296D02*
X0003030D01*
X0003100Y0003242D02*
X0003030D01*
X0003100Y0003188D02*
X0003030D01*
Y0003860D02*
Y0002600D01*
X0003090Y0002550D01*
X0003110Y0002520D01*
X0003130Y0002500D01*
X0003070Y0003900D02*
Y0002567D01*
X0003100Y0003890D02*
X0003060D01*
X0003100Y0003836D02*
X0003030D01*
X0003100Y0003782D02*
X0003030D01*
X0003090Y0002540D02*
X0003130Y0002500D01*
X0003100Y0002550D02*
X0003090Y0002540D01*
X0003100Y0003930D02*
Y0002550D01*
Y0003930D02*
X0003030Y0003860D01*
X0003356Y0002570D02*
X0003243D01*
X0003334Y0002639D02*
Y0002540D01*
X0003280Y0002646D02*
Y0002533D01*
X0003349Y0002624D02*
X0003250D01*
X0004180Y0002480D02*
Y0004030D01*
X0019500Y0000300D02*
X0019000D01*
X0018900Y0000400D01*
Y0001700D01*
X0019600D01*
Y0000400D01*
X0019500Y0000300D01*
X0019600Y0000900D02*
X0018900D01*
X0012550Y0009850D02*
X0010450D01*
Y0011150D01*
X0012550D01*
Y0009850D01*
X0023119Y0010961D02*
X0022982D01*
X0023120Y0011037D02*
Y0010963D01*
X0023066Y0011077D02*
Y0010923D01*
X0023012Y0011068D02*
Y0010931D01*
X0023088Y0011069D02*
X0023014D01*
X0023128Y0011015D02*
X0022974D01*
X0022800Y0011000D02*
Y0010000D01*
X0024150D01*
Y0011200D01*
X0023000D01*
X0022800Y0011000D01*
X0018000Y0005050D02*
X0017500D01*
X0017400Y0005150D01*
Y0006450D01*
X0018100D01*
Y0005150D01*
X0018000Y0005050D01*
X0018100Y0005650D02*
X0017400D01*
X0031790Y0006900D02*
Y0009600D01*
X0028210D01*
Y0006900D01*
X0031790D01*
X0025500Y0005450D02*
Y0008500D01*
X0022000D01*
Y0005000D01*
X0025050D01*
X0025500Y0005450D01*
X0025652Y0005044D02*
Y0004956D01*
X0025598Y0005124D02*
Y0004876D01*
X0025544Y0005152D02*
Y0004848D01*
X0025490Y0005158D02*
Y0004842D01*
X0025436Y0005144D02*
Y0004855D01*
X0025382Y0005105D02*
Y0004895D01*
X0025544Y0005152D02*
X0025456D01*
X0025624Y0005098D02*
X0025376D01*
X0025652Y0005044D02*
X0025348D01*
X0025658Y0004990D02*
X0025342D01*
X0025644Y0004936D02*
X0025355D01*
X0025605Y0004882D02*
X0025395D01*
X0007800Y0009800D02*
Y0008700D01*
X0005700D01*
Y0009800D01*
X0007800D01*
X0018715Y0006380D02*
Y0006283D01*
X0018661Y0006413D02*
Y0006251D01*
X0018607Y0006402D02*
Y0006261D01*
X0018698Y0006398D02*
X0018601D01*
X0018730Y0006344D02*
X0018568D01*
X0018720Y0006290D02*
X0018579D01*
X0018600Y0006750D02*
Y0007950D01*
X0020800D01*
Y0006450D01*
X0018900D01*
X0018600Y0006750D01*
X0006820Y0001925D02*
Y0003075D01*
X0006175D01*
Y0001925D01*
X0006820D01*
X0032675Y0002575D02*
Y0001425D01*
X0033320D01*
Y0002575D01*
X0032675D01*
X0018750Y0002300D02*
X0018250D01*
X0018150Y0002400D01*
Y0003700D01*
X0018850D01*
Y0002400D01*
X0018750Y0002300D01*
X0018850Y0002900D02*
X0018150D01*
G01X0028909Y0003614D02*
G03X0028980Y0003685I0000000J0000071D01*
G01X0028838D02*
G03X0028909Y0003614I0000071J0000000D01*
Y0003756D02*
G03X0028838Y0003685I0000000J0000071D01*
G01X0028980D02*
G03X0028909Y0003756I0000071J0000000D01*
G01X0030090Y0002890D02*
G03X0030150Y0002950I0000000J0000060D01*
G01X0030030D02*
G03X0030090Y0002890I0000060J0000000D01*
Y0003010D02*
G03X0030030Y0002950I0000000J0000060D01*
G01X0030150D02*
G03X0030090Y0003010I0000060J0000000D01*
G01X0028050Y0004657D02*
G03X0028443Y0005050I0000000J0000393D01*
G01X0027657D02*
G03X0028050Y0004657I0000393J0000000D01*
Y0005443D02*
G03X0027657Y0005050I0000000J0000393D01*
G01X0028443D02*
G03X0028050Y0005443I0000393J0000000D01*
G01X0028340Y0002890D02*
G03X0028400Y0002950I0000000J0000060D01*
G01X0028280D02*
G03X0028340Y0002890I0000060J0000000D01*
Y0003010D02*
G03X0028280Y0002950I0000000J0000060D01*
G01X0028400D02*
G03X0028340Y0003010I0000060J0000000D01*
G01X0000412Y0004608D02*
G03X0000608Y0004412I0000196J0000000D01*
G01X0003089Y0006892D02*
G03X0002892Y0007089I0000197J0000000D01*
G01X0003238Y0004580D02*
G03X0003226Y0004607I0000040J0000000D01*
Y0004552D02*
G03X0003238Y0004580I0000028J0000028D01*
G01X0000273Y0006948D02*
G03X0000261Y0006920I0000028J0000028D01*
G01X0000580Y0007238D02*
G03X0000552Y0007227I0000000J0000039D01*
G01X0000608D02*
G03X0000580Y0007239I0000028J0000028D01*
G01X0002920Y0004262D02*
G03X0002948Y0004273I0000000J0000039D01*
G01X0002892D02*
G03X0002920Y0004261I0000028J0000028D01*
G01X0000432Y0005750D02*
G03X0001750Y0004432I0001318J0000000D01*
Y0007068D02*
G03X0000432Y0005750I0000000J0001318D01*
G01X0003069D02*
G03X0001750Y0007069I0001319J0000000D01*
Y0004431D02*
G03X0003069Y0005750I0000000J0001319D01*
G01X0000431D02*
G03X0001750Y0004431I0001319J0000000D01*
Y0007069D02*
G03X0000431Y0005750I0000000J0001319D01*
G01X0022466Y0003590D02*
G03X0022338Y0003492I0000000J0000132D01*
G01X0022594D02*
G03X0022466Y0003590I0000128J0000034D01*
G01X0024500Y0003620D02*
G03X0024372Y0003492I0000000J0000128D01*
G01X0024628D02*
G03X0024500Y0003620I0000128J0000000D01*
G01X0026533Y0003590D02*
G03X0026405Y0003492I0000000J0000132D01*
G01X0026661D02*
G03X0026533Y0003590I0000128J0000034D01*
G01X0007570Y0008181D02*
G03X0007749Y0008360I0000000J0000179D01*
G01X0007391D02*
G03X0007570Y0008181I0000179J0000000D01*
Y0008539D02*
G03X0007391Y0008360I0000000J0000179D01*
G01X0007749D02*
G03X0007570Y0008539I0000179J0000000D01*
G01X0010047Y0004645D02*
G03X0010498Y0004533I0000451J0000854D01*
G01X0010041Y0004634D02*
G03X0010498Y0004521I0000457J0000864D01*
G01X0011467Y0005503D02*
G03X0011356Y0005952I0000963J0000000D01*
G01X0011467Y0005501D02*
G03X0011467Y0005503I0000963J0000002D01*
G01X0011480Y0005501D02*
G03X0011480Y0005503I0000977J0000002D01*
G03X0011368Y0005958I0000977J0000000D01*
G01X0011400Y0004538D02*
G03X0011463Y0004606I0000005J0000068D01*
G01X0011395Y0004517D02*
G03X0011484Y0004606I0000000J0000089D01*
G01X0011395Y0004521D02*
G03X0011480Y0004605I0000000J0000085D01*
G01X0011401Y0004534D02*
G03X0011467Y0004600I0000006J0000072D01*
G01X0010914Y0004680D02*
G03X0011330Y0005105I0000416J0000824D01*
G01X0010901Y0004688D02*
G03X0011318Y0005111I0000404J0000816D01*
G01X0011273Y0005879D02*
G03X0011189Y0006017I0000772J0000376D01*
G01X0011113Y0005991D02*
G03X0011189Y0006017I0000000J0000124D01*
G01X0010989Y0006115D02*
G03X0011113Y0005991I0000124J0000000D01*
G01X0011019Y0006196D02*
G03X0010989Y0006115I0000094J0000081D01*
G01X0011030Y0006188D02*
G03X0011002Y0006115I0000083J0000073D01*
G03X0011113Y0006004I0000111J0000000D01*
G03X0011191Y0006036I0000000J0000111D01*
G01X0011284Y0005886D02*
G03X0011191Y0006036I0000786J0000385D01*
G01X0011028Y0006197D02*
G03X0010884Y0006286I0000526J0000692D01*
G01X0011021Y0006187D02*
G03X0010862Y0006282I0000524J0000689D01*
G01X0011479Y0006057D02*
G03X0011480Y0006084I0000397J0000027D01*
G03X0011082Y0006482I0000398J0000000D01*
G03X0011055Y0006481I0000000J0000398D01*
G01X0011082Y0006469D02*
G03X0011074Y0006469I0000000J0000385D01*
G01X0011467Y0006084D02*
G03X0011082Y0006469I0000385J0000000D01*
G01X0011467Y0006075D02*
G03X0011467Y0006084I0000385J0000009D01*
G01X0011082Y0006476D02*
G03X0011064Y0006475I0000000J0000392D01*
G01X0011474Y0006084D02*
G03X0011082Y0006476I0000392J0000000D01*
G01X0011473Y0006066D02*
G03X0011473Y0006084I0000391J0000018D01*
G01X0009917Y0004527D02*
G03X0009935Y0004528I0000000J0000392D01*
G01X0009526Y0004919D02*
G03X0009917Y0004528I0000391J0000000D01*
G01X0009526Y0004937D02*
G03X0009526Y0004919I0000391J0000018D01*
G01X0009917Y0004534D02*
G03X0009926Y0004534I0000000J0000385D01*
G01X0009532Y0004919D02*
G03X0009917Y0004534I0000385J0000000D01*
G01X0009532Y0004927D02*
G03X0009532Y0004919I0000385J0000008D01*
G01X0009520Y0004947D02*
G03X0009519Y0004919I0000397J0000028D01*
G03X0009917Y0004521I0000398J0000000D01*
G03X0009944Y0004522I0000000J0000398D01*
G01X0009886Y0005012D02*
G03X0009810Y0004986I0000000J0000124D01*
G01X0009886Y0005012D02*
G03X0009805Y0004981I0000000J0000124D01*
G01X0010010Y0004888D02*
G03X0009886Y0005012I0000124J0000000D01*
G01X0009984Y0004812D02*
G03X0010010Y0004888I0000098J0000076D01*
G01X0009984Y0004812D02*
G03X0010137Y0004720I0000516J0000692D01*
G01X0009718Y0005139D02*
G03X0009814Y0004980I0000772J0000357D01*
G01X0009715Y0005116D02*
G03X0009804Y0004972I0000776J0000380D01*
G01X0009965Y0004809D02*
G03X0010114Y0004717I0000534J0000694D01*
G01X0009965Y0004809D02*
G03X0009998Y0004888I0000079J0000079D01*
G01X0009997D02*
G03X0009886Y0004999I0000111J0000000D01*
G03X0009813Y0004971I0000000J0000111D01*
G01X0009638Y0005502D02*
G03X0009810Y0004986I0000861J0000000D01*
G01X0010499Y0006363D02*
G03X0009638Y0005502I0000000J0000861D01*
G01X0011015Y0006191D02*
G03X0010499Y0006363I0000516J0000689D01*
G01X0011015Y0006191D02*
G03X0010989Y0006115I0000098J0000076D01*
G03X0011113Y0005991I0000124J0000000D01*
G03X0011194Y0006021I0000000J0000124D01*
G01X0011113Y0006004D02*
G03X0011186Y0006031I0000000J0000111D01*
G01X0011002Y0006115D02*
G03X0011113Y0006004I0000111J0000000D01*
G01X0011034Y0006193D02*
G03X0011002Y0006115I0000079J0000078D01*
G01X0011034Y0006193D02*
G03X0010499Y0006376I0000535J0000692D01*
G03X0009624Y0005501I0000000J0000875D01*
G01X0009625D02*
G03X0009808Y0004967I0000874J0000000D01*
G01X0009886Y0004999D02*
G03X0009808Y0004967I0000000J0000112D01*
G01X0009997Y0004887D02*
G03X0009886Y0004998I0000111J0000000D01*
G01X0009965Y0004809D02*
G03X0009997Y0004887I0000079J0000078D01*
G01X0009965Y0004809D02*
G03X0010499Y0004627I0000534J0000692D01*
G03X0011373Y0005501I0000000J0000874D01*
G01X0011374D02*
G03X0011195Y0006030I0000875J0000000D01*
G01X0011361Y0005501D02*
G03X0011185Y0006023I0000861J0000000D01*
G01X0010500Y0004640D02*
G03X0011361Y0005501I0000000J0000861D01*
G01X0009984Y0004812D02*
G03X0010500Y0004640I0000516J0000689D01*
G01X0009984Y0004812D02*
G03X0010010Y0004888I0000098J0000076D01*
G01X0034000Y0006510D02*
G03X0035240Y0007750I0000000J0001240D01*
G01X0032760D02*
G03X0034000Y0006510I0001240J0000000D01*
Y0008990D02*
G03X0032760Y0007750I0000000J0001240D01*
G01X0035240D02*
G03X0034000Y0008990I0001240J0000000D01*
G01X0035410Y0007237D02*
G03X0035498Y0007149I0000088J0000000D01*
Y0007325D02*
G03X0035410Y0007237I0000000J0000088D01*
G01X0035586D02*
G03X0035498Y0007325I0000088J0000000D01*
Y0007149D02*
G03X0035586Y0007237I0000000J0000088D01*
G01X0015159Y0003828D02*
G03X0015209Y0003878I0000000J0000050D01*
G01X0015110D02*
G03X0015159Y0003829I0000049J0000000D01*
Y0003927D02*
G03X0015110Y0003878I0000000J0000049D01*
G01X0015209D02*
G03X0015159Y0003928I0000050J0000000D01*
G01X0028628Y0011041D02*
G03X0028677Y0011090I0000000J0000049D01*
G01X0028578D02*
G03X0028628Y0011040I0000050J0000000D01*
Y0011140D02*
G03X0028578Y0011090I0000000J0000050D01*
G01X0028677D02*
G03X0028628Y0011139I0000049J0000000D01*
G01X0016659Y0003828D02*
G03X0016709Y0003878I0000000J0000050D01*
G01X0016610D02*
G03X0016659Y0003829I0000049J0000000D01*
Y0003927D02*
G03X0016610Y0003878I0000000J0000049D01*
G01X0016709D02*
G03X0016659Y0003928I0000050J0000000D01*
G01X0008689Y0007398D02*
G03X0008768Y0007319I0000079J0000000D01*
G01X0012232D02*
G03X0012311Y0007398I0000000J0000079D01*
Y0009602D02*
G03X0012232Y0009681I0000079J0000000D01*
G01X0008768D02*
G03X0008689Y0009602I0000000J0000079D01*
G01X0012000Y0007429D02*
G03X0012071Y0007500I0000000J0000071D01*
G01X0011929D02*
G03X0012000Y0007429I0000071J0000000D01*
Y0007571D02*
G03X0011929Y0007500I0000000J0000071D01*
G01X0012071D02*
G03X0012000Y0007571I0000071J0000000D01*
Y0009429D02*
G03X0012071Y0009500I0000000J0000071D01*
G01X0011929D02*
G03X0012000Y0009429I0000071J0000000D01*
Y0009571D02*
G03X0011929Y0009500I0000000J0000071D01*
G01X0012071D02*
G03X0012000Y0009571I0000071J0000000D01*
G01X0011159Y0003828D02*
G03X0011209Y0003878I0000000J0000050D01*
G01X0011110D02*
G03X0011159Y0003829I0000049J0000000D01*
Y0003927D02*
G03X0011110Y0003878I0000000J0000049D01*
G01X0011209D02*
G03X0011159Y0003928I0000050J0000000D01*
G01X0009659Y0003828D02*
G03X0009709Y0003878I0000000J0000050D01*
G01X0009610D02*
G03X0009659Y0003829I0000049J0000000D01*
Y0003927D02*
G03X0009610Y0003878I0000000J0000049D01*
G01X0009709D02*
G03X0009659Y0003928I0000050J0000000D01*
G01X0011909Y0007078D02*
G03X0011959Y0007128I0000000J0000050D01*
G01X0011860D02*
G03X0011909Y0007079I0000049J0000000D01*
Y0007177D02*
G03X0011860Y0007128I0000000J0000049D01*
G01X0011959D02*
G03X0011909Y0007178I0000050J0000000D01*
G01X0007909Y0007078D02*
G03X0007959Y0007128I0000000J0000050D01*
G01X0007860D02*
G03X0007909Y0007079I0000049J0000000D01*
Y0007177D02*
G03X0007860Y0007128I0000000J0000049D01*
G01X0007959D02*
G03X0007909Y0007178I0000050J0000000D01*
G01X0017992Y0008860D02*
G03X0017972Y0008880I0000020J0000000D01*
G01X0017027D02*
G03X0017007Y0008860I0000000J0000020D01*
G01X0017008Y0007640D02*
G03X0017027Y0007621I0000019J0000000D01*
G01X0017972Y0007620D02*
G03X0017992Y0007640I0000000J0000020D01*
G01X0003300Y0002530D02*
G03X0003360Y0002590I0000000J0000060D01*
G01X0003240D02*
G03X0003300Y0002530I0000060J0000000D01*
Y0002650D02*
G03X0003240Y0002590I0000000J0000060D01*
G01X0003360D02*
G03X0003300Y0002650I0000060J0000000D01*
G01X0023051Y0010921D02*
G03X0023130Y0011000I0000000J0000079D01*
G01X0022972D02*
G03X0023051Y0010921I0000079J0000000D01*
Y0011079D02*
G03X0022972Y0011000I0000000J0000079D01*
G01X0023130D02*
G03X0023051Y0011079I0000079J0000000D01*
G01X0025500Y0004842D02*
G03X0025658Y0005000I0000000J0000158D01*
G01X0025342D02*
G03X0025500Y0004842I0000158J0000000D01*
Y0005158D02*
G03X0025342Y0005000I0000000J0000158D01*
G01X0025658D02*
G03X0025500Y0005158I0000158J0000000D01*
G01X0018567Y0006332D02*
G03X0018649Y0006250I0000082J0000000D01*
Y0006414D02*
G03X0018567Y0006332I0000000J0000082D01*
G01X0018731D02*
G03X0018649Y0006414I0000082J0000000D01*
Y0006250D02*
G03X0018731Y0006332I0000000J0000082D01*
G54D88*
G01X0017917Y0009325D02*
Y0011588D01*
X0013035D01*
Y0009325D01*
X0017917D01*
X0013035Y0010053D02*
X0013370D01*
Y0011254D01*
X0017602D01*
Y0010053D01*
X0017917D01*
X0028910Y0004350D02*
Y0005850D01*
X0030100D01*
Y0004140D01*
X0029120D01*
X0028910Y0004350D01*
X0032427Y0010958D02*
Y0011312D01*
X0035613D01*
Y0010958D01*
X0035573Y0009542D02*
Y0009188D01*
X0032427D01*
Y0009542D01*
X0013463Y0009071D02*
X0013384Y0009073D01*
Y0004429D01*
X0016492D01*
Y0009071D01*
X0013463D01*
X0013847Y0008853D02*
Y0008584D01*
X0013777Y0008903D02*
Y0008534D01*
X0013706Y0008919D02*
Y0008518D01*
X0013635Y0008909D02*
Y0008528D01*
X0013564Y0008868D02*
Y0008569D01*
X0013833Y0008867D02*
X0013564D01*
X0013883Y0008797D02*
X0013514D01*
X0013899Y0008726D02*
X0013498D01*
X0013889Y0008655D02*
X0013508D01*
X0013848Y0008584D02*
X0013549D01*
X0027771Y0008986D02*
Y0008907D01*
X0027700Y0008986D02*
Y0008907D01*
X0027629Y0008986D02*
Y0008907D01*
X0027558Y0008986D02*
Y0008907D01*
X0027487Y0008986D02*
Y0008907D01*
X0027417Y0008986D02*
Y0008907D01*
X0027346Y0008986D02*
Y0008907D01*
X0027275Y0008986D02*
Y0008907D01*
X0027204Y0008986D02*
Y0008907D01*
X0027134Y0008986D02*
Y0008907D01*
X0027933Y0008974D02*
X0027067D01*
X0027146Y0008986D02*
X0027067D01*
Y0008907D01*
X0027933D02*
X0027067D01*
X0027933Y0008986D02*
Y0008907D01*
Y0008986D02*
X0027146D01*
X0027912D02*
Y0008907D01*
X0027841Y0008986D02*
Y0008907D01*
X0027067Y0009340D02*
Y0008160D01*
X0027185D01*
Y0007885D01*
X0027815D01*
Y0008160D01*
X0027933D01*
Y0009340D01*
X0027815D01*
Y0009615D01*
X0027185D01*
Y0009340D01*
X0027067D01*
X0027684Y0008644D02*
Y0008593D01*
X0027613Y0008715D02*
Y0008593D01*
X0027543Y0008786D02*
Y0008593D01*
X0027472Y0008800D02*
Y0008593D01*
X0027401Y0008730D02*
Y0008593D01*
X0027330Y0008659D02*
Y0008593D01*
X0027528Y0008800D02*
X0027472D01*
X0027599Y0008730D02*
X0027401D01*
X0027670Y0008659D02*
X0027330D01*
X0027500Y0008829D02*
X0027736Y0008593D01*
X0027264D01*
X0027500Y0008829D02*
X0027264Y0008593D01*
X0013035Y0009541D02*
Y0009679D01*
X0017917D01*
X0014215Y0011254D02*
Y0011205D01*
X0014144Y0011254D02*
Y0011119D01*
X0014074Y0011254D02*
Y0011032D01*
X0014003Y0011254D02*
Y0010946D01*
X0013932Y0011254D02*
Y0010978D01*
X0013861Y0011254D02*
Y0011065D01*
X0013791Y0011254D02*
Y0011152D01*
X0014209Y0011198D02*
X0013754D01*
X0014151Y0011127D02*
X0013811D01*
X0014093Y0011056D02*
X0013869D01*
X0014035Y0010985D02*
X0013926D01*
X0013724Y0011254D02*
Y0011234D01*
X0013980Y0010919D01*
X0014256Y0011254D02*
X0013980Y0010919D01*
X0014256Y0011254D02*
X0013724D01*
X0005917Y0011537D02*
Y0010120D01*
X0003634D01*
Y0011537D01*
X0005917D01*
X0003634Y0011144D02*
X0003791D01*
Y0010278D01*
X0005760D01*
Y0011144D01*
X0005917D01*
X0004637Y0011537D02*
Y0011344D01*
X0004566Y0011537D02*
Y0011281D01*
X0004495Y0011537D02*
Y0011226D01*
X0004424Y0011537D02*
Y0011289D01*
X0004353Y0011537D02*
Y0011352D01*
X0004283Y0011537D02*
Y0011415D01*
X0004212Y0011537D02*
Y0011478D01*
X0004813Y0011501D02*
X0004186D01*
X0004733Y0011430D02*
X0004266D01*
X0004654Y0011359D02*
X0004346D01*
X0004574Y0011289D02*
X0004425D01*
X0004854Y0011537D02*
X0004815D01*
X0004146D01*
X0004500Y0011222D01*
X0004854Y0011537D02*
X0004500Y0011222D01*
X0004778Y0011537D02*
Y0011470D01*
X0004707Y0011537D02*
Y0011407D01*
X0031955Y0011287D02*
Y0009870D01*
X0028884D01*
Y0011287D01*
X0031955D01*
X0028884Y0010894D02*
X0029041D01*
Y0010028D01*
X0031797D01*
Y0010894D01*
X0031955D01*
X0029887Y0011287D02*
Y0011094D01*
X0029816Y0011287D02*
Y0011031D01*
X0029745Y0011287D02*
Y0010976D01*
X0029674Y0011287D02*
Y0011039D01*
X0029603Y0011287D02*
Y0011102D01*
X0029533Y0011287D02*
Y0011165D01*
X0029462Y0011287D02*
Y0011228D01*
X0030063Y0011251D02*
X0029436D01*
X0029983Y0011180D02*
X0029516D01*
X0029904Y0011109D02*
X0029596D01*
X0029824Y0011039D02*
X0029675D01*
X0030104Y0011287D02*
X0030065D01*
X0029396D01*
X0029750Y0010972D01*
X0030104Y0011287D02*
X0029750Y0010972D01*
X0030028Y0011287D02*
Y0011220D01*
X0029957Y0011287D02*
Y0011157D01*
X0003545Y0000213D02*
Y0001630D01*
X0006616D01*
Y0000213D01*
X0003545D01*
X0006616Y0000606D02*
X0006458D01*
Y0001472D01*
X0003703D01*
Y0000606D01*
X0003545D01*
X0005887Y0000406D02*
Y0000213D01*
X0005816Y0000469D02*
Y0000213D01*
X0005745Y0000523D02*
Y0000213D01*
X0005674Y0000460D02*
Y0000213D01*
X0005603Y0000397D02*
Y0000213D01*
X0005533Y0000334D02*
Y0000213D01*
X0005462Y0000271D02*
Y0000213D01*
X0005791Y0000491D02*
X0005709D01*
X0005870Y0000420D02*
X0005629D01*
X0005950Y0000350D02*
X0005550D01*
X0006029Y0000279D02*
X0005470D01*
X0005435Y0000213D02*
X0005396D01*
X0006104D02*
X0005435D01*
X0005750Y0000528D02*
X0006104Y0000213D01*
X0005750Y0000528D02*
X0005396Y0000213D01*
X0006028Y0000280D02*
Y0000213D01*
X0005957Y0000343D02*
Y0000213D01*
X0021992Y0011537D02*
X0018134D01*
Y0010120D01*
X0021992D01*
Y0011537D01*
X0018134Y0011144D02*
X0018291D01*
Y0010278D01*
X0021834D01*
Y0011144D01*
X0021992D01*
X0019137Y0011537D02*
Y0011344D01*
X0019066Y0011537D02*
Y0011281D01*
X0018995Y0011537D02*
Y0011226D01*
X0018924Y0011537D02*
Y0011289D01*
X0018853Y0011537D02*
Y0011352D01*
X0018783Y0011537D02*
Y0011415D01*
X0018712Y0011537D02*
Y0011478D01*
X0019313Y0011501D02*
X0018686D01*
X0019233Y0011430D02*
X0018766D01*
X0019154Y0011359D02*
X0018846D01*
X0019074Y0011289D02*
X0018925D01*
X0019354Y0011537D02*
X0019315D01*
X0018646D01*
X0019000Y0011222D01*
X0019354Y0011537D02*
X0019000Y0011222D01*
X0019278Y0011537D02*
Y0011470D01*
X0019207Y0011537D02*
Y0011407D01*
X0035913Y0002837D02*
Y0006163D01*
X0033738D01*
X0033610Y0006035D01*
X0033482Y0006163D01*
X0032715D01*
X0032587Y0006035D01*
Y0002837D01*
X0035913D01*
X0039287Y0003258D02*
Y0007116D01*
X0037870D01*
Y0003258D01*
X0039287D01*
X0038894Y0007116D02*
Y0006958D01*
X0038028D01*
Y0003415D01*
X0038894D01*
Y0003258D01*
X0039039Y0006324D02*
Y0006175D01*
X0039287Y0006528D02*
X0039220D01*
X0039287Y0006457D02*
X0039157D01*
X0039287Y0006387D02*
X0039094D01*
X0039287Y0006316D02*
X0039031D01*
X0039287Y0006245D02*
X0038976D01*
X0039287Y0006174D02*
X0039039D01*
X0039287Y0006103D02*
X0039102D01*
X0039287Y0006033D02*
X0039165D01*
X0039287Y0005962D02*
X0039228D01*
X0039287Y0005935D02*
Y0005896D01*
Y0006604D02*
Y0005935D01*
Y0006604D02*
X0038972Y0006250D01*
X0039287Y0005896D01*
X0039251Y0006563D02*
Y0005936D01*
X0039180Y0006483D02*
Y0006016D01*
X0039109Y0006404D02*
Y0006096D01*
X0026600Y0005800D02*
Y0004900D01*
X0027200D01*
Y0005800D01*
X0026600D01*
G01X0013699Y0008518D02*
G03X0013900Y0008719I0000000J0000201D01*
G01X0013498D02*
G03X0013699Y0008518I0000201J0000000D01*
Y0008919D02*
G03X0013499Y0008719I0000000J0000200D01*
G01X0013899D02*
G03X0013699Y0008919I0000200J0000000D01*
M02*
