*
G04 Mass Parameters ***
*
G04 Image ***
*
%IND:\UTENTI\00.LAVORI IN CORSO\METALTRONICA\22-315-0\22-315-0.IN1*%
%ICAS*%
%MOIN*%
%IPPOS*%
%ASAXBY*%
G74*%FSLAN2X34Y34*%
*
G04 Aperture Definitions ***
*
%AMTHERMAL75*
1,1,0.1133,0,0,*
1,0,0.0894,0,0,*
21,0,0.1134,0.0100,0,0,45.0*
21,0,0.1134,0.0100,0,0,135.0*%
%AMTHERMAL79*
1,1,0.1172,0,0,*
1,0,0.0933,0,0,*
21,0,0.1173,0.0100,0,0,45.0*
21,0,0.1173,0.0100,0,0,135.0*%
%AMTHERMAL82*
1,1,0.1172,0,0,*
1,0,0.0933,0,0,*
21,0,0.1173,0.0100,0,0,315.0*
21,0,0.1173,0.0100,0,0,45.0*%
%ADD10R,0.1060X0.1180*%
%ADD11R,0.0501X0.0404*%
%ADD12R,0.0404X0.0501*%
%ADD13R,0.1260X0.0630*%
%ADD14R,0.0400X0.0710*%
%ADD15R,0.0886X0.0905*%
%ADD16R,0.0905X0.0886*%
%ADD17R,0.0380X0.0320*%
%ADD18R,0.0320X0.0380*%
%ADD19R,0.0370X0.0370*%
%ADD20R,0.0430X0.0650*%
%ADD21R,0.0850X0.1080*%
%ADD22R,0.0472X0.0472*%
%ADD23C,0.2756*%
%ADD24C,0.1378*%
%ADD25R,0.0905X0.1220*%
%ADD26C,0.0590*%
%ADD27R,0.0630X0.0630*%
%ADD28C,0.0787*%
%ADD29R,0.0787X0.0787*%
%ADD30C,0.0630*%
%ADD31R,0.0236X0.0413*%
%ADD32C,0.0187*%
%ADD33R,0.0787X0.0472*%
%ADD34C,0.0276*%
%ADD35R,0.0680X0.1580*%
%ADD36R,0.0680X0.0550*%
%ADD37R,0.0710X0.0400*%
%ADD38R,0.0630X0.0866*%
%ADD39R,0.1080X0.0850*%
%ADD40O,0.0256X0.0650*%
%ADD41R,0.0950X0.1220*%
%ADD42R,0.0750X0.0240*%
%ADD43R,0.1181X0.1701*%
%ADD44R,0.0649X0.0177*%
%ADD45R,0.1580X0.0680*%
%ADD46R,0.0550X0.0680*%
%ADD47C,0.0800*%
%ADD48R,0.0354X0.0165*%
%ADD49O,0.0110X0.0700*%
%ADD50R,0.0110X0.0700*%
%ADD51O,0.0700X0.0110*%
%ADD52R,0.0700X0.0110*%
%ADD53R,0.0354X0.0512*%
%ADD54R,0.0394X0.0197*%
%ADD55C,0.0050*%
%ADD56C,0.0100*%
%ADD57C,0.0120*%
%ADD58C,0.0276*%
%ADD59C,0.0080*%
%ADD60C,0.0250*%
%ADD61C,0.0150*%
%ADD62C,0.0300*%
%ADD63C,0.0170*%
%ADD64C,0.0500*%
%ADD65C,0.0060*%
%ADD66R,0.1024X0.0510*%
%ADD67R,0.0197X0.0315*%
%ADD68R,0.0500X0.0400*%
%ADD69R,0.0400X0.0500*%
%ADD70R,0.0500X0.0270*%
%ADD71C,0.0276*%
%ADD72C,0.1575*%
%ADD73C,0.0708*%
%ADD74R,0.0708X0.0708*%
%ADD75THERMAL75*%
%ADD76C,0.0708*%
%ADD77R,0.0708X0.0708*%
%ADD78C,0.1027*%
%ADD79THERMAL79*%
%ADD80R,0.0984X0.0984*%
%ADD81C,0.1100*%
%ADD82THERMAL82*%
%ADD83C,0.1100*%
%ADD84C,0.0050*%
%ADD85C,0.0276*%
%ADD86C,0.0050*%
*
G04 Plot Data ***
*
G54D56*
G01X0011280Y0000330D02*
X0000300D01*
X0011280Y0000510D02*
X0010258D01*
X0008748Y0005910D02*
X0000300D01*
X0010290Y0000547D02*
Y0000150D01*
X0010200Y0000466D02*
Y0000150D01*
X0010110Y0000435D02*
Y0000150D01*
X0010020Y0000437D02*
Y0000150D01*
X0010380Y0011550D02*
Y0000150D01*
X0011280Y0000870D02*
X0010277D01*
X0011280Y0000780D02*
X0010325D01*
X0011280Y0000690D02*
X0010337D01*
X0011280Y0006720D02*
X0000300D01*
X0011280Y0006000D02*
X0009268D01*
X0011280Y0005910D02*
X0009252D01*
X0011280Y0006180D02*
X0009198D01*
X0011280Y0000960D02*
X0010133D01*
X0009030Y0011550D02*
Y0006266D01*
X0008940Y0011550D02*
Y0006261D01*
X0008850Y0011550D02*
Y0006222D01*
X0007500Y0011550D02*
Y0006528D01*
X0009120Y0011550D02*
Y0006239D01*
X0011280Y0005820D02*
X0009198D01*
X0011280Y0004290D02*
X0007223D01*
X0011280Y0004200D02*
X0007320D01*
X0011280Y0004110D02*
X0007357D01*
X0011280Y0004020D02*
X0007360D01*
X0011280Y0003930D02*
X0007332D01*
X0009930Y0011550D02*
Y0000928D01*
X0007320Y0011550D02*
Y0004200D01*
X0007230Y0011550D02*
Y0004286D01*
X0007410Y0011550D02*
Y0002966D01*
X0007500Y0001972D02*
Y0000150D01*
X0007050Y0001228D02*
Y0000150D01*
X0011280Y0003840D02*
X0007254D01*
X0011280Y0005190D02*
X0007938D01*
X0011280Y0005100D02*
X0007998D01*
X0011280Y0005010D02*
X0008017D01*
X0011280Y0004920D02*
X0008005D01*
X0011280Y0004830D02*
X0007957D01*
X0007950Y0006254D02*
Y0005178D01*
X0007860Y0006135D02*
Y0005244D01*
X0007770Y0006091D02*
Y0005267D01*
X0007680Y0006083D02*
Y0005258D01*
X0007590Y0006106D02*
Y0005214D01*
X0007500Y0006172D02*
Y0005095D01*
X0009210Y0011550D02*
Y0006166D01*
X0007950Y0011550D02*
Y0006445D01*
X0007860Y0011550D02*
Y0006564D01*
X0007770Y0011550D02*
Y0006608D01*
X0007680Y0011550D02*
Y0006617D01*
X0007590Y0011550D02*
Y0006594D01*
X0011280Y0006090D02*
X0009252D01*
X0011280Y0006540D02*
X0007888D01*
X0011280Y0006450D02*
X0007948D01*
X0011280Y0006360D02*
X0007967D01*
X0008732Y0006000D02*
X0000300D01*
X0008802Y0006180D02*
X0007907D01*
X0008704Y0002400D02*
X0007795D01*
X0008585Y0002310D02*
X0007914D01*
X0008541Y0002220D02*
X0007958D01*
X0008533Y0002130D02*
X0007967D01*
X0008556Y0002040D02*
X0007944D01*
X0008622Y0001950D02*
X0007878D01*
X0007500Y0004904D02*
Y0002328D01*
X0007543Y0004830D02*
X0000300D01*
X0007950Y0004822D02*
Y0002245D01*
X0007860Y0004756D02*
Y0002364D01*
X0007770Y0004733D02*
Y0002408D01*
X0007680Y0004741D02*
Y0002417D01*
X0011280Y0004740D02*
X0007813D01*
X0011280Y0002400D02*
X0008895D01*
X0011280Y0002310D02*
X0009014D01*
X0011280Y0002220D02*
X0009058D01*
X0011280Y0002130D02*
X0009067D01*
X0011280Y0002040D02*
X0009044D01*
X0000390Y0011550D02*
Y0000150D01*
X0009030Y0005734D02*
Y0002287D01*
X0008940Y0005739D02*
Y0002378D01*
X0009120Y0005761D02*
Y0002998D01*
X0008760Y0001885D02*
Y0000150D01*
X0008670Y0001916D02*
Y0000150D01*
X0009163Y0001680D02*
X0008387D01*
X0009072Y0001590D02*
X0008478D01*
X0009037Y0001500D02*
X0008513D01*
X0009035Y0001410D02*
X0008514D01*
X0009066Y0001320D02*
X0008484D01*
X0009147Y0001230D02*
X0008402D01*
X0008490Y0002681D02*
Y0001568D01*
X0008400Y0002578D02*
Y0001672D01*
X0008310Y0002539D02*
Y0001711D01*
X0008220Y0002534D02*
Y0001716D01*
X0008130Y0002561D02*
Y0001689D01*
X0008040Y0002634D02*
Y0001616D01*
X0011280Y0001950D02*
X0008978D01*
X0011280Y0001680D02*
X0009437D01*
X0011280Y0001590D02*
X0009528D01*
X0011280Y0001500D02*
X0009563D01*
X0011280Y0001410D02*
X0009564D01*
X0011280Y0001320D02*
X0009534D01*
X0009480Y0002602D02*
Y0001648D01*
X0009390Y0002548D02*
Y0001702D01*
X0009300Y0002532D02*
Y0001718D01*
X0009210Y0002548D02*
Y0001702D01*
X0009120Y0002602D02*
Y0001648D01*
X0008040Y0011550D02*
Y0002966D01*
X0008580Y0011550D02*
Y0002302D01*
X0008113Y0001680D02*
X0007337D01*
X0007410Y0002634D02*
Y0001616D01*
X0007320Y0002561D02*
Y0001689D01*
X0007230Y0002534D02*
Y0001716D01*
X0008022Y0001590D02*
X0007428D01*
X0007987Y0001500D02*
X0007463D01*
X0007985Y0001410D02*
X0007464D01*
X0007140Y0002539D02*
Y0001711D01*
X0007050Y0002578D02*
Y0001672D01*
X0006960Y0002681D02*
Y0001568D01*
X0008113Y0003030D02*
X0007337D01*
X0008022Y0002940D02*
X0007428D01*
X0007987Y0002850D02*
X0007463D01*
X0007985Y0002760D02*
X0007464D01*
X0008016Y0002670D02*
X0007434D01*
X0008097Y0002580D02*
X0007352D01*
X0009390Y0001198D02*
Y0000150D01*
X0006858Y0003930D02*
X0000300D01*
X0007320Y0003910D02*
Y0003039D01*
X0007230Y0003824D02*
Y0003066D01*
X0007140Y0003791D02*
Y0003061D01*
X0007050Y0003791D02*
Y0003022D01*
X0009163Y0003030D02*
X0008387D01*
X0009072Y0002940D02*
X0008478D01*
X0009037Y0002850D02*
X0008513D01*
X0009035Y0002760D02*
X0008514D01*
X0009066Y0002670D02*
X0008484D01*
X0009147Y0002580D02*
X0008402D01*
X0007050Y0011550D02*
Y0004319D01*
X0008490Y0011550D02*
Y0002918D01*
X0008220Y0001184D02*
Y0000150D01*
X0008580Y0001997D02*
Y0000150D01*
X0008130Y0001211D02*
Y0000150D01*
Y0011550D02*
Y0003039D01*
X0011280Y0001230D02*
X0009452D01*
X0011280Y0003030D02*
X0009437D01*
X0011280Y0002940D02*
X0009528D01*
X0011280Y0002850D02*
X0009563D01*
X0011280Y0002760D02*
X0009564D01*
X0011280Y0002670D02*
X0009534D01*
X0008310Y0011550D02*
Y0003061D01*
X0009300Y0001182D02*
Y0000150D01*
X0009390Y0011550D02*
Y0003052D01*
X0008850Y0005778D02*
Y0002413D01*
X0009210Y0005834D02*
Y0003052D01*
X0004851Y0001410D02*
X0004287D01*
X0004683Y0001320D02*
X0004455D01*
X0004530Y0010305D02*
Y0001234D01*
X0004440Y0010305D02*
Y0001332D01*
X0004350Y0010305D02*
Y0001387D01*
X0004260Y0010305D02*
Y0001416D01*
X0004170Y0010305D02*
Y0001425D01*
X0004080Y0010305D02*
Y0001414D01*
Y0000586D02*
Y0000150D01*
X0003990Y0000617D02*
Y0000150D01*
X0003900Y0000676D02*
Y0000150D01*
X0004605Y0001230D02*
X0004533D01*
X0004599Y0000780D02*
X0004539D01*
X0004672Y0000690D02*
X0004466D01*
X0004819Y0000600D02*
X0004319D01*
X0005305Y0001445D02*
Y0001251D01*
X0005250Y0010326D02*
Y0001313D01*
X0005160Y0010344D02*
Y0001376D01*
X0005070Y0010385D02*
Y0001411D01*
X0004980Y0010456D02*
Y0001424D01*
X0004890Y0010305D02*
Y0001419D01*
X0004800Y0010305D02*
Y0001392D01*
X0004710Y0010305D02*
Y0001342D01*
X0004620Y0010305D02*
Y0001251D01*
X0005305Y0001410D02*
X0005074D01*
X0005305Y0001320D02*
X0005242D01*
X0005305Y0000690D02*
X0005253D01*
X0005305Y0000600D02*
X0005106D01*
X0009300Y0011550D02*
Y0003068D01*
X0006150Y0000555D02*
Y0000150D01*
X0006060Y0000555D02*
Y0000150D01*
X0005970Y0000555D02*
Y0000150D01*
X0004980Y0000575D02*
Y0000150D01*
X0005700Y0010648D02*
Y0001445D01*
X0005610Y0010473D02*
Y0001445D01*
X0005520Y0010394D02*
Y0001445D01*
X0005430Y0010349D02*
Y0001445D01*
X0005340Y0010328D02*
Y0001445D01*
X0007320Y0001211D02*
Y0000150D01*
X0006935Y0001410D02*
X0006195D01*
X0006966Y0001320D02*
X0006195D01*
X0011280Y0002580D02*
X0009452D01*
X0011280Y0001140D02*
X0006195D01*
X0004032Y0000600D02*
X0000300D01*
X0009840Y0011550D02*
Y0000837D01*
X0009863Y0000870D02*
X0006195D01*
X0009814Y0000780D02*
X0006195D01*
X0009802Y0000690D02*
X0006195D01*
X0005700Y0011550D02*
Y0010851D01*
X0005610Y0011550D02*
Y0011026D01*
X0005520Y0011550D02*
Y0011105D01*
X0005430Y0011550D02*
Y0011150D01*
X0005340Y0011550D02*
Y0011172D01*
X0005250Y0011550D02*
Y0011173D01*
X0005160Y0011550D02*
Y0011155D01*
X0005070Y0011550D02*
Y0011115D01*
X0011280Y0011310D02*
X0000300D01*
X0011280Y0010500D02*
X0005631D01*
X0011280Y0010320D02*
X0004945D01*
Y0011195D02*
Y0011001D01*
X0011280Y0011490D02*
X0000300D01*
X0004890Y0011550D02*
Y0011195D01*
X0004800Y0011550D02*
Y0011195D01*
X0004710Y0011550D02*
Y0011195D01*
X0004620Y0011550D02*
Y0011195D01*
X0004530Y0011550D02*
Y0011195D01*
X0004440Y0011550D02*
Y0011195D01*
X0004350Y0011550D02*
Y0011195D01*
X0004260Y0011550D02*
Y0011195D01*
X0004170Y0011550D02*
Y0011195D01*
X0005160Y0000623D02*
Y0000150D01*
X0004976Y0011040D02*
X0004945D01*
X0011280D02*
X0005598D01*
X0011280Y0010950D02*
X0005662D01*
X0011280Y0010860D02*
X0005698D01*
X0011280Y0010770D02*
X0005712D01*
X0011280Y0010680D02*
X0005706D01*
X0011280Y0010590D02*
X0005681D01*
X0011280Y0010410D02*
X0005542D01*
X0005032D02*
X0004945D01*
X0002370Y0010040D02*
Y0001770D01*
X0002280Y0009820D02*
Y0001991D01*
X0002190Y0009695D02*
Y0002115D01*
X0002100Y0009608D02*
Y0002203D01*
X0002010Y0009542D02*
Y0002268D01*
X0001920Y0009493D02*
Y0002317D01*
X0001830Y0009458D02*
Y0002353D01*
X0001740Y0009434D02*
Y0002377D01*
X0001650Y0009420D02*
Y0002390D01*
X0001560Y0009417D02*
Y0002393D01*
X0001470Y0009424D02*
Y0002387D01*
X0001380Y0009440D02*
Y0002370D01*
X0001290Y0009468D02*
Y0002342D01*
X0001200Y0009508D02*
Y0002303D01*
X0001110Y0009561D02*
Y0002249D01*
X0001020Y0009633D02*
Y0002177D01*
X0000930Y0009731D02*
Y0002080D01*
X0000840Y0009874D02*
Y0001936D01*
X0007493Y0006180D02*
X0000300D01*
X0002460Y0011550D02*
Y0000150D01*
X0007485Y0002310D02*
X0001935D01*
X0007441Y0002220D02*
X0002079D01*
X0007433Y0002130D02*
X0002176D01*
X0011280Y0003120D02*
X0000300D01*
X0011280Y0001860D02*
X0002342D01*
X0009210Y0001198D02*
Y0000150D01*
X0007063Y0001680D02*
X0002387D01*
X0006972Y0001590D02*
X0002393D01*
X0005430Y0000555D02*
Y0000150D01*
X0004710Y0000658D02*
Y0000150D01*
X0004063Y0001410D02*
X0002377D01*
X0003810Y0011550D02*
Y0001217D01*
X0003818Y0001230D02*
X0002317D01*
X0003774Y0001140D02*
X0002269D01*
X0003753Y0001050D02*
X0002203D01*
X0011280Y0011220D02*
X0000300D01*
X0002370Y0011550D02*
Y0010431D01*
X0002280Y0011550D02*
Y0010652D01*
X0002190Y0011550D02*
Y0010776D01*
X0002100Y0011550D02*
Y0010864D01*
X0002010Y0011550D02*
Y0010930D01*
X0001920Y0011550D02*
Y0010978D01*
X0001830Y0011550D02*
Y0011014D01*
X0001740Y0011550D02*
Y0011038D01*
X0001650Y0011550D02*
Y0011051D01*
X0001560Y0011550D02*
Y0011055D01*
X0001470Y0011550D02*
Y0011048D01*
X0001380Y0011550D02*
Y0011031D01*
X0001290Y0011550D02*
Y0011004D01*
X0001200Y0011550D02*
Y0010964D01*
X0001110Y0011550D02*
Y0010910D01*
X0001020Y0011550D02*
Y0010838D01*
X0000930Y0011550D02*
Y0010741D01*
X0004890Y0000581D02*
Y0000150D01*
X0004055Y0011040D02*
X0001731D01*
X0004055Y0010950D02*
X0001976D01*
X0004055Y0010860D02*
X0002105D01*
X0004055Y0010770D02*
X0002195D01*
X0004055Y0010680D02*
X0002263D01*
X0004055Y0010590D02*
X0002313D01*
X0004055Y0010500D02*
X0002350D01*
X0004055Y0010410D02*
X0002375D01*
X0011280Y0011130D02*
X0005477D01*
X0011280Y0010230D02*
X0002393D01*
X0011280Y0010140D02*
X0002388D01*
X0011280Y0010050D02*
X0002372D01*
X0011280Y0009960D02*
X0002346D01*
X0011280Y0009870D02*
X0002307D01*
X0011280Y0009780D02*
X0002255D01*
X0011280Y0009690D02*
X0002185D01*
X0011280Y0009600D02*
X0002091D01*
X0011280Y0009510D02*
X0001954D01*
X0001195D02*
X0000300D01*
X0003875Y0001300D02*
X0004175Y0001000D01*
X0004476Y0000699D02*
X0004175Y0001000D01*
X0003875Y0000699D02*
X0004175Y0001000D01*
X0011280Y0001050D02*
X0006195D01*
X0008760Y0011550D02*
Y0006118D01*
X0009930Y0000472D02*
Y0000150D01*
X0011280Y0011550D02*
Y0000200D01*
X0001376Y0000780D02*
X0000300D01*
X0009570Y0011550D02*
Y0000150D01*
X0005880Y0011550D02*
Y0001445D01*
X0006195D02*
X0005305D01*
X0006195Y0000555D02*
X0005305D01*
X0006195Y0001445D02*
Y0000555D01*
X0004055Y0010320D02*
X0002389D01*
X0004945Y0011195D02*
X0004055D01*
Y0010305D01*
X0004945D02*
X0004055D01*
X0005097Y0011130D02*
X0004945D01*
X0011280Y0006270D02*
X0007955D01*
X0011280Y0000240D02*
X0000300D01*
Y0011550D02*
Y0000150D01*
X0011280Y0011550D02*
Y0000150D01*
X0011190Y0011550D02*
Y0000150D01*
X0011100Y0011550D02*
Y0000150D01*
X0011010Y0011550D02*
Y0000150D01*
X0010920Y0011550D02*
Y0000150D01*
X0010830Y0011550D02*
Y0000150D01*
X0010740Y0011550D02*
Y0000150D01*
X0010650Y0011550D02*
Y0000150D01*
X0010560Y0011550D02*
Y0000150D01*
X0010470Y0011550D02*
Y0000150D01*
X0010006Y0000960D02*
X0006195D01*
X0010290Y0011550D02*
Y0000852D01*
X0010200Y0011550D02*
Y0000934D01*
X0010110Y0011550D02*
Y0000964D01*
X0010020Y0011550D02*
Y0000963D01*
X0007140Y0001189D02*
Y0000150D01*
X0009840Y0000563D02*
Y0000150D01*
X0009750Y0011550D02*
Y0000150D01*
X0009660Y0011550D02*
Y0000150D01*
X0006937Y0002850D02*
X0000300D01*
X0008016Y0001320D02*
X0007434D01*
X0008310Y0001189D02*
Y0000150D01*
X0007230Y0001184D02*
Y0000150D01*
X0009480Y0011550D02*
Y0002998D01*
X0007456Y0002040D02*
X0002248D01*
X0007770Y0001891D02*
Y0000150D01*
X0009030Y0002013D02*
Y0000150D01*
X0008940Y0001922D02*
Y0000150D01*
X0009120Y0001252D02*
Y0000150D01*
X0008670Y0011550D02*
Y0002384D01*
X0006935Y0002760D02*
X0000300D01*
X0008097Y0001230D02*
X0007352D01*
X0008850Y0001887D02*
Y0000150D01*
X0008490Y0001331D02*
Y0000150D01*
X0008400Y0001228D02*
Y0000150D01*
Y0011550D02*
Y0003022D01*
X0007522Y0001950D02*
X0002302D01*
X0007140Y0011550D02*
Y0004319D01*
X0007950Y0002054D02*
Y0000150D01*
X0007860Y0001935D02*
Y0000150D01*
X0008040Y0001284D02*
Y0000150D01*
X0007680Y0001883D02*
Y0000150D01*
X0006966Y0002670D02*
X0000300D01*
X0006937Y0001500D02*
X0002390D01*
X0009480Y0001252D02*
Y0000150D01*
X0007410Y0001284D02*
Y0000150D01*
X0007047Y0001230D02*
X0006195D01*
X0005880Y0000555D02*
Y0000150D01*
X0006960Y0003824D02*
Y0002918D01*
X0006870Y0003910D02*
Y0000150D01*
X0006780Y0011550D02*
Y0000150D01*
X0006690Y0011550D02*
Y0000150D01*
X0006600Y0011550D02*
Y0000150D01*
X0006510Y0011550D02*
Y0000150D01*
X0006420Y0011550D02*
Y0000150D01*
X0006330Y0011550D02*
Y0000150D01*
X0000946Y0001050D02*
X0000300D01*
X0006150Y0011550D02*
Y0001445D01*
X0006060Y0011550D02*
Y0001445D01*
X0005970Y0011550D02*
Y0001445D01*
X0003812Y0000780D02*
X0001773D01*
X0005790Y0011550D02*
Y0001445D01*
Y0000555D02*
Y0000150D01*
X0004170Y0000575D02*
Y0000150D01*
X0004800Y0000607D02*
Y0000150D01*
X0005520Y0000555D02*
Y0000150D01*
X0005305Y0000748D02*
Y0000555D01*
X0004260Y0000583D02*
Y0000150D01*
X0005250Y0000687D02*
Y0000150D01*
X0004945Y0010498D02*
Y0010305D01*
X0005070Y0000589D02*
Y0000150D01*
X0000840Y0001213D02*
Y0000150D01*
X0005610Y0000555D02*
Y0000150D01*
X0005340Y0000555D02*
Y0000150D01*
X0003895Y0001320D02*
X0002353D01*
X0006240Y0011550D02*
Y0000150D01*
X0004530Y0000766D02*
Y0000150D01*
X0004440Y0000667D02*
Y0000150D01*
X0004350Y0000612D02*
Y0000150D01*
X0004620Y0000748D02*
Y0000150D01*
X0003990Y0011550D02*
Y0001382D01*
X0003900Y0011550D02*
Y0001324D01*
X0003810Y0000783D02*
Y0000150D01*
X0003720Y0011550D02*
Y0000150D01*
X0003630Y0011550D02*
Y0000150D01*
X0003540Y0011550D02*
Y0000150D01*
X0003450Y0011550D02*
Y0000150D01*
X0003360Y0011550D02*
Y0000150D01*
X0003270Y0011550D02*
Y0000150D01*
X0003180Y0011550D02*
Y0000150D01*
X0003090Y0011550D02*
Y0000150D01*
X0003000Y0011550D02*
Y0000150D01*
X0002910Y0011550D02*
Y0000150D01*
X0002820Y0011550D02*
Y0000150D01*
X0002730Y0011550D02*
Y0000150D01*
X0002640Y0011550D02*
Y0000150D01*
X0002550Y0011550D02*
Y0000150D01*
X0001157Y0000870D02*
X0000300D01*
X0005700Y0000555D02*
Y0000150D01*
X0002370Y0001379D02*
Y0000150D01*
X0002280Y0001158D02*
Y0000150D01*
X0002190Y0001034D02*
Y0000150D01*
X0002100Y0000946D02*
Y0000150D01*
X0002010Y0000881D02*
Y0000150D01*
X0001920Y0000832D02*
Y0000150D01*
X0001830Y0000796D02*
Y0000150D01*
X0001740Y0000772D02*
Y0000150D01*
X0001650Y0000759D02*
Y0000150D01*
X0001560Y0000756D02*
Y0000150D01*
X0001470Y0000762D02*
Y0000150D01*
X0001380Y0000779D02*
Y0000150D01*
X0001290Y0000807D02*
Y0000150D01*
X0001200Y0000846D02*
Y0000150D01*
X0001110Y0000900D02*
Y0000150D01*
X0000756Y0001590D02*
X0000300D01*
X0000750Y0011550D02*
Y0000150D01*
X0000660Y0011550D02*
Y0000150D01*
X0000570Y0011550D02*
Y0000150D01*
X0000480Y0011550D02*
Y0000150D01*
X0004476Y0001300D02*
X0004175Y0001000D01*
X0011280Y0011550D02*
X0000300D01*
X0004980D02*
Y0011043D01*
X0004080Y0011550D02*
Y0011195D01*
X0011280Y0011400D02*
X0000300D01*
X0001020Y0000972D02*
Y0000150D01*
X0000840Y0011550D02*
Y0010598D01*
X0001418Y0011040D02*
X0000300D01*
X0001173Y0010950D02*
X0000300D01*
X0001044Y0010860D02*
X0000300D01*
X0000954Y0010770D02*
X0000300D01*
X0000886Y0010680D02*
X0000300D01*
X0000836Y0010590D02*
X0000300D01*
X0000799Y0010500D02*
X0000300D01*
X0000774Y0010410D02*
X0000300D01*
X0004055Y0011130D02*
X0000300D01*
X0000756Y0010230D02*
X0000300D01*
X0000761Y0010140D02*
X0000300D01*
X0000777Y0010050D02*
X0000300D01*
X0000803Y0009960D02*
X0000300D01*
X0000842Y0009870D02*
X0000300D01*
X0000894Y0009780D02*
X0000300D01*
X0000964Y0009690D02*
X0000300D01*
X0001058Y0009600D02*
X0000300D01*
X0011280Y0009420D02*
X0001645D01*
X0001504D02*
X0000300D01*
X0011280Y0009330D02*
X0000300D01*
X0011280Y0009240D02*
X0000300D01*
X0011280Y0009150D02*
X0000300D01*
X0011280Y0009060D02*
X0000300D01*
X0011280Y0008970D02*
X0000300D01*
X0011280Y0008880D02*
X0000300D01*
X0011280Y0008790D02*
X0000300D01*
X0011280Y0008700D02*
X0000300D01*
X0011280Y0008610D02*
X0000300D01*
X0011280Y0008520D02*
X0000300D01*
X0011280Y0008430D02*
X0000300D01*
X0011280Y0008340D02*
X0000300D01*
X0011280Y0008250D02*
X0000300D01*
X0011280Y0008160D02*
X0000300D01*
X0011280Y0008070D02*
X0000300D01*
X0011280Y0007980D02*
X0000300D01*
X0011280Y0007890D02*
X0000300D01*
X0011280Y0007800D02*
X0000300D01*
X0011280Y0007710D02*
X0000300D01*
X0011280Y0007620D02*
X0000300D01*
X0011280Y0007530D02*
X0000300D01*
X0011280Y0007440D02*
X0000300D01*
X0011280Y0007350D02*
X0000300D01*
X0011280Y0007260D02*
X0000300D01*
X0011280Y0007170D02*
X0000300D01*
X0011280Y0007080D02*
X0000300D01*
X0011280Y0006990D02*
X0000300D01*
X0011280Y0006900D02*
X0000300D01*
X0011280Y0006810D02*
X0000300D01*
X0007590Y0004785D02*
Y0002394D01*
X0011280Y0006630D02*
X0000300D01*
X0007511Y0006540D02*
X0000300D01*
X0007452Y0006450D02*
X0000300D01*
X0007432Y0006360D02*
X0000300D01*
X0007444Y0006270D02*
X0000300D01*
X0009822Y0000600D02*
X0006195D01*
X0007636Y0006090D02*
X0000300D01*
X0008748D02*
X0007763D01*
X0011287Y0000150D02*
X0000300D01*
X0000847Y0001950D02*
X0000300D01*
X0000807Y0001860D02*
X0000300D01*
X0008802Y0005820D02*
X0000300D01*
X0011280Y0005550D02*
X0000300D01*
X0011280Y0005460D02*
X0000300D01*
X0006960Y0001331D02*
Y0000150D01*
X0011280Y0004560D02*
X0000300D01*
X0007561Y0005190D02*
X0000300D01*
X0007502Y0005100D02*
X0000300D01*
X0007482Y0005010D02*
X0000300D01*
X0007494Y0004920D02*
X0000300D01*
X0011280Y0005370D02*
X0000300D01*
X0011280Y0005280D02*
X0000300D01*
X0011280Y0004650D02*
X0000300D01*
X0007686Y0004740D02*
X0000300D01*
X0008760Y0005881D02*
Y0002414D01*
X0011280Y0003660D02*
X0000300D01*
X0006967Y0004290D02*
X0000300D01*
X0006870Y0004200D02*
X0000300D01*
X0006833Y0004110D02*
X0000300D01*
X0006829Y0004020D02*
X0000300D01*
X0011280Y0004470D02*
X0000300D01*
X0011280Y0004380D02*
X0000300D01*
X0011280Y0003750D02*
X0000300D01*
X0006935Y0003840D02*
X0000300D01*
X0011280Y0003570D02*
X0000300D01*
X0011280Y0003480D02*
X0000300D01*
X0011280Y0003390D02*
X0000300D01*
X0011280Y0003300D02*
X0000300D01*
X0008220Y0011550D02*
Y0003066D01*
X0006960Y0011550D02*
Y0004286D01*
X0006870Y0011550D02*
Y0004200D01*
X0011280Y0002490D02*
X0000300D01*
X0007063Y0003030D02*
X0000300D01*
X0006972Y0002940D02*
X0000300D01*
X0011280Y0003210D02*
X0000300D01*
X0007590Y0001906D02*
Y0000150D01*
X0000930Y0001069D02*
Y0000150D01*
X0007604Y0002400D02*
X0000300D01*
X0001214Y0002310D02*
X0000300D01*
X0001070Y0002220D02*
X0000300D01*
X0000973Y0002130D02*
X0000300D01*
X0000901Y0002040D02*
X0000300D01*
X0011280Y0005730D02*
X0000300D01*
X0011280Y0005640D02*
X0000300D01*
X0000779Y0001770D02*
X0000300D01*
X0000762Y0001680D02*
X0000300D01*
X0007047Y0002580D02*
X0000300D01*
X0000759Y0001500D02*
X0000300D01*
X0000772Y0001410D02*
X0000300D01*
X0000796Y0001320D02*
X0000300D01*
X0000832Y0001230D02*
X0000300D01*
X0000880Y0001140D02*
X0000300D01*
X0003884Y0000690D02*
X0000300D01*
X0001033Y0000960D02*
X0000300D01*
X0003752D02*
X0002116D01*
X0003771Y0000870D02*
X0001992D01*
X0011280Y0000600D02*
X0010318D01*
X0011280Y0001770D02*
X0002370D01*
X0009881Y0000510D02*
X0000300D01*
X0011280Y0000420D02*
X0000300D01*
X0000760Y0010320D02*
X0000300D01*
X0030620Y0004693D02*
Y0004602D01*
X0032690Y0003011D02*
Y0002964D01*
X0021172Y0010370D02*
X0020765D01*
X0023166Y0008480D02*
X0022008D01*
X0024239Y0007940D02*
X0024002D01*
X0018650Y0001728D02*
Y0000200D01*
X0018560Y0001689D02*
Y0000200D01*
X0015500Y0000387D02*
Y0000200D01*
X0018380Y0005516D02*
Y0004248D01*
X0016733Y0006680D02*
X0014775D01*
X0034084Y0002990D02*
X0033866D01*
X0034011Y0003080D02*
X0033939D01*
X0034584Y0002990D02*
X0034416D01*
X0034511Y0003080D02*
X0034489D01*
X0027830Y0011550D02*
Y0001866D01*
X0022407Y0005150D02*
X0011470D01*
X0013720Y0006770D02*
X0011470D01*
X0014060Y0005255D02*
Y0000200D01*
X0013970Y0005300D02*
Y0000200D01*
X0014445Y0010695D02*
X0013555D01*
Y0009805D01*
X0014445D02*
X0013555D01*
X0014445Y0010695D02*
Y0009805D01*
X0012016Y0000830D02*
X0012005D01*
X0024187D02*
X0024024D01*
X0018272Y0002090D02*
X0011470D01*
X0023690Y0005189D02*
Y0002738D01*
X0025187Y0000830D02*
X0024813D01*
X0022977Y0002270D02*
X0011470D01*
X0018363Y0002180D02*
X0011470D01*
X0023600Y0005228D02*
Y0002764D01*
X0022976Y0001774D02*
Y0000726D01*
X0024024D02*
X0022976D01*
X0020384Y0010370D02*
X0019977D01*
X0021772Y0010550D02*
X0021737D01*
X0019597Y0010370D02*
X0019445D01*
X0013555Y0010550D02*
X0011470D01*
X0019445Y0011195D02*
X0018555D01*
Y0010305D01*
X0019445D02*
X0018555D01*
X0030394Y0010100D02*
X0030195D01*
X0031181D02*
X0030681D01*
X0030195Y0010945D02*
X0029305D01*
X0028943Y0009830D02*
X0024808D01*
X0029305Y0010945D02*
Y0010218D01*
X0039150Y0005150D02*
X0038788D01*
X0022070Y0001263D02*
Y0000200D01*
X0038180Y0003608D02*
Y0002298D01*
X0013880Y0005370D02*
Y0000200D01*
X0038055Y0006695D02*
Y0005805D01*
X0038945Y0006695D02*
Y0005805D01*
Y0006695D02*
X0038055D01*
X0036630Y0009567D02*
X0035623D01*
X0036630Y0010267D02*
Y0009567D01*
Y0010267D02*
X0035623D01*
Y0009567D01*
X0028191Y0005420D02*
X0024016D01*
X0039150Y0011550D02*
Y0000200D01*
X0020937Y0003080D02*
X0011470D01*
X0032780Y0000304D02*
Y0000200D01*
X0039080Y0011550D02*
Y0000200D01*
X0013891Y0006140D02*
X0011470D01*
X0011600Y0000200D02*
X0011470D01*
X0038900Y0003744D02*
Y0000200D01*
X0038810Y0003597D02*
Y0000200D01*
X0038720Y0003524D02*
Y0000200D01*
X0038630Y0003483D02*
Y0000200D01*
X0038270Y0000907D02*
Y0000200D01*
X0038180Y0000851D02*
Y0000200D01*
X0038090Y0000810D02*
Y0000200D01*
X0038000Y0000781D02*
Y0000200D01*
X0037910Y0000764D02*
Y0000200D01*
X0038990Y0011550D02*
Y0000200D01*
X0037730Y0000758D02*
Y0000200D01*
X0037640Y0000770D02*
Y0000200D01*
X0037550Y0000793D02*
Y0000200D01*
X0037460Y0000827D02*
Y0000200D01*
X0037370Y0000875D02*
Y0000200D01*
X0037280Y0000938D02*
Y0000200D01*
X0037190Y0001023D02*
Y0000200D01*
X0037010Y0001342D02*
Y0000200D01*
X0036920Y0011550D02*
Y0000200D01*
X0036830Y0011550D02*
Y0000200D01*
X0036740Y0011550D02*
Y0000200D01*
X0037100Y0001142D02*
Y0000200D01*
X0016785Y0006860D02*
X0015728D01*
X0036184Y0002990D02*
X0034916D01*
X0036650Y0011550D02*
Y0000200D01*
X0036032Y0000290D02*
X0032768D01*
X0039150D02*
X0036428D01*
X0036470Y0000351D02*
Y0000200D01*
X0036020Y0000304D02*
Y0000200D01*
X0035930Y0009567D02*
Y0000200D01*
X0035840Y0009567D02*
Y0000200D01*
X0035273Y0006050D02*
X0035063D01*
X0037186Y0007940D02*
X0036488D01*
X0035750Y0009567D02*
Y0000200D01*
X0035660Y0006083D02*
Y0000200D01*
X0035570Y0006010D02*
Y0000200D01*
X0035210Y0006133D02*
Y0000200D01*
X0034663Y0005870D02*
X0034387D01*
X0034572Y0005960D02*
X0034478D01*
X0016722Y0004700D02*
X0013498D01*
X0039150Y0000740D02*
X0027638D01*
X0033590Y0002956D02*
Y0000200D01*
X0035120Y0011550D02*
Y0000200D01*
X0034593Y0006680D02*
X0034457D01*
X0034022Y0005960D02*
X0033928D01*
X0034622Y0005150D02*
X0034428D01*
X0034634Y0004340D02*
X0034416D01*
X0034663Y0003620D02*
X0034387D01*
X0034186Y0006590D02*
X0033763D01*
X0016822Y0006500D02*
X0014717D01*
X0034072Y0005150D02*
X0033878D01*
X0034084Y0004340D02*
X0033866D01*
X0034113Y0003620D02*
X0033837D01*
X0033590Y0009272D02*
Y0007094D01*
X0033111Y0008210D02*
X0024666D01*
X0034760Y0001339D02*
Y0000200D01*
X0033320Y0008133D02*
Y0000200D01*
X0033230Y0008141D02*
Y0000200D01*
X0022070Y0002897D02*
Y0001537D01*
X0039150Y0002630D02*
X0032908D01*
X0033050Y0008304D02*
Y0000200D01*
X0032435Y0002540D02*
X0025936D01*
X0032870Y0008911D02*
Y0002852D01*
X0032420Y0000248D02*
Y0000200D01*
X0016656Y0004610D02*
X0013438D01*
X0032372Y0000290D02*
X0030164D01*
X0027830Y0001334D02*
Y0000200D01*
X0031631Y0001010D02*
X0025965D01*
X0031970Y0004083D02*
Y0001402D01*
X0031880Y0004091D02*
Y0001484D01*
X0031700Y0004254D02*
Y0001513D01*
X0031610Y0010185D02*
Y0001478D01*
X0031070Y0005433D02*
Y0005298D01*
X0031520Y0001113D02*
Y0000200D01*
X0031430Y0004902D02*
Y0000200D01*
X0031340Y0004848D02*
Y0000200D01*
X0037048Y0001910D02*
X0030963D01*
X0031070Y0004902D02*
Y0001857D01*
X0030980Y0005441D02*
Y0001905D01*
X0030800Y0007541D02*
Y0005795D01*
X0020652Y0006230D02*
X0014475D01*
X0028010Y0001434D02*
Y0000200D01*
X0030170Y0000297D02*
Y0000200D01*
X0017985Y0003890D02*
X0011470D01*
X0030195Y0010248D02*
Y0010055D01*
X0020363Y0000830D02*
X0018087D01*
X0030620Y0004297D02*
Y0000200D01*
X0030530Y0004216D02*
Y0000200D01*
X0030272Y0004700D02*
X0029672D01*
X0027893Y0008480D02*
X0023634D01*
X0030350Y0004187D02*
Y0000200D01*
X0019910Y0001698D02*
Y0000200D01*
X0029720Y0000313D02*
Y0000200D01*
X0029630Y0004652D02*
Y0000200D01*
X0029450Y0004582D02*
Y0000200D01*
X0019100Y0001728D02*
Y0000200D01*
X0029270Y0004652D02*
Y0000200D01*
X0029180Y0004052D02*
Y0000200D01*
X0029090Y0003998D02*
Y0000200D01*
X0029000Y0003982D02*
Y0000200D01*
X0028820Y0004052D02*
Y0000200D01*
X0028730Y0011550D02*
Y0000200D01*
X0018022Y0009560D02*
X0011470D01*
X0028640Y0005161D02*
Y0000200D01*
X0028550Y0004472D02*
Y0000200D01*
X0028460Y0004406D02*
Y0000200D01*
X0028280Y0004391D02*
Y0000200D01*
X0027572Y0001460D02*
X0025980D01*
X0028010Y0008398D02*
Y0001766D01*
X0027920Y0008452D02*
Y0001839D01*
Y0001361D02*
Y0000200D01*
X0031511Y0001370D02*
X0027937D01*
X0027560Y0003234D02*
Y0001718D01*
X0017797Y0000380D02*
X0011470D01*
X0027650Y0000372D02*
Y0000200D01*
X0027560Y0000306D02*
Y0000200D01*
X0027740Y0001339D02*
Y0000200D01*
X0027380Y0000291D02*
Y0000200D01*
X0027110Y0010748D02*
Y0006638D01*
Y0003281D02*
Y0000200D01*
X0027020Y0003733D02*
Y0000200D01*
X0026300Y0003769D02*
Y0003428D01*
X0026480Y0002983D02*
Y0000200D01*
X0032334Y0002990D02*
X0026563D01*
X0026840Y0003785D02*
Y0000200D01*
X0026750Y0003154D02*
Y0000200D01*
X0026660Y0003035D02*
Y0000200D01*
X0026210Y0003855D02*
Y0000200D01*
X0026120Y0011550D02*
Y0000200D01*
X0025670Y0011550D02*
Y0002745D01*
X0025940Y0000966D02*
Y0000200D01*
X0025850Y0000860D02*
Y0000200D01*
X0025760Y0000795D02*
Y0000200D01*
X0025670Y0000755D02*
Y0000200D01*
X0025580Y0000732D02*
Y0000200D01*
X0025490Y0000726D02*
Y0000200D01*
X0023600Y0000726D02*
Y0000200D01*
X0025220Y0000807D02*
Y0000200D01*
X0024024Y0001032D02*
Y0000726D01*
X0019280Y0001684D02*
Y0000200D01*
X0024950Y0000982D02*
Y0000200D01*
X0024860Y0000870D02*
Y0000200D01*
X0023690Y0000726D02*
Y0000200D01*
X0024680Y0000758D02*
Y0000200D01*
X0025040Y0001000D02*
Y0000200D01*
X0024500Y0000726D02*
Y0000200D01*
X0024410Y0000734D02*
Y0000200D01*
X0024320Y0000758D02*
Y0000200D01*
X0024230Y0000801D02*
Y0000200D01*
X0024770Y0000801D02*
Y0000200D01*
X0023960Y0000726D02*
Y0000200D01*
X0023870Y0000726D02*
Y0000200D01*
X0023780Y0000726D02*
Y0000200D01*
X0024590Y0000734D02*
Y0000200D01*
X0024050Y0000982D02*
Y0000200D01*
X0023510Y0000726D02*
Y0000200D01*
X0023420Y0000726D02*
Y0000200D01*
X0023330Y0000726D02*
Y0000200D01*
X0023240Y0000726D02*
Y0000200D01*
X0023060Y0003083D02*
Y0002534D01*
Y0000726D02*
Y0000200D01*
X0022880Y0003172D02*
Y0000200D01*
Y0004908D02*
Y0003528D01*
X0022790Y0004825D02*
Y0000200D01*
X0022988Y0002360D02*
X0022468D01*
X0025139Y0005690D02*
X0023868D01*
X0031761Y0004160D02*
X0029252D01*
X0022520Y0002393D02*
Y0001552D01*
X0023150Y0000726D02*
Y0000200D01*
X0021980Y0002816D02*
Y0000200D01*
X0021800Y0008287D02*
Y0004472D01*
X0016756Y0006590D02*
X0014755D01*
X0021620Y0002561D02*
Y0000200D01*
X0021530Y0002534D02*
Y0000200D01*
X0021440Y0002539D02*
Y0000200D01*
X0025234Y0005960D02*
X0021102D01*
X0021080Y0008294D02*
Y0006187D01*
X0031648Y0007310D02*
X0022928D01*
X0020990Y0002864D02*
Y0000200D01*
X0020900Y0005787D02*
Y0000200D01*
X0020720Y0000447D02*
Y0000200D01*
X0020630Y0000366D02*
Y0000200D01*
X0019847Y0001730D02*
X0019402D01*
X0018380Y0001711D02*
Y0000200D01*
X0020180Y0001752D02*
Y0000200D01*
X0020270Y0000463D02*
Y0000200D01*
X0020000Y0001682D02*
Y0000200D01*
X0017941Y0003980D02*
X0011470D01*
X0020090Y0001698D02*
Y0000200D01*
X0019460Y0001784D02*
Y0000200D01*
X0019445Y0010498D02*
Y0010305D01*
X0019730Y0004313D02*
Y0000200D01*
X0019640Y0004222D02*
Y0000200D01*
X0019550Y0004187D02*
Y0000200D01*
X0019820Y0001752D02*
Y0000200D01*
X0019190Y0001689D02*
Y0000200D01*
X0017956Y0004160D02*
X0011470D01*
X0018113Y0009470D02*
X0011470D01*
X0019010Y0001831D02*
Y0000200D01*
X0028235Y0005510D02*
X0025518D01*
X0022250Y0001137D02*
Y0000200D01*
X0018380Y0008193D02*
Y0007184D01*
X0015410Y0000422D02*
Y0000200D01*
X0018200Y0003782D02*
Y0000695D01*
X0018020Y0003852D02*
Y0000858D01*
Y0000341D02*
Y0000200D01*
X0017930Y0000333D02*
Y0000200D01*
X0018290Y0001784D02*
Y0000200D01*
X0017660Y0006636D02*
Y0000200D01*
X0013852Y0007400D02*
X0011470D01*
X0015282Y0000650D02*
X0012513D01*
X0015590Y0000385D02*
Y0000200D01*
X0017480Y0000613D02*
Y0000200D01*
X0018282Y0008390D02*
X0011470D01*
X0036200Y0002978D02*
Y0000736D01*
X0017300Y0000487D02*
Y0000200D01*
X0017570Y0006493D02*
Y0000200D01*
X0016233Y0008930D02*
X0011470D01*
X0017030Y0000597D02*
Y0000200D01*
X0016850Y0004237D02*
Y0000200D01*
X0016806Y0009830D02*
X0016114D01*
X0016490Y0008682D02*
Y0000200D01*
X0016580Y0008694D02*
Y0000200D01*
X0016310Y0008761D02*
Y0000200D01*
X0016220Y0009883D02*
Y0000200D01*
X0016130Y0009836D02*
Y0000200D01*
X0016040Y0009811D02*
Y0000200D01*
X0015950Y0009806D02*
Y0000200D01*
X0015298Y0000560D02*
X0012478D01*
X0013035Y0006410D02*
X0011470D01*
X0027282Y0004970D02*
X0022911D01*
X0015822Y0009830D02*
X0015130D01*
X0015770Y0000497D02*
Y0000200D01*
X0015680Y0000416D02*
Y0000200D01*
X0015320Y0000513D02*
Y0000200D01*
X0015230Y0009879D02*
Y0000200D01*
X0015140Y0009833D02*
Y0000200D01*
X0015050Y0009810D02*
Y0000200D01*
X0014960Y0009806D02*
Y0000200D01*
X0014870Y0009820D02*
Y0000200D01*
X0019280Y0006397D02*
Y0004602D01*
X0014838Y0009830D02*
X0014445D01*
X0014780Y0009855D02*
Y0000200D01*
X0014690Y0005454D02*
Y0000200D01*
X0014510Y0005288D02*
Y0000200D01*
X0014600Y0005352D02*
Y0000200D01*
X0014420Y0005248D02*
Y0000200D01*
X0014330Y0005226D02*
Y0000200D01*
X0014240Y0005220D02*
Y0000200D01*
X0014150Y0005229D02*
Y0000200D01*
X0012080Y0000493D02*
Y0000200D01*
X0017998Y0006860D02*
X0017614D01*
X0013790Y0005487D02*
Y0000200D01*
X0020266Y0000470D02*
X0018184D01*
X0019820Y0007652D02*
Y0006748D01*
X0013520Y0006297D02*
Y0000200D01*
X0013430Y0004602D02*
Y0000200D01*
X0013070Y0004602D02*
Y0000200D01*
X0012980Y0011550D02*
Y0000200D01*
X0012890Y0011550D02*
Y0000200D01*
X0012800Y0011550D02*
Y0000200D01*
X0012710Y0011550D02*
Y0000200D01*
X0012620Y0011550D02*
Y0000200D01*
X0012440Y0011550D02*
Y0000888D01*
X0012350Y0011550D02*
Y0000948D01*
X0011470Y0011550D02*
Y0000200D01*
X0011540Y0000584D02*
Y0000200D01*
X0012260Y0011550D02*
Y0000967D01*
X0011990Y0000631D02*
Y0000200D01*
X0011900Y0000528D02*
Y0000200D01*
X0011810Y0000489D02*
Y0000200D01*
X0011720Y0000484D02*
Y0000200D01*
X0023130Y0001880D02*
X0023500Y0002250D01*
X0039150Y0011550D02*
X0011470D01*
X0039150Y0011540D02*
X0011470D01*
X0039150Y0011450D02*
X0011470D01*
X0018920Y0003897D02*
Y0000200D01*
X0039150Y0011360D02*
X0011470D01*
X0037190Y0005589D02*
Y0002126D01*
X0018555Y0011180D02*
X0011470D01*
X0029540Y0004598D02*
Y0000200D01*
X0018555Y0011090D02*
X0011470D01*
X0018555Y0011000D02*
X0011470D01*
X0018555Y0010910D02*
X0011470D01*
X0018555Y0010820D02*
X0011470D01*
X0013700Y0009805D02*
Y0000200D01*
X0016256Y0008840D02*
X0011470D01*
X0013555Y0010460D02*
X0011470D01*
X0013555Y0010370D02*
X0011470D01*
X0013555Y0010190D02*
X0011470D01*
X0013555Y0010100D02*
X0011470D01*
X0013555Y0010010D02*
X0011470D01*
X0030080Y0001544D02*
Y0000684D01*
X0013555Y0010640D02*
X0011470D01*
X0018016Y0009830D02*
X0017099D01*
X0017985Y0009740D02*
X0011470D01*
X0017987Y0009650D02*
X0011470D01*
X0029810Y0000222D02*
Y0000200D01*
X0013610Y0009805D02*
Y0000200D01*
X0016404Y0009200D02*
X0011470D01*
X0016285Y0009110D02*
X0011470D01*
X0016241Y0009020D02*
X0011470D01*
X0016400Y0008702D02*
Y0000200D01*
X0018361Y0008210D02*
X0014513D01*
X0016322Y0008750D02*
X0011470D01*
X0018486Y0008660D02*
X0011470D01*
X0018343Y0008570D02*
X0011470D01*
X0018294Y0008480D02*
X0011470D01*
X0013731Y0006860D02*
X0011470D01*
X0013987Y0008210D02*
X0011470D01*
X0013870Y0008120D02*
X0011470D01*
X0013800Y0008030D02*
X0011470D01*
X0013755Y0007940D02*
X0011470D01*
X0018302Y0008300D02*
X0011470D01*
X0013720Y0007760D02*
X0011470D01*
X0013726Y0007670D02*
X0011470D01*
X0013748Y0007580D02*
X0011470D01*
X0013788Y0007490D02*
X0011470D01*
X0013763Y0005960D02*
X0011470D01*
X0014005Y0007220D02*
X0011470D01*
X0013880Y0007130D02*
X0011470D01*
X0013806Y0007040D02*
X0011470D01*
X0013759Y0006950D02*
X0011470D01*
X0038248Y0005805D02*
X0038055D01*
X0013729Y0007850D02*
X0011470D01*
X0023086Y0009290D02*
X0011470D01*
X0013147Y0006230D02*
X0011470D01*
X0013163Y0006680D02*
X0011470D01*
X0013954Y0007310D02*
X0011470D01*
X0013037Y0006500D02*
X0011470D01*
X0013340Y0004548D02*
Y0000200D01*
X0013072Y0006590D02*
X0011470D01*
X0038360Y0003486D02*
Y0002168D01*
X0038270Y0003530D02*
Y0002242D01*
X0016633Y0004520D02*
X0011470D01*
X0013734Y0005870D02*
X0011470D01*
X0013721Y0005780D02*
X0011470D01*
X0013723Y0005690D02*
X0011470D01*
X0013742Y0005600D02*
X0011470D01*
X0013777Y0005510D02*
X0011470D01*
X0013835Y0005420D02*
X0011470D01*
X0023484D02*
X0014665D01*
X0023511Y0005330D02*
X0014573D01*
X0028183D02*
X0023989D01*
X0029360Y0004598D02*
Y0000200D01*
X0033770Y0002941D02*
Y0000200D01*
X0028206Y0005240D02*
X0023916D01*
X0019280Y0004297D02*
Y0002216D01*
X0021170Y0002764D02*
Y0000200D01*
X0016760Y0004272D02*
Y0000200D01*
X0038090Y0003776D02*
Y0002339D01*
X0013043Y0004970D02*
X0011470D01*
X0012982Y0004790D02*
X0011470D01*
X0033680Y0002933D02*
Y0000200D01*
X0021682Y0004250D02*
X0021422D01*
X0016685Y0004340D02*
X0011470D01*
X0016804Y0004250D02*
X0011470D01*
X0017933Y0004070D02*
X0011470D01*
X0024680Y0003297D02*
Y0002742D01*
X0034130Y0002961D02*
Y0000200D01*
X0021911Y0003710D02*
X0011470D01*
X0022970Y0003106D02*
Y0000200D01*
X0024693Y0003620D02*
X0011470D01*
X0022882Y0003530D02*
X0011470D01*
X0020972Y0003170D02*
X0011470D01*
X0011502Y0000650D02*
X0011470D01*
X0023060Y0001966D02*
Y0001774D01*
X0013555Y0009920D02*
X0011470D01*
X0027290Y0010748D02*
Y0010666D01*
X0037223Y0009650D02*
X0036630D01*
X0017998Y0007040D02*
X0015764D01*
X0015235D02*
X0014693D01*
X0027386Y0000290D02*
X0011470D01*
X0021047Y0002810D02*
X0011470D01*
X0022231Y0002360D02*
X0011470D01*
X0018028Y0005600D02*
X0014758D01*
X0017210Y0000485D02*
Y0000200D01*
X0024140Y0000870D02*
Y0000200D01*
X0018237Y0002000D02*
X0011470D01*
X0022160Y0001172D02*
Y0000200D01*
X0022250Y0003678D02*
Y0002848D01*
X0018347Y0001730D02*
X0011470D01*
X0022181Y0001640D02*
X0011470D01*
X0022078Y0001550D02*
X0011470D01*
X0022039Y0001460D02*
X0011470D01*
X0022134Y0001190D02*
X0011470D01*
X0011630Y0000511D02*
Y0000200D01*
X0012113Y0000470D02*
X0011470D01*
X0029854Y0000200D02*
X0011600D01*
X0012022Y0000560D02*
X0011938D01*
X0011543Y0000920D02*
X0011470D01*
X0011482Y0000740D02*
X0011470D01*
X0037820Y0000756D02*
Y0000200D01*
X0024320Y0001758D02*
Y0001742D01*
X0024230Y0001801D02*
Y0001699D01*
X0024140Y0001870D02*
Y0001630D01*
X0025130Y0000879D02*
Y0000200D01*
X0024290Y0001730D02*
X0024024D01*
X0024150Y0001640D02*
X0024024D01*
X0024071Y0001550D02*
X0024024D01*
X0031610Y0001022D02*
Y0000200D01*
X0032285Y0001460D02*
X0031916D01*
X0032241Y0001370D02*
X0031989D01*
X0024034Y0001010D02*
X0024024D01*
X0024093Y0000920D02*
X0024024D01*
X0024381Y0000740D02*
X0024024D01*
X0023960Y0002000D02*
Y0001774D01*
X0023870Y0001879D02*
Y0001774D01*
X0023780Y0001807D02*
Y0001774D01*
Y0005184D02*
Y0002692D01*
X0023282Y0001774D02*
X0022976D01*
X0023016Y0006320D02*
X0020637D01*
X0022340Y0001135D02*
Y0000200D01*
X0023240Y0001795D02*
Y0001774D01*
X0023150Y0001860D02*
Y0001774D01*
X0021800Y0011550D02*
Y0010972D01*
X0021710Y0011550D02*
Y0010994D01*
X0021620Y0011550D02*
Y0011088D01*
X0021530Y0011550D02*
Y0011140D01*
X0021440Y0011550D02*
Y0011168D01*
X0021350Y0011550D02*
Y0011175D01*
X0021260Y0011550D02*
Y0011162D01*
X0021170Y0011550D02*
Y0011129D01*
X0029810Y0001611D02*
Y0000678D01*
X0022430Y0004920D02*
Y0002855D01*
X0027363Y0010730D02*
X0022217D01*
X0027237Y0010550D02*
X0022128D01*
X0027235Y0010460D02*
X0021673D01*
X0021260Y0002681D02*
Y0000200D01*
X0020990Y0011550D02*
Y0010955D01*
X0020900Y0011550D02*
Y0011023D01*
X0020810Y0011550D02*
Y0011104D01*
X0020720Y0011550D02*
Y0011149D01*
X0020630Y0011550D02*
Y0011171D01*
X0020540Y0011550D02*
Y0011173D01*
X0020450Y0011550D02*
Y0011156D01*
X0020360Y0011550D02*
Y0011117D01*
X0021080Y0011550D02*
Y0011068D01*
X0021107Y0011090D02*
X0020830D01*
X0027470Y0010234D02*
Y0007016D01*
X0020987Y0010550D02*
X0020950D01*
X0021051Y0010460D02*
X0020885D01*
X0020270Y0011550D02*
Y0011046D01*
X0020180Y0011550D02*
Y0010912D01*
X0020090Y0011550D02*
Y0011048D01*
X0020000Y0011550D02*
Y0011118D01*
X0019910Y0011550D02*
Y0011157D01*
X0019820Y0011550D02*
Y0011174D01*
X0019730Y0011550D02*
Y0011171D01*
X0019640Y0011550D02*
Y0011148D01*
X0019550Y0011550D02*
Y0011102D01*
X0020810Y0005785D02*
Y0000200D01*
X0020200Y0010550D02*
X0020162D01*
X0020264Y0010460D02*
X0020098D01*
X0019445Y0011195D02*
Y0011001D01*
X0019460Y0011550D02*
Y0011021D01*
X0019370Y0011550D02*
Y0011195D01*
X0019280Y0011550D02*
Y0011195D01*
X0019190Y0011550D02*
Y0011195D01*
X0019100Y0011550D02*
Y0011195D01*
X0019010Y0011550D02*
Y0011195D01*
X0018920Y0011550D02*
Y0011195D01*
X0018830Y0011550D02*
Y0011195D01*
X0018740Y0011550D02*
Y0011195D01*
X0028820Y0010802D02*
Y0004448D01*
X0018235Y0001910D02*
X0011470D01*
X0019532Y0011090D02*
X0019445D01*
X0020320D02*
X0020042D01*
X0020231Y0011000D02*
X0020131D01*
X0021018D02*
X0020918D01*
X0021854D02*
X0021706D01*
X0026948Y0011090D02*
X0021617D01*
X0026932Y0011000D02*
X0022045D01*
X0019476Y0010460D02*
X0019445D01*
X0027290Y0011550D02*
Y0011252D01*
X0031700Y0011550D02*
Y0010699D01*
X0031610Y0011550D02*
Y0010815D01*
X0031520Y0011550D02*
Y0010877D01*
X0031430Y0011550D02*
Y0010912D01*
X0031340Y0011550D02*
Y0010925D01*
X0031250Y0011550D02*
Y0010918D01*
X0031160Y0011550D02*
Y0010892D01*
X0031070Y0011550D02*
Y0010840D01*
X0037330Y0010910D02*
X0031436D01*
X0037221Y0010820D02*
X0031604D01*
X0037142Y0010730D02*
X0031682D01*
X0033297Y0010370D02*
X0031729D01*
X0033216Y0010280D02*
X0031688D01*
X0033185Y0010190D02*
X0031615D01*
X0030980Y0011550D02*
Y0010748D01*
X0030890Y0011550D02*
Y0010737D01*
X0030800Y0011550D02*
Y0010834D01*
X0030710Y0011550D02*
Y0010888D01*
X0030620Y0011550D02*
Y0010917D01*
X0030530Y0011550D02*
Y0010925D01*
X0030440Y0011550D02*
Y0010914D01*
X0030350Y0011550D02*
Y0010881D01*
X0021063Y0003260D02*
X0011470D01*
X0031213Y0010910D02*
X0030649D01*
X0030961Y0010280D02*
X0030901D01*
X0031034Y0010190D02*
X0030828D01*
X0030195Y0010945D02*
Y0010751D01*
X0030260Y0011550D02*
Y0010822D01*
X0030170Y0011550D02*
Y0010945D01*
X0030080Y0011550D02*
Y0010945D01*
X0029990Y0011550D02*
Y0010945D01*
X0029900Y0011550D02*
Y0010945D01*
X0029810Y0011550D02*
Y0010945D01*
X0029720Y0011550D02*
Y0010945D01*
X0029630Y0011550D02*
Y0010945D01*
X0029540Y0011550D02*
Y0010945D01*
X0029450Y0011550D02*
Y0010945D01*
X0030710Y0001461D02*
Y0000200D01*
X0030425Y0010910D02*
X0030195D01*
X0030257Y0010820D02*
X0030195D01*
X0031045D02*
X0030817D01*
X0030967Y0010730D02*
X0030895D01*
X0037083Y0010640D02*
X0031726D01*
X0037039Y0010550D02*
X0031747D01*
X0037007Y0010460D02*
X0031748D01*
X0033500Y0003022D02*
Y0000200D01*
X0030246Y0010190D02*
X0030195D01*
X0038900Y0004532D02*
Y0004031D01*
X0038810Y0004384D02*
Y0004178D01*
X0038720Y0004312D02*
Y0004251D01*
X0038270Y0004318D02*
Y0004245D01*
X0038180Y0004395D02*
Y0004167D01*
X0038090Y0004563D02*
Y0003999D01*
X0039150Y0003080D02*
X0036589D01*
X0039150Y0004250D02*
X0038722D01*
X0039150Y0004160D02*
X0038826D01*
X0039150Y0004070D02*
X0038884D01*
X0039150Y0003980D02*
X0038915D01*
X0039150Y0003890D02*
X0038925D01*
X0039150Y0003800D02*
X0038916D01*
X0039150Y0003710D02*
X0038886D01*
X0039150Y0003620D02*
X0038830D01*
X0038900Y0005319D02*
Y0004819D01*
X0038810Y0005172D02*
Y0004966D01*
X0038720Y0005099D02*
Y0005039D01*
X0038270Y0005105D02*
Y0005033D01*
X0038180Y0005183D02*
Y0004955D01*
X0038090Y0005351D02*
Y0004787D01*
X0039150Y0003530D02*
X0038729D01*
X0039150Y0004970D02*
X0038806D01*
X0039150Y0004880D02*
X0038872D01*
X0039150Y0004790D02*
X0038909D01*
X0039150Y0004700D02*
X0038924D01*
X0039150Y0004610D02*
X0038920D01*
X0039150Y0004520D02*
X0038895D01*
X0039150Y0004430D02*
X0038847D01*
X0038900Y0005805D02*
Y0005606D01*
X0038810Y0005805D02*
Y0005753D01*
X0038180Y0005805D02*
Y0005742D01*
X0038090Y0005805D02*
Y0005574D01*
X0039150Y0004340D02*
X0038761D01*
X0039150Y0005780D02*
X0038783D01*
X0039150Y0005690D02*
X0038859D01*
X0039150Y0005600D02*
X0038902D01*
X0039150Y0005510D02*
X0038922D01*
X0039150Y0005420D02*
X0038923D01*
X0039150Y0005330D02*
X0038904D01*
X0039150Y0005240D02*
X0038862D01*
X0013250Y0004532D02*
Y0000200D01*
X0038945Y0005805D02*
X0038751D01*
X0033770Y0011550D02*
Y0007108D01*
X0039150Y0006680D02*
X0038945D01*
X0039150Y0006590D02*
X0038945D01*
X0039150Y0006500D02*
X0038945D01*
X0039150Y0006410D02*
X0038945D01*
X0039150Y0006320D02*
X0038945D01*
X0039150Y0006230D02*
X0038945D01*
X0039150Y0006140D02*
X0038945D01*
X0039150Y0006050D02*
X0038945D01*
X0039150Y0005960D02*
X0038945D01*
X0038900Y0011550D02*
Y0006695D01*
X0038810Y0011550D02*
Y0006695D01*
X0038720Y0011550D02*
Y0006695D01*
X0038540Y0009895D02*
Y0006695D01*
X0038450Y0009744D02*
Y0006695D01*
X0038360Y0009643D02*
Y0006695D01*
X0038270Y0009568D02*
Y0006695D01*
X0038180Y0009513D02*
Y0006695D01*
X0038090Y0009472D02*
Y0006695D01*
X0039150Y0005060D02*
X0038681D01*
X0033230Y0011550D02*
Y0010302D01*
X0038540Y0011550D02*
Y0010577D01*
X0038450Y0011550D02*
Y0010728D01*
X0038360Y0011550D02*
Y0010829D01*
X0038270Y0011550D02*
Y0010903D01*
X0038180Y0011550D02*
Y0010959D01*
X0038090Y0011550D02*
Y0011000D01*
X0038000Y0011550D02*
Y0011029D01*
X0037910Y0011550D02*
Y0011047D01*
X0037820Y0011550D02*
Y0011054D01*
X0037730Y0011550D02*
Y0011052D01*
X0037640Y0011550D02*
Y0011040D01*
X0037550Y0011550D02*
Y0011017D01*
X0037460Y0011550D02*
Y0010983D01*
X0037370Y0011550D02*
Y0010936D01*
X0037280Y0011550D02*
Y0010872D01*
X0037190Y0011550D02*
Y0010787D01*
X0037100Y0011550D02*
Y0010669D01*
X0037010Y0011550D02*
Y0010468D01*
X0039150Y0011000D02*
X0038090D01*
X0039150Y0010910D02*
X0038260D01*
X0039150Y0010820D02*
X0038369D01*
X0039150Y0010730D02*
X0038448D01*
X0039150Y0010640D02*
X0038508D01*
X0039150Y0010550D02*
X0038552D01*
X0039150Y0010460D02*
X0038583D01*
X0039150Y0010370D02*
X0038603D01*
X0039150Y0010280D02*
X0038613D01*
X0039150Y0009560D02*
X0038258D01*
X0039150Y0009470D02*
X0038085D01*
X0039150Y0010190D02*
X0038613D01*
X0039150Y0010100D02*
X0038603D01*
X0039150Y0010010D02*
X0038582D01*
X0035660Y0011550D02*
Y0010267D01*
X0039150Y0009830D02*
X0038506D01*
X0039150Y0009740D02*
X0038447D01*
X0039150Y0002990D02*
X0036516D01*
X0039150Y0002360D02*
X0038028D01*
X0039150Y0002270D02*
X0038228D01*
X0039150Y0002180D02*
X0038347D01*
X0039150Y0002090D02*
X0038432D01*
X0039150Y0002000D02*
X0038495D01*
X0039150Y0001910D02*
X0038542D01*
X0039150Y0001820D02*
X0038577D01*
X0039150Y0001730D02*
X0038599D01*
X0039150Y0001640D02*
X0038612D01*
X0039150Y0001550D02*
X0038614D01*
X0039150Y0001460D02*
X0038606D01*
X0039150Y0001370D02*
X0038588D01*
X0039150Y0001280D02*
X0038559D01*
X0039150Y0001190D02*
X0038518D01*
X0039150Y0001100D02*
X0038463D01*
X0039150Y0001010D02*
X0038388D01*
X0039150Y0000920D02*
X0038287D01*
X0039150Y0000830D02*
X0038136D01*
X0038540Y0001234D02*
Y0000200D01*
X0038450Y0001082D02*
Y0000200D01*
X0038360Y0000981D02*
Y0000200D01*
X0038540Y0003464D02*
Y0001915D01*
X0038450Y0003465D02*
Y0002067D01*
X0038000Y0009443D02*
Y0002368D01*
X0037910Y0009425D02*
Y0002385D01*
X0037820Y0009417D02*
Y0002393D01*
X0037730Y0009419D02*
Y0002391D01*
X0037640Y0009432D02*
Y0002379D01*
X0037550Y0009454D02*
Y0002356D01*
X0036983Y0005870D02*
X0034937D01*
X0037006Y0005960D02*
X0035028D01*
X0037460Y0005684D02*
Y0002322D01*
X0037370Y0005611D02*
Y0002274D01*
X0037280Y0005584D02*
Y0002211D01*
X0039150Y0009920D02*
X0038551D01*
X0036560Y0011550D02*
Y0010267D01*
X0036470Y0011550D02*
Y0010267D01*
X0036380Y0011550D02*
Y0010267D01*
X0036290Y0011550D02*
Y0010267D01*
X0036200Y0011550D02*
Y0010267D01*
X0036110Y0011550D02*
Y0010267D01*
X0036020Y0011550D02*
Y0010267D01*
X0035930Y0011550D02*
Y0010267D01*
X0035840Y0011550D02*
Y0010267D01*
X0035750Y0011550D02*
Y0010267D01*
X0013555Y0009830D02*
X0011470D01*
X0036977Y0010190D02*
X0036630D01*
X0036988Y0010100D02*
X0036630D01*
X0037008Y0010010D02*
X0036630D01*
X0037040Y0009920D02*
X0036630D01*
X0037084Y0009830D02*
X0036630D01*
X0037143Y0009740D02*
X0036630D01*
X0018097Y0009920D02*
X0017251D01*
X0023130Y0002620D02*
X0023500Y0002250D01*
X0023870Y0001880D02*
X0023500Y0002250D01*
X0013555Y0010280D02*
X0011470D01*
X0023870Y0002620D02*
X0023500Y0002250D01*
X0011540Y0011550D02*
Y0000916D01*
X0013610Y0011550D02*
Y0010695D01*
X0020966Y0002900D02*
X0011470D01*
X0020935Y0002990D02*
X0011470D01*
X0023247Y0008570D02*
X0022017D01*
X0027147Y0006230D02*
X0024552D01*
X0024335Y0009740D02*
X0024113D01*
X0025281Y0006410D02*
X0024664D01*
X0025139Y0006590D02*
X0024663D01*
X0024166Y0006320D02*
X0023484D01*
X0024770Y0009747D02*
Y0007087D01*
X0019272Y0006410D02*
X0014656D01*
X0011561Y0000560D02*
X0011470D01*
X0011494Y0000830D02*
X0011470D01*
X0022111Y0002720D02*
X0021755D01*
X0032234Y0003170D02*
X0027487D01*
X0030222Y0004250D02*
X0029268D01*
X0022304Y0006950D02*
X0018518D01*
X0019235Y0006590D02*
X0017644D01*
X0019347Y0006770D02*
X0018448D01*
X0018555Y0010730D02*
X0011470D01*
X0024291Y0009830D02*
X0024257D01*
X0023843D02*
X0022437D01*
X0022160Y0006581D02*
Y0004416D01*
X0031702Y0007220D02*
X0022837D01*
X0026756Y0003890D02*
X0026679D01*
X0022894Y0009470D02*
X0022534D01*
X0022250Y0007654D02*
Y0007245D01*
X0021698Y0004160D02*
X0021318D01*
X0024320Y0007802D02*
Y0007089D01*
X0024230Y0009802D02*
Y0007116D01*
X0022943Y0009380D02*
X0022452D01*
X0022222Y0006500D02*
X0020763D01*
X0028087Y0004700D02*
X0019595D01*
X0021852Y0003800D02*
X0018795D01*
X0018740Y0001831D02*
Y0000200D01*
X0028354Y0005600D02*
X0025622D01*
X0029584Y0006590D02*
X0027714D01*
X0030122Y0006500D02*
X0027595D01*
X0032087Y0005600D02*
X0031298D01*
X0032085Y0005510D02*
X0031238D01*
X0031250Y0010081D02*
Y0005878D01*
X0031160Y0010108D02*
Y0005944D01*
X0031070Y0010160D02*
Y0005967D01*
X0031430Y0010088D02*
Y0005298D01*
X0031340Y0010075D02*
Y0005352D01*
X0025178Y0005600D02*
X0023972D01*
X0031250Y0005522D02*
Y0005368D01*
X0031160Y0005456D02*
Y0005352D01*
X0032197Y0005330D02*
X0031387D01*
X0033456Y0005240D02*
X0031478D01*
X0032054Y0005150D02*
X0031513D01*
X0031935Y0005060D02*
X0031514D01*
X0031891Y0004970D02*
X0031484D01*
X0031883Y0004880D02*
X0031402D01*
X0032330Y0005283D02*
Y0005098D01*
X0032240Y0005306D02*
Y0005152D01*
X0032150Y0005372D02*
Y0005168D01*
Y0007304D02*
Y0005728D01*
X0032060Y0007185D02*
Y0005152D01*
X0033522Y0005150D02*
X0032245D01*
X0036111Y0005060D02*
X0032364D01*
X0038194Y0004970D02*
X0032408D01*
X0038127Y0004880D02*
X0032417D01*
X0033581Y0004790D02*
X0032394D01*
X0033478Y0004700D02*
X0032328D01*
X0032690Y0008889D02*
Y0003388D01*
X0032600Y0008928D02*
Y0005645D01*
X0014510Y0011550D02*
Y0008212D01*
X0032420Y0011550D02*
Y0005808D01*
X0032330Y0011550D02*
Y0005817D01*
X0023137Y0008300D02*
X0021845D01*
X0037010Y0005731D02*
Y0001807D01*
X0033441Y0005420D02*
X0032584D01*
X0033433Y0005330D02*
X0032502D01*
X0036991Y0005780D02*
X0032487D01*
X0033604Y0005600D02*
X0032613D01*
X0033485Y0005510D02*
X0032614D01*
X0022250Y0011550D02*
Y0009863D01*
X0022160Y0011550D02*
Y0010916D01*
X0022070Y0011550D02*
Y0010989D01*
X0021980Y0011550D02*
Y0011016D01*
X0021890Y0011550D02*
Y0011011D01*
X0027002Y0011180D02*
X0019445D01*
X0027272Y0010640D02*
X0022194D01*
X0027290Y0006182D02*
Y0005033D01*
X0024140Y0009748D02*
Y0007111D01*
X0024050Y0009732D02*
Y0008378D01*
X0027261Y0000740D02*
X0025619D01*
X0023780Y0009413D02*
Y0008458D01*
X0023263Y0008120D02*
X0014629D01*
X0024680Y0007802D02*
Y0007105D01*
X0024261Y0008120D02*
X0024105D01*
X0024234Y0008030D02*
X0024057D01*
X0023552Y0007670D02*
X0022852D01*
X0027844Y0008570D02*
X0023552D01*
X0033044Y0008480D02*
X0028307D01*
X0012994Y0004880D02*
X0011470D01*
X0024050Y0006628D02*
Y0002518D01*
X0021350Y0002578D02*
Y0000200D01*
X0023870Y0007611D02*
Y0005689D01*
X0023780Y0007584D02*
Y0005716D01*
X0025220Y0005552D02*
Y0002692D01*
X0028370Y0004383D02*
Y0000200D01*
X0031160Y0004848D02*
Y0001713D01*
X0020347Y0000380D02*
X0018102D01*
X0025134Y0005780D02*
X0018916D01*
X0025130Y0006716D02*
Y0003587D01*
X0024410Y0007748D02*
Y0007038D01*
X0025040Y0006685D02*
Y0003678D01*
X0024770Y0006643D02*
Y0003684D01*
X0033472Y0003710D02*
X0024963D01*
X0027197Y0003620D02*
X0025107D01*
X0027116Y0003530D02*
X0025155D01*
X0026390Y0003006D02*
Y0000200D01*
X0020741Y0008480D02*
X0018805D01*
X0026311Y0003440D02*
X0025167D01*
X0018084Y0005960D02*
X0014736D01*
X0018200Y0005487D02*
Y0004318D01*
X0018110Y0005522D02*
Y0004302D01*
X0018020Y0005613D02*
Y0004248D01*
X0018522Y0004250D02*
X0018378D01*
X0018456Y0004160D02*
X0018444D01*
X0018485Y0003890D02*
X0018414D01*
X0018604Y0003800D02*
X0018295D01*
X0030350Y0010118D02*
Y0009678D01*
X0030260Y0010178D02*
Y0009744D01*
X0030170Y0010055D02*
Y0009767D01*
X0030080Y0010055D02*
Y0009758D01*
X0029990Y0010055D02*
Y0009714D01*
X0029900Y0010055D02*
Y0009595D01*
X0033410Y0008156D02*
Y0000200D01*
X0033331Y0009740D02*
X0030268D01*
X0033228Y0009650D02*
X0030372D01*
X0033189Y0009560D02*
X0030411D01*
X0033184Y0009470D02*
X0030416D01*
X0032510Y0009031D02*
Y0005764D01*
X0032240Y0011550D02*
Y0005794D01*
X0039150Y0003440D02*
X0036468D01*
X0039150Y0003350D02*
X0036572D01*
X0039150Y0003260D02*
X0036611D01*
X0039150Y0003170D02*
X0036616D01*
X0032870Y0002547D02*
Y0000200D01*
X0033500Y0008222D02*
Y0007028D01*
X0036560Y0003736D02*
Y0003366D01*
X0036470Y0003593D02*
Y0003439D01*
X0036380Y0003544D02*
Y0003466D01*
X0036290Y0003532D02*
Y0003461D01*
X0036200Y0003552D02*
Y0003422D01*
X0017120Y0006461D02*
Y0004652D01*
X0017030Y0006434D02*
Y0004734D01*
X0016940Y0006439D02*
Y0004764D01*
X0016850Y0006478D02*
Y0004763D01*
X0016760Y0006581D02*
Y0004728D01*
X0016670Y0008743D02*
Y0004637D01*
X0019404Y0004700D02*
X0017078D01*
X0019285Y0004610D02*
X0017144D01*
X0019241Y0004520D02*
X0017167D01*
X0019233Y0004430D02*
X0017158D01*
X0019256Y0004340D02*
X0017114D01*
X0018470Y0001684D02*
Y0000200D01*
X0018920Y0010305D02*
Y0004202D01*
X0018830Y0005552D02*
Y0004284D01*
X0018740Y0005498D02*
Y0004314D01*
X0018650Y0005482D02*
Y0004313D01*
X0018560Y0005498D02*
Y0004278D01*
X0018470Y0005552D02*
Y0004187D01*
X0019322Y0004250D02*
X0018878D01*
X0021081Y0004160D02*
X0018944D01*
X0021890Y0002785D02*
Y0000200D01*
X0026570Y0002991D02*
Y0000200D01*
X0021844Y0003980D02*
X0018958D01*
X0021832Y0003890D02*
X0018914D01*
X0032597Y0008930D02*
X0016767D01*
X0019820Y0010326D02*
Y0008048D01*
X0019730Y0006413D02*
Y0004587D01*
X0019640Y0006322D02*
Y0004678D01*
X0019550Y0006287D02*
Y0004713D01*
X0019460Y0006285D02*
Y0004714D01*
X0028190Y0004435D02*
Y0000200D01*
X0021034Y0004610D02*
X0019714D01*
X0020961Y0004520D02*
X0019758D01*
X0020934Y0004430D02*
X0019767D01*
X0020939Y0004340D02*
X0019744D01*
X0020978Y0004250D02*
X0019678D01*
X0022672Y0010010D02*
X0017327D01*
X0018740Y0010305D02*
Y0008588D01*
X0018650Y0010305D02*
Y0008648D01*
X0039150Y0007130D02*
X0025198D01*
X0018380Y0009466D02*
Y0008607D01*
X0018470Y0008144D02*
Y0007102D01*
X0021710Y0002634D02*
Y0000200D01*
Y0008285D02*
Y0004368D01*
X0027832Y0008660D02*
X0021994D01*
X0028197Y0004430D02*
X0022148D01*
X0023172Y0008210D02*
X0018738D01*
X0017120Y0009838D02*
Y0006939D01*
X0017030Y0009812D02*
Y0006966D01*
X0016940Y0009805D02*
Y0006961D01*
X0016850Y0009817D02*
Y0006922D01*
X0016760Y0008886D02*
Y0006818D01*
X0017304Y0006950D02*
X0017095D01*
X0017222Y0006500D02*
X0017178D01*
X0025281Y0005510D02*
X0024011D01*
X0018830Y0010305D02*
Y0005948D01*
X0022828Y0003440D02*
X0011470D01*
X0018740Y0008211D02*
Y0006002D01*
X0018650Y0008152D02*
Y0006018D01*
X0018560Y0008132D02*
Y0006002D01*
X0030890Y0005485D02*
Y0001917D01*
X0032690Y0000231D02*
Y0000200D01*
X0022406Y0004970D02*
X0013457D01*
X0023631Y0005690D02*
X0018911D01*
X0023528Y0005600D02*
X0018872D01*
X0018131Y0005510D02*
X0014722D01*
X0019863Y0002180D02*
X0019387D01*
X0019772Y0002090D02*
X0019478D01*
X0019737Y0002000D02*
X0019513D01*
X0019735Y0001910D02*
X0019514D01*
X0019766Y0001820D02*
X0019484D01*
X0019370Y0001711D02*
Y0000200D01*
X0019460Y0004185D02*
Y0002116D01*
X0019370Y0004216D02*
Y0002189D01*
X0019190Y0010305D02*
Y0002211D01*
X0019100Y0010305D02*
Y0002172D01*
X0019010Y0010305D02*
Y0002068D01*
X0022637Y0010100D02*
X0017371D01*
X0029270Y0009761D02*
Y0005448D01*
X0029180Y0009734D02*
Y0004448D01*
X0029090Y0009739D02*
Y0004502D01*
X0029000Y0009778D02*
Y0004518D01*
X0028085Y0004610D02*
X0021366D01*
X0030133Y0004430D02*
X0029198D01*
X0030156Y0004340D02*
X0029252D01*
X0031702Y0004250D02*
X0030578D01*
X0033547Y0004070D02*
X0029198D01*
X0024140Y0006589D02*
Y0006513D01*
X0024334Y0008210D02*
X0024117D01*
X0024590Y0007748D02*
Y0007117D01*
X0024500Y0007732D02*
Y0007098D01*
X0024011Y0007040D02*
X0022744D01*
X0027200Y0003822D02*
Y0003622D01*
X0023952Y0006950D02*
X0022678D01*
X0030170Y0006066D02*
Y0004587D01*
X0025220Y0006452D02*
Y0005948D01*
X0025134Y0006680D02*
X0024807D01*
X0025178Y0006500D02*
X0024663D01*
X0015500Y0011550D02*
Y0007268D01*
X0017660Y0011550D02*
Y0006763D01*
X0017570Y0011550D02*
Y0006907D01*
X0017390Y0010169D02*
Y0006967D01*
X0017300Y0009972D02*
Y0006948D01*
X0017210Y0009887D02*
Y0006888D01*
X0022241Y0007220D02*
X0015652D01*
X0024680Y0006594D02*
Y0003602D01*
X0018290Y0008336D02*
Y0007214D01*
X0024140Y0006386D02*
Y0002630D01*
X0018290Y0006685D02*
Y0006014D01*
X0019820Y0006352D02*
Y0002148D01*
X0021440Y0010332D02*
Y0004518D01*
X0021350Y0010325D02*
Y0004622D01*
X0021260Y0008486D02*
Y0004661D01*
X0025161Y0005870D02*
X0021048D01*
X0020652D02*
X0018889D01*
X0022391Y0005060D02*
X0013313D01*
X0022460Y0004880D02*
X0013505D01*
X0028910Y0003998D02*
Y0000200D01*
X0021752Y0004070D02*
X0018967D01*
X0021752Y0004430D02*
X0021466D01*
X0021698Y0004340D02*
X0021461D01*
X0037202Y0001010D02*
X0031868D01*
X0031584Y0001460D02*
X0031088D01*
X0034466Y0001730D02*
X0031155D01*
X0034435Y0001640D02*
X0031167D01*
X0032420Y0002944D02*
Y0002837D01*
X0028100Y0008382D02*
Y0004745D01*
X0027647Y0001820D02*
X0025799D01*
X0025310Y0000762D02*
Y0000200D01*
X0026948Y0010910D02*
X0022164D01*
X0020990Y0005822D02*
Y0004566D01*
X0027650Y0004722D02*
Y0001822D01*
X0032330Y0000351D02*
Y0000200D01*
X0027298Y0004880D02*
X0022858D01*
X0027560Y0006386D02*
Y0005237D01*
X0027470Y0006243D02*
Y0005225D01*
X0027380Y0006194D02*
Y0005177D01*
X0026822Y0003800D02*
X0026613D01*
X0033563Y0003620D02*
X0027502D01*
X0038270Y0003530D02*
X0027584D01*
X0022812Y0003350D02*
X0011470D01*
X0032381Y0003440D02*
X0027614D01*
X0032278Y0003350D02*
X0027613D01*
X0032239Y0003260D02*
X0027578D01*
X0023600Y0009287D02*
Y0008528D01*
X0036231Y0003440D02*
X0034868D01*
X0036084Y0003170D02*
X0035016D01*
X0036111Y0003080D02*
X0034989D01*
X0034940Y0003622D02*
Y0003388D01*
X0034850Y0003587D02*
Y0003448D01*
X0034760Y0003585D02*
Y0003467D01*
X0034670Y0003616D02*
Y0003455D01*
X0034580Y0003697D02*
Y0003407D01*
X0034310Y0002098D02*
Y0000200D01*
X0034631Y0003440D02*
X0034368D01*
X0034528Y0003350D02*
X0034472D01*
X0036128D02*
X0034972D01*
X0036089Y0003260D02*
X0035011D01*
X0034490Y0003731D02*
Y0003318D01*
X0034400Y0003628D02*
Y0003422D01*
X0034310Y0003589D02*
Y0003461D01*
X0034220Y0003584D02*
Y0003466D01*
X0034130Y0003611D02*
Y0003439D01*
X0034040Y0003684D02*
Y0003366D01*
X0034336Y0002090D02*
X0025998D01*
X0034131Y0003440D02*
X0033818D01*
X0034028Y0003350D02*
X0033922D01*
X0033989Y0003260D02*
X0033961D01*
X0033984Y0003170D02*
X0033966D01*
X0033950Y0003754D02*
Y0003295D01*
X0033860Y0003635D02*
Y0003414D01*
X0033770Y0003591D02*
Y0003458D01*
X0033680Y0003583D02*
Y0003467D01*
X0033590Y0003606D02*
Y0003444D01*
X0033500Y0003672D02*
Y0003378D01*
X0035030Y0004413D02*
Y0003987D01*
X0034940Y0004322D02*
Y0004078D01*
X0034850Y0004287D02*
Y0004113D01*
X0034760Y0004285D02*
Y0004114D01*
X0034670Y0004316D02*
Y0004084D01*
X0034580Y0004397D02*
Y0004002D01*
X0038116Y0004070D02*
X0034952D01*
X0036110Y0003611D02*
Y0003318D01*
X0036102Y0003980D02*
X0035034D01*
X0036048Y0003890D02*
X0035064D01*
X0036032Y0003800D02*
X0035063D01*
X0036048Y0003710D02*
X0035028D01*
X0034490Y0004431D02*
Y0003968D01*
X0034400Y0004328D02*
Y0004072D01*
X0034310Y0004289D02*
Y0004111D01*
X0034220Y0004284D02*
Y0004116D01*
X0034130Y0004311D02*
Y0004089D01*
X0034040Y0004384D02*
Y0004016D01*
X0035030Y0003713D02*
Y0000200D01*
X0034647Y0004070D02*
X0034402D01*
X0034566Y0003980D02*
X0034484D01*
X0034535Y0003890D02*
X0034514D01*
X0034537Y0003800D02*
X0034513D01*
X0034572Y0003710D02*
X0034478D01*
X0033950Y0004454D02*
Y0003945D01*
X0033860Y0004335D02*
Y0004064D01*
X0033770Y0004291D02*
Y0004108D01*
X0033680Y0004283D02*
Y0004117D01*
X0033590Y0004306D02*
Y0004094D01*
X0033500Y0004372D02*
Y0004028D01*
X0034220Y0002152D02*
Y0000200D01*
X0034097Y0004070D02*
X0033852D01*
X0034016Y0003980D02*
X0033934D01*
X0033985Y0003890D02*
X0033964D01*
X0033987Y0003800D02*
X0033963D01*
X0034022Y0003710D02*
X0033928D01*
X0035030Y0005213D02*
Y0004687D01*
X0034940Y0005122D02*
Y0004778D01*
X0034850Y0005087D02*
Y0004813D01*
X0034760Y0005085D02*
Y0004814D01*
X0034670Y0005116D02*
Y0004784D01*
X0034580Y0005197D02*
Y0004702D01*
X0038091Y0004790D02*
X0034918D01*
X0038076Y0004700D02*
X0035022D01*
X0038080Y0004610D02*
X0035061D01*
X0038104Y0004520D02*
X0035066D01*
X0038153Y0004430D02*
X0035039D01*
X0038239Y0004340D02*
X0034966D01*
X0034490Y0005231D02*
Y0004668D01*
X0034400Y0005128D02*
Y0004772D01*
X0034310Y0005089D02*
Y0004811D01*
X0034220Y0005084D02*
Y0004816D01*
X0034130Y0005111D02*
Y0004789D01*
X0034040Y0005184D02*
Y0004716D01*
X0039150Y0002450D02*
X0034648D01*
X0034681Y0004790D02*
X0034368D01*
X0034578Y0004700D02*
X0034472D01*
X0034539Y0004610D02*
X0034511D01*
X0034534Y0004520D02*
X0034516D01*
X0034561Y0004430D02*
X0034489D01*
X0033950Y0005254D02*
Y0004645D01*
X0033860Y0005135D02*
Y0004764D01*
X0033770Y0005091D02*
Y0004808D01*
X0033680Y0005083D02*
Y0004817D01*
X0033590Y0005106D02*
Y0004794D01*
X0033500Y0005172D02*
Y0004728D01*
X0034400Y0002082D02*
Y0000200D01*
X0034131Y0004790D02*
X0033818D01*
X0034028Y0004700D02*
X0033922D01*
X0033989Y0004610D02*
X0033961D01*
X0033984Y0004520D02*
X0033966D01*
X0034011Y0004430D02*
X0033939D01*
X0035030Y0005963D02*
Y0005487D01*
X0034940Y0005872D02*
Y0005578D01*
X0034850Y0005837D02*
Y0005613D01*
X0034760Y0005835D02*
Y0005614D01*
X0034670Y0005866D02*
Y0005584D01*
X0034580Y0005947D02*
Y0005502D01*
X0037035Y0005690D02*
X0032578D01*
X0036236Y0005510D02*
X0035014D01*
X0036093Y0005420D02*
X0035058D01*
X0036044Y0005330D02*
X0035067D01*
X0036032Y0005240D02*
X0035044D01*
X0036052Y0005150D02*
X0034978D01*
X0034490Y0005981D02*
Y0005468D01*
X0034400Y0005878D02*
Y0005572D01*
X0034310Y0005839D02*
Y0005611D01*
X0034220Y0005834D02*
Y0005616D01*
X0034130Y0005861D02*
Y0005589D01*
X0034040Y0005934D02*
Y0005516D01*
X0034490Y0001434D02*
Y0000200D01*
X0034704Y0005600D02*
X0034345D01*
X0034585Y0005510D02*
X0034464D01*
X0034541Y0005420D02*
X0034508D01*
X0034533Y0005330D02*
X0034517D01*
X0034556Y0005240D02*
X0034494D01*
X0033950Y0006004D02*
Y0005445D01*
X0033860Y0005885D02*
Y0005564D01*
X0033770Y0005841D02*
Y0005608D01*
X0033680Y0005833D02*
Y0005617D01*
X0033590Y0005856D02*
Y0005594D01*
X0033500Y0005922D02*
Y0005528D01*
X0034670Y0001334D02*
Y0000200D01*
X0034154Y0005600D02*
X0033795D01*
X0034035Y0005510D02*
X0033914D01*
X0033991Y0005420D02*
X0033958D01*
X0033983Y0005330D02*
X0033967D01*
X0034006Y0005240D02*
X0033944D01*
X0035355Y0006500D02*
X0030478D01*
X0038055Y0006320D02*
X0035709D01*
X0038055Y0006230D02*
X0035717D01*
X0038055Y0006140D02*
X0035695D01*
X0037072Y0006050D02*
X0035628D01*
X0035030Y0006713D02*
Y0006237D01*
X0034940Y0006622D02*
Y0006328D01*
X0034850Y0006587D02*
Y0006363D01*
X0034760Y0006585D02*
Y0006364D01*
X0034670Y0006616D02*
Y0006334D01*
X0034580Y0006697D02*
Y0006252D01*
X0037154Y0005600D02*
X0034895D01*
X0039150Y0007490D02*
X0036363D01*
X0035030Y0011550D02*
Y0006987D01*
X0034940Y0011550D02*
Y0007078D01*
X0034850Y0011550D02*
Y0007113D01*
X0034760Y0011550D02*
Y0007114D01*
X0034670Y0011550D02*
Y0007084D01*
X0035211Y0007040D02*
X0034988D01*
X0035152Y0006950D02*
X0035048D01*
X0035132Y0006860D02*
X0035067D01*
X0035144Y0006770D02*
X0035055D01*
X0035193Y0006680D02*
X0035007D01*
X0035336Y0006590D02*
X0034863D01*
X0032150Y0004172D02*
Y0000200D01*
X0034647Y0006320D02*
X0034402D01*
X0034566Y0006230D02*
X0034484D01*
X0034535Y0006140D02*
X0034514D01*
X0034537Y0006050D02*
X0034513D01*
X0034490Y0006731D02*
Y0006218D01*
X0034400Y0006628D02*
Y0006322D01*
X0034310Y0006589D02*
Y0006361D01*
X0034220Y0006584D02*
Y0006366D01*
X0034130Y0006611D02*
Y0006339D01*
X0034040Y0006684D02*
Y0006266D01*
X0034580Y0001361D02*
Y0000200D01*
X0034736Y0006590D02*
X0034313D01*
X0034097Y0006320D02*
X0033852D01*
X0034016Y0006230D02*
X0033934D01*
X0033985Y0006140D02*
X0033964D01*
X0033987Y0006050D02*
X0033963D01*
X0033950Y0006754D02*
Y0006195D01*
X0033860Y0006635D02*
Y0006314D01*
X0033770Y0006591D02*
Y0006358D01*
X0033680Y0006583D02*
Y0006367D01*
X0033590Y0006606D02*
Y0006344D01*
X0033500Y0006672D02*
Y0006278D01*
X0032960Y0008984D02*
Y0000200D01*
X0035660Y0009567D02*
Y0006913D01*
X0034580Y0011550D02*
Y0007002D01*
X0035570Y0011550D02*
Y0007057D01*
X0035480Y0011550D02*
Y0007105D01*
X0035390Y0011550D02*
Y0007117D01*
X0035300Y0011550D02*
Y0007098D01*
X0035210Y0011550D02*
Y0007038D01*
X0039150Y0007040D02*
X0035588D01*
X0039150Y0006950D02*
X0035648D01*
X0034040Y0011550D02*
Y0007016D01*
X0038055Y0006680D02*
X0035607D01*
X0038055Y0006590D02*
X0035463D01*
X0039150Y0006860D02*
X0035667D01*
X0034490Y0011550D02*
Y0006968D01*
X0034400Y0011550D02*
Y0007072D01*
X0034310Y0011550D02*
Y0007111D01*
X0034220Y0011550D02*
Y0007116D01*
X0034130Y0011550D02*
Y0007089D01*
X0035480Y0005984D02*
Y0000200D01*
X0034611Y0007040D02*
X0034438D01*
X0034552Y0006950D02*
X0034498D01*
X0034532Y0006860D02*
X0034517D01*
X0034544Y0006770D02*
X0034505D01*
X0039150D02*
X0035655D01*
X0033950Y0011550D02*
Y0006945D01*
X0033860Y0011550D02*
Y0007064D01*
X0032613Y0009380D02*
X0030389D01*
X0033680Y0009363D02*
Y0007117D01*
X0031520Y0010122D02*
Y0001387D01*
X0034061Y0007040D02*
X0033888D01*
X0034002Y0006950D02*
X0033948D01*
X0033982Y0006860D02*
X0033967D01*
X0033994Y0006770D02*
X0033955D01*
X0034043Y0006680D02*
X0033907D01*
X0036102Y0003620D02*
X0034937D01*
X0036560Y0007686D02*
Y0005313D01*
X0036470Y0007543D02*
Y0005457D01*
X0036380Y0007494D02*
Y0005505D01*
X0036290Y0007482D02*
Y0005517D01*
X0036200Y0007502D02*
Y0005498D01*
X0038077Y0005510D02*
X0036363D01*
X0038077Y0005420D02*
X0036507D01*
X0038096Y0005330D02*
X0036555D01*
X0038138Y0005240D02*
X0036567D01*
X0038212Y0005150D02*
X0036548D01*
X0038319Y0005060D02*
X0036488D01*
X0039150Y0000200D02*
X0030045D01*
X0036110Y0000231D02*
Y0000200D01*
X0032372Y0000650D02*
X0030128D01*
X0032318Y0000560D02*
X0030194D01*
X0032302Y0000470D02*
X0030217D01*
X0032318Y0000380D02*
X0030208D01*
X0030440Y0004185D02*
Y0000200D01*
X0029822Y0002000D02*
X0025960D01*
X0029990Y0001532D02*
Y0000714D01*
X0029900Y0001552D02*
Y0000713D01*
X0032522Y0009290D02*
X0030316D01*
X0032487Y0009200D02*
X0016595D01*
X0032485Y0009110D02*
X0016714D01*
X0032516Y0009020D02*
X0016758D01*
X0016760Y0009849D02*
Y0009013D01*
X0016670Y0009907D02*
Y0009157D01*
X0039150Y0011270D02*
X0011470D01*
X0016580Y0010007D02*
Y0009205D01*
X0016400Y0010143D02*
Y0009198D01*
X0016310Y0009965D02*
Y0009138D01*
X0031070Y0001443D02*
Y0000200D01*
X0019266Y0006680D02*
X0017667D01*
X0027066Y0006320D02*
X0024634D01*
X0021080Y0002791D02*
Y0000200D01*
X0014690Y0006454D02*
Y0006045D01*
X0014510Y0006288D02*
Y0006212D01*
X0014600Y0006352D02*
Y0006148D01*
X0014060Y0006255D02*
Y0006245D01*
X0013970Y0006300D02*
Y0006200D01*
X0013880Y0006370D02*
Y0006129D01*
X0013790Y0006487D02*
Y0006013D01*
X0033950Y0003104D02*
Y0000200D01*
X0018290Y0005485D02*
Y0004302D01*
X0018011Y0005870D02*
X0014766D01*
X0033860Y0002985D02*
Y0000200D01*
X0036560Y0003034D02*
Y0000200D01*
X0017984Y0005780D02*
X0014779D01*
X0017989Y0005690D02*
X0014776D01*
X0023510Y0005331D02*
Y0002773D01*
X0014690Y0007454D02*
Y0007045D01*
X0014510Y0007288D02*
Y0007212D01*
X0014600Y0007352D02*
Y0007148D01*
X0014060Y0007255D02*
Y0007245D01*
X0013970Y0007300D02*
Y0007200D01*
X0013880Y0007370D02*
Y0007129D01*
X0013790Y0007487D02*
Y0007013D01*
X0022285Y0007310D02*
X0014545D01*
X0016741Y0006770D02*
X0015637D01*
X0034040Y0003034D02*
Y0000200D01*
X0015347Y0007220D02*
X0014495D01*
X0012080Y0011550D02*
Y0000907D01*
X0016940Y0004235D02*
Y0000200D01*
X0016904Y0006950D02*
X0015763D01*
X0019370Y0006316D02*
Y0004684D01*
X0034113Y0005870D02*
X0033837D01*
X0014690Y0009916D02*
Y0008045D01*
X0017480Y0011550D02*
Y0006955D01*
X0014600Y0010026D02*
Y0008148D01*
X0014420Y0009805D02*
Y0008252D01*
X0014330Y0009805D02*
Y0008274D01*
X0014240Y0009805D02*
Y0008280D01*
X0014150Y0009805D02*
Y0008270D01*
X0014060Y0009805D02*
Y0008245D01*
X0013970Y0009805D02*
Y0008200D01*
X0013880Y0009805D02*
Y0008129D01*
X0013790Y0009805D02*
Y0008013D01*
X0018110Y0003798D02*
Y0000814D01*
X0023690Y0007589D02*
Y0005711D01*
X0023240Y0003135D02*
Y0002704D01*
X0022160Y0003639D02*
Y0002788D01*
X0022462Y0005240D02*
X0014394D01*
X0031700Y0007222D02*
Y0004445D01*
X0019748Y0007940D02*
X0014745D01*
X0021436Y0002540D02*
X0011470D01*
X0022404Y0007400D02*
X0014648D01*
X0018290Y0011550D02*
Y0009964D01*
X0017390Y0011550D02*
Y0010330D01*
X0017300Y0011550D02*
Y0010527D01*
X0017210Y0011550D02*
Y0010612D01*
X0017120Y0011550D02*
Y0010662D01*
X0017030Y0011550D02*
Y0010688D01*
X0016940Y0011550D02*
Y0010694D01*
X0016850Y0011550D02*
Y0010682D01*
X0016760Y0011550D02*
Y0010651D01*
X0016670Y0011550D02*
Y0010593D01*
X0018555Y0010640D02*
X0017166D01*
X0018555Y0010550D02*
X0017281D01*
X0018555Y0010460D02*
X0017344D01*
X0018555Y0010370D02*
X0017381D01*
X0022970Y0009891D02*
Y0009748D01*
X0028910Y0009881D02*
Y0004502D01*
X0024410Y0009672D02*
Y0008252D01*
X0033187Y0010100D02*
X0031468D01*
X0018290Y0009435D02*
Y0008463D01*
X0022128Y0002450D02*
X0011470D01*
X0016580Y0011550D02*
Y0010492D01*
X0016400Y0011550D02*
Y0010357D01*
X0016310Y0011550D02*
Y0010534D01*
X0016220Y0011550D02*
Y0010616D01*
X0016130Y0011550D02*
Y0010664D01*
X0016040Y0011550D02*
Y0010689D01*
X0015950Y0011550D02*
Y0010694D01*
X0015860Y0011550D02*
Y0010681D01*
X0015770Y0011550D02*
Y0010648D01*
X0015680Y0011550D02*
Y0010588D01*
X0016670Y0004363D02*
Y0000200D01*
X0016739Y0010640D02*
X0016182D01*
X0016624Y0010550D02*
X0016296D01*
X0016561Y0010460D02*
X0016360D01*
X0016524Y0010370D02*
X0016396D01*
X0016509Y0010280D02*
X0016412D01*
X0016512Y0010190D02*
X0016409D01*
X0016534Y0010100D02*
X0016387D01*
X0016578Y0010010D02*
X0016343D01*
X0016654Y0009920D02*
X0016266D01*
X0015590Y0011550D02*
Y0010483D01*
X0015410Y0011550D02*
Y0010377D01*
X0015320Y0011550D02*
Y0010541D01*
X0015230Y0011550D02*
Y0010620D01*
X0015140Y0011550D02*
Y0010666D01*
X0015050Y0011550D02*
Y0010690D01*
X0014960Y0011550D02*
Y0010694D01*
X0014870Y0011550D02*
Y0010680D01*
X0014780Y0011550D02*
Y0010645D01*
X0014690Y0011550D02*
Y0010583D01*
X0018830Y0003816D02*
Y0000200D01*
X0015755Y0010640D02*
X0015197D01*
X0015640Y0010550D02*
X0015312D01*
X0015576Y0010460D02*
X0015376D01*
X0015540Y0010370D02*
X0015412D01*
X0015525Y0010280D02*
X0015427D01*
X0015528Y0010190D02*
X0015424D01*
X0015550Y0010100D02*
X0015402D01*
X0015594Y0010010D02*
X0015358D01*
X0015670Y0009920D02*
X0015282D01*
X0014600Y0011550D02*
Y0010474D01*
X0014420Y0011550D02*
Y0010695D01*
X0014330Y0011550D02*
Y0010695D01*
X0014240Y0011550D02*
Y0010695D01*
X0014150Y0011550D02*
Y0010695D01*
X0014060Y0011550D02*
Y0010695D01*
X0013970Y0011550D02*
Y0010695D01*
X0013880Y0011550D02*
Y0010695D01*
X0013790Y0011550D02*
Y0010695D01*
X0013700Y0011550D02*
Y0010695D01*
X0013813Y0006050D02*
X0011470D01*
X0014770Y0010640D02*
X0014445D01*
X0014656Y0010550D02*
X0014445D01*
X0014592Y0010460D02*
X0014445D01*
X0014556Y0010370D02*
X0014445D01*
X0014540Y0010280D02*
X0014445D01*
X0014543Y0010190D02*
X0014445D01*
X0014565Y0010100D02*
X0014445D01*
X0014609Y0010010D02*
X0014445D01*
X0014686Y0009920D02*
X0014445D01*
X0024269Y0002720D02*
X0023731D01*
X0024140Y0002630D02*
X0023860D01*
X0024064Y0002540D02*
X0023936D01*
X0024016Y0002450D02*
X0023984D01*
X0024040Y0002000D02*
X0023960D01*
X0024102Y0001910D02*
X0023898D01*
X0024201Y0001820D02*
X0023799D01*
X0023960Y0005284D02*
Y0002500D01*
X0023870Y0005211D02*
Y0002620D01*
X0024024Y0001774D02*
X0023717D01*
X0018266Y0001820D02*
X0011470D01*
X0023330Y0003254D02*
Y0002745D01*
X0023150Y0003091D02*
Y0002639D01*
X0025269Y0002720D02*
X0024731D01*
X0025140Y0002630D02*
X0024860D01*
X0025064Y0002540D02*
X0024936D01*
X0025016Y0002450D02*
X0024984D01*
X0025040Y0003222D02*
Y0002500D01*
X0024950Y0003187D02*
Y0002518D01*
X0024860Y0003185D02*
Y0002630D01*
X0024770Y0003216D02*
Y0002699D01*
X0024410Y0006182D02*
Y0002766D01*
X0024320Y0006194D02*
Y0002742D01*
X0024230Y0006243D02*
Y0002699D01*
X0030080Y0000216D02*
Y0000200D01*
X0025940Y0011550D02*
Y0002534D01*
X0025850Y0011550D02*
Y0002639D01*
X0025760Y0011550D02*
Y0002704D01*
X0025400Y0005482D02*
Y0002764D01*
X0032472Y0002900D02*
X0022072D01*
X0021244Y0002720D02*
X0011470D01*
X0030195Y0010055D02*
X0029412D01*
X0032383Y0002720D02*
X0025731D01*
X0032391Y0002630D02*
X0025860D01*
X0034132Y0002360D02*
X0026012D01*
X0034144Y0002270D02*
X0026023D01*
X0034193Y0002180D02*
X0026019D01*
X0029756Y0001910D02*
X0025898D01*
X0034547Y0001820D02*
X0031107D01*
X0027537Y0001550D02*
X0025929D01*
X0025310Y0005498D02*
Y0002738D01*
X0023489Y0005510D02*
X0018768D01*
X0025130Y0003313D02*
Y0002620D01*
X0024050Y0001982D02*
Y0001518D01*
X0025940Y0001966D02*
Y0001534D01*
X0025850Y0001860D02*
Y0001639D01*
X0025760Y0001795D02*
Y0001704D01*
X0025670Y0001755D02*
Y0001745D01*
X0020598Y0006140D02*
X0014609D01*
X0025580Y0005552D02*
Y0002767D01*
X0025490Y0005498D02*
Y0002773D01*
X0016641Y0004430D02*
X0011470D01*
X0027560Y0001481D02*
Y0000794D01*
X0027566Y0001730D02*
X0025709D01*
X0027535Y0001640D02*
X0025849D01*
X0032256Y0001190D02*
X0032011D01*
X0037303Y0000920D02*
X0025906D01*
X0027290Y0000335D02*
Y0000200D01*
X0037454Y0000830D02*
X0025813D01*
X0030980Y0001394D02*
Y0000200D01*
X0032233Y0001280D02*
X0032016D01*
X0025034Y0001010D02*
X0024965D01*
X0025093Y0000920D02*
X0024906D01*
X0025381Y0000740D02*
X0024619D01*
X0024024Y0001774D02*
Y0001467D01*
X0018022Y0004250D02*
X0016995D01*
X0024590Y0006261D02*
Y0002766D01*
X0024500Y0006202D02*
Y0002774D01*
X0011630Y0011550D02*
Y0000989D01*
X0012097Y0000920D02*
X0011957D01*
X0012530Y0011550D02*
Y0000200D01*
X0012170Y0011550D02*
Y0000955D01*
X0017840Y0000356D02*
Y0000200D01*
X0017186Y0001010D02*
X0011813D01*
X0011686D02*
X0011470D01*
X0018560Y0011550D02*
Y0008667D01*
X0013520Y0011550D02*
Y0006602D01*
X0013430Y0011550D02*
Y0006684D01*
X0013340Y0011550D02*
Y0006714D01*
X0013250Y0011550D02*
Y0006713D01*
X0013160Y0011550D02*
Y0006678D01*
X0014025Y0006230D02*
X0013452D01*
X0013724Y0006680D02*
X0013437D01*
X0013745Y0006590D02*
X0013528D01*
X0013783Y0006500D02*
X0013563D01*
X0013843Y0006410D02*
X0013564D01*
X0013940Y0006320D02*
X0013534D01*
X0015860Y0009819D02*
Y0000200D01*
X0015680Y0009911D02*
Y0007198D01*
X0013070Y0011550D02*
Y0006587D01*
X0015590Y0010016D02*
Y0007252D01*
X0015410Y0010122D02*
Y0007252D01*
X0015320Y0009959D02*
Y0007198D01*
X0015237Y0006950D02*
X0014741D01*
X0015272Y0006860D02*
X0014768D01*
X0015363Y0006770D02*
X0014779D01*
X0017982Y0006950D02*
X0017495D01*
X0018052Y0006770D02*
X0017658D01*
X0022061Y0001280D02*
X0011470D01*
X0022976Y0001640D02*
X0022418D01*
X0022976Y0001550D02*
X0022522D01*
X0022976Y0001460D02*
X0022561D01*
X0022976Y0001370D02*
X0022566D01*
X0022976Y0001280D02*
X0022539D01*
X0022976Y0001190D02*
X0022466D01*
X0020540Y0000335D02*
Y0000200D01*
X0022520Y0001247D02*
Y0000200D01*
X0022430Y0001166D02*
Y0000200D01*
X0022610Y0002536D02*
Y0000200D01*
X0022700Y0004794D02*
Y0000200D01*
X0032960Y0011550D02*
Y0009316D01*
X0032870Y0011550D02*
Y0009389D01*
X0032780Y0011550D02*
Y0009416D01*
X0032690Y0011550D02*
Y0009411D01*
X0032600Y0011550D02*
Y0009372D01*
X0033211Y0009380D02*
X0032887D01*
X0033284Y0009290D02*
X0032978D01*
X0032510Y0011550D02*
Y0009268D01*
X0039150Y0009200D02*
X0033013D01*
X0039150Y0009110D02*
X0033014D01*
X0039150Y0009020D02*
X0032984D01*
X0019363Y0006320D02*
X0014560D01*
X0019730Y0010329D02*
Y0006687D01*
X0019640Y0010351D02*
Y0006778D01*
X0019550Y0010397D02*
Y0006813D01*
X0019460Y0010479D02*
Y0006814D01*
X0019370Y0010305D02*
Y0006784D01*
X0019280Y0010305D02*
Y0006702D01*
X0019766Y0006680D02*
X0019734D01*
X0019772Y0006410D02*
X0019728D01*
X0019863Y0006320D02*
X0019637D01*
X0023870Y0009802D02*
Y0008467D01*
X0039150Y0007220D02*
X0032098D01*
X0024230Y0011550D02*
Y0010198D01*
X0024140Y0011550D02*
Y0010252D01*
X0024050Y0011550D02*
Y0010268D01*
X0023960Y0011550D02*
Y0010252D01*
X0023861Y0010190D02*
X0023164D01*
X0023794Y0009920D02*
X0023037D01*
X0023986Y0009740D02*
X0023738D01*
X0021170Y0008343D02*
Y0004666D01*
X0027663Y0001370D02*
X0026010D01*
X0021890Y0010489D02*
Y0008778D01*
X0021800Y0010528D02*
Y0008813D01*
X0021980Y0010484D02*
Y0008687D01*
X0021620Y0010412D02*
Y0008784D01*
X0021530Y0010359D02*
Y0008702D01*
X0027852Y0008750D02*
X0021928D01*
X0020822D02*
X0016678D01*
X0020785Y0008390D02*
X0018817D01*
X0020990Y0008282D02*
Y0006278D01*
X0020733Y0008570D02*
X0018757D01*
X0021684Y0003260D02*
X0021337D01*
X0021611Y0003170D02*
X0021428D01*
X0021584Y0003080D02*
X0021463D01*
X0021293Y0002630D02*
X0011470D01*
X0022089Y0002540D02*
X0021563D01*
X0022084Y0002630D02*
X0021707D01*
X0021440Y0004281D02*
Y0003148D01*
X0021350Y0004178D02*
Y0003252D01*
X0021260Y0004139D02*
Y0003291D01*
X0021170Y0004134D02*
Y0003296D01*
X0021080Y0004161D02*
Y0003269D01*
X0020990Y0004234D02*
Y0003196D01*
X0027322Y0006950D02*
X0025268D01*
X0027740Y0010381D02*
Y0006868D01*
X0027650Y0010278D02*
Y0006972D01*
X0029528Y0006950D02*
X0027678D01*
X0027256Y0006860D02*
X0025566D01*
X0024860Y0006722D02*
Y0003714D01*
X0029631Y0007040D02*
X0025252D01*
X0027740Y0006631D02*
Y0005158D01*
X0023870Y0011550D02*
Y0010198D01*
X0022790Y0011550D02*
Y0010394D01*
X0022880Y0011550D02*
Y0010417D01*
X0023960Y0009748D02*
Y0008444D01*
X0028961Y0010190D02*
X0024238D01*
X0024372Y0010100D02*
X0024298D01*
X0027347Y0010280D02*
X0023134D01*
X0023802Y0010100D02*
X0023163D01*
X0022700Y0011550D02*
Y0010328D01*
X0023150Y0011550D02*
Y0010245D01*
X0023240Y0011550D02*
Y0009802D01*
X0027266Y0010370D02*
X0023052D01*
X0039150Y0009650D02*
X0038367D01*
X0027200Y0011550D02*
Y0011268D01*
X0027110Y0011550D02*
Y0011252D01*
X0028802Y0011180D02*
X0027398D01*
X0028748Y0011090D02*
X0027452D01*
X0028732Y0011000D02*
X0027468D01*
X0028748Y0010910D02*
X0027452D01*
X0028802Y0010820D02*
X0027398D01*
X0027020Y0011550D02*
Y0011198D01*
X0027470Y0011550D02*
Y0010766D01*
X0022430Y0002344D02*
Y0001634D01*
X0022340Y0002332D02*
Y0001664D01*
X0023269Y0002720D02*
X0022589D01*
X0023140Y0002630D02*
X0022616D01*
X0023064Y0002540D02*
X0022611D01*
X0023016Y0002450D02*
X0022572D01*
X0032406Y0002810D02*
X0022516D01*
X0022610Y0004796D02*
Y0002663D01*
X0022520Y0004830D02*
Y0002807D01*
X0022250Y0002352D02*
Y0001663D01*
X0022340Y0003781D02*
Y0002867D01*
X0022160Y0002411D02*
Y0001628D01*
X0023060Y0006261D02*
Y0003617D01*
X0023552Y0008030D02*
X0020198D01*
X0023420Y0008083D02*
Y0006657D01*
X0023330Y0008091D02*
Y0006705D01*
X0023240Y0008135D02*
Y0006717D01*
X0023150Y0008254D02*
Y0006698D01*
X0023060Y0009298D02*
Y0006638D01*
X0020582Y0006050D02*
X0014687D01*
X0023113Y0006680D02*
X0022667D01*
X0023022Y0006590D02*
X0022644D01*
X0022987Y0006500D02*
X0022578D01*
X0022985Y0006410D02*
X0020728D01*
X0023150Y0006202D02*
Y0003608D01*
X0023097Y0006230D02*
X0021048D01*
X0030085Y0006140D02*
X0021102D01*
X0030204Y0006050D02*
X0021118D01*
X0020598Y0005960D02*
X0018816D01*
X0020756Y0008660D02*
X0018613D01*
X0020900Y0008302D02*
Y0006313D01*
X0020720Y0006397D02*
Y0006284D01*
X0026030Y0011550D02*
Y0000200D01*
X0020630Y0006316D02*
Y0006202D01*
X0020810Y0008361D02*
Y0006314D01*
X0032690Y0002435D02*
Y0001488D01*
X0032600Y0002437D02*
Y0001548D01*
X0032510Y0002472D02*
Y0001567D01*
X0032420Y0002563D02*
Y0001555D01*
X0032330Y0002993D02*
Y0001507D01*
X0032240Y0003136D02*
Y0001363D01*
X0034437Y0001550D02*
X0032595D01*
X0034472Y0001460D02*
X0032714D01*
X0034563Y0001370D02*
X0032758D01*
X0037031Y0001280D02*
X0032767D01*
X0037072Y0001190D02*
X0032744D01*
X0037128Y0001100D02*
X0032678D01*
X0030800Y0001402D02*
Y0000200D01*
X0027110Y0003756D02*
Y0003518D01*
X0030711Y0001460D02*
X0028028D01*
X0015352Y0000470D02*
X0012387D01*
X0029741Y0001730D02*
X0028034D01*
X0029785Y0001640D02*
X0028064D01*
X0029733Y0001820D02*
X0027952D01*
X0027470Y0000283D02*
Y0000200D01*
X0031160Y0001586D02*
Y0000200D01*
X0025400Y0000736D02*
Y0000200D01*
X0031250Y0004832D02*
Y0000200D01*
X0030890Y0001382D02*
Y0000200D01*
X0032554Y0002450D02*
X0025984D01*
X0032240Y0001236D02*
Y0000200D01*
X0039150Y0002900D02*
X0032828D01*
X0039150Y0002810D02*
X0032894D01*
X0039150Y0002720D02*
X0032917D01*
X0034211Y0002540D02*
X0032864D01*
X0034152Y0002450D02*
X0032745D01*
X0021080Y0005913D02*
Y0004639D01*
X0034850Y0001378D02*
Y0000200D01*
X0036380Y0000248D02*
Y0000200D01*
X0032600Y0001052D02*
Y0000736D01*
X0032404Y0001550D02*
X0031148D01*
X0030260Y0001736D02*
Y0000200D01*
X0031970Y0001097D02*
Y0000200D01*
X0031880Y0001016D02*
Y0000200D01*
X0031790Y0000985D02*
Y0000200D01*
X0031700Y0000987D02*
Y0000200D01*
X0032060Y0004106D02*
Y0000200D01*
X0027740Y0004781D02*
Y0001861D01*
X0031484Y0001280D02*
X0026023D01*
X0031489Y0001190D02*
X0026020D01*
X0031528Y0001100D02*
X0026002D01*
X0036991Y0001730D02*
X0034934D01*
X0036979Y0001640D02*
X0034964D01*
X0036977Y0001550D02*
X0034963D01*
X0036984Y0001460D02*
X0034928D01*
X0037014Y0001820D02*
X0034852D01*
X0037002Y0001370D02*
X0034837D01*
X0034580Y0002152D02*
Y0001839D01*
X0034490Y0002098D02*
Y0001766D01*
X0034940Y0003011D02*
Y0001718D01*
X0034850Y0002952D02*
Y0001822D01*
X0034760Y0002932D02*
Y0001861D01*
X0034670Y0002944D02*
Y0001866D01*
X0033410Y0009235D02*
Y0008644D01*
X0033320Y0009266D02*
Y0008667D01*
X0033230Y0009347D02*
Y0008658D01*
X0039150Y0008300D02*
X0037498D01*
X0033140Y0011550D02*
Y0008614D01*
X0033050Y0011550D02*
Y0008495D01*
X0039150Y0008660D02*
X0033363D01*
X0037043Y0008030D02*
X0030775D01*
X0039150Y0008210D02*
X0037517D01*
X0037061Y0008390D02*
X0033567D01*
X0037002Y0008300D02*
X0033548D01*
X0033500Y0009237D02*
Y0008578D01*
X0036560Y0005186D02*
Y0003863D01*
X0036470Y0005043D02*
Y0004007D01*
X0036380Y0004994D02*
Y0004055D01*
X0036290Y0004982D02*
Y0004067D01*
X0036200Y0005002D02*
Y0004048D01*
X0036110Y0005061D02*
Y0003988D01*
X0038085Y0003980D02*
X0036498D01*
X0038075Y0003890D02*
X0036552D01*
X0038084Y0003800D02*
X0036568D01*
X0038114Y0003710D02*
X0036552D01*
X0038170Y0003620D02*
X0036498D01*
X0036560Y0009567D02*
Y0007813D01*
X0036470Y0009567D02*
Y0007957D01*
X0036380Y0009567D02*
Y0008005D01*
X0036290Y0009567D02*
Y0008017D01*
X0036200Y0009567D02*
Y0007998D01*
X0036110Y0009567D02*
Y0007938D01*
X0039150Y0007940D02*
X0037313D01*
X0039150Y0007850D02*
X0036548D01*
X0036982Y0008210D02*
X0033488D01*
X0039150Y0007760D02*
X0036567D01*
X0039150Y0007670D02*
X0036555D01*
X0039150Y0007580D02*
X0036507D01*
X0030710Y0007514D02*
Y0004963D01*
X0030987Y0005150D02*
X0030545D01*
X0030985Y0005060D02*
X0030664D01*
X0031016Y0004970D02*
X0030708D01*
X0031097Y0004880D02*
X0030717D01*
X0031906Y0004790D02*
X0030694D01*
X0030260Y0006035D02*
Y0005088D01*
X0030620Y0007519D02*
Y0005107D01*
X0030890Y0010263D02*
Y0007946D01*
X0030800Y0010166D02*
Y0008019D01*
X0030710Y0010111D02*
Y0008046D01*
X0030620Y0010083D02*
Y0008041D01*
X0036110Y0007561D02*
Y0005438D01*
X0036052Y0007850D02*
X0030938D01*
X0036994Y0008120D02*
X0024739D01*
X0036032Y0007760D02*
X0030947D01*
X0036111Y0007940D02*
X0030894D01*
X0031702Y0007580D02*
X0030858D01*
X0030530Y0010075D02*
Y0008002D01*
X0030440Y0010086D02*
Y0007898D01*
X0019748Y0007760D02*
X0014780D01*
X0020180Y0010587D02*
Y0008048D01*
X0020090Y0010451D02*
Y0008102D01*
X0020000Y0010382D02*
Y0008118D01*
X0019910Y0010343D02*
Y0008102D01*
X0020266Y0006680D02*
X0020234D01*
X0020272Y0006410D02*
X0020228D01*
X0020363Y0006320D02*
X0020137D01*
X0020347Y0006770D02*
X0020152D01*
X0027380Y0011550D02*
Y0011198D01*
X0029180Y0010802D02*
Y0010266D01*
X0029090Y0010748D02*
Y0010261D01*
X0029000Y0010732D02*
Y0010222D01*
X0028910Y0010748D02*
Y0010118D01*
X0033222Y0010010D02*
X0029417D01*
X0033313Y0009920D02*
X0029405D01*
X0030031Y0009740D02*
X0029213D01*
X0035623Y0009830D02*
X0029357D01*
X0034940Y0001481D02*
Y0000200D01*
X0039150Y0002540D02*
X0034588D01*
X0037563Y0002360D02*
X0034667D01*
X0037362Y0002270D02*
X0034655D01*
X0037244Y0002180D02*
X0034607D01*
X0037159Y0002090D02*
X0034463D01*
X0034580Y0002993D02*
Y0002548D01*
X0034490Y0003081D02*
Y0002602D01*
X0034400Y0002978D02*
Y0002618D01*
X0034310Y0002939D02*
Y0002602D01*
X0034220Y0002934D02*
Y0002548D01*
X0022828Y0003260D02*
X0022016D01*
X0022882Y0003170D02*
X0022089D01*
X0026232Y0003260D02*
X0025088D01*
X0026244Y0003170D02*
X0023278D01*
X0030710Y0004836D02*
Y0001838D01*
X0032322Y0001100D02*
X0031972D01*
X0022070Y0003634D02*
Y0003202D01*
X0021980Y0003661D02*
Y0003284D01*
X0021890Y0003734D02*
Y0003314D01*
X0021800Y0004028D02*
Y0003313D01*
X0021710Y0004131D02*
Y0003278D01*
X0021890Y0008322D02*
Y0004511D01*
X0023060Y0011550D02*
Y0010364D01*
X0024770Y0011550D02*
Y0010052D01*
X0024680Y0011550D02*
Y0010134D01*
X0024590Y0011550D02*
Y0010164D01*
X0024500Y0011550D02*
Y0010163D01*
X0024320Y0011550D02*
Y0010037D01*
X0022700Y0009972D02*
Y0007928D01*
X0028902Y0010100D02*
X0024728D01*
X0028882Y0010010D02*
X0024794D01*
X0028894Y0009920D02*
X0024817D01*
X0029928Y0009650D02*
X0024645D01*
X0029086Y0009740D02*
X0024764D01*
X0022976Y0001100D02*
X0011470D01*
X0018380Y0006716D02*
Y0005984D01*
X0018020Y0006813D02*
Y0005887D01*
Y0009563D02*
Y0007087D01*
X0018200Y0006687D02*
Y0006013D01*
X0018110Y0006722D02*
Y0005978D01*
X0018470Y0006797D02*
Y0005948D01*
X0019237Y0006500D02*
X0017578D01*
X0019847Y0006770D02*
X0019652D01*
X0022233Y0007130D02*
X0018448D01*
X0022256Y0007040D02*
X0018502D01*
X0022790Y0007198D02*
Y0005292D01*
X0022700Y0006972D02*
Y0005323D01*
X0022610Y0006534D02*
Y0005322D01*
X0022520Y0006461D02*
Y0005288D01*
X0022430Y0006434D02*
Y0005197D01*
X0028100Y0004554D02*
Y0000200D01*
X0027352Y0005150D02*
X0022911D01*
X0027298Y0005060D02*
X0022926D01*
X0023584Y0005240D02*
X0022856D01*
X0022880Y0007252D02*
Y0005210D01*
X0022610Y0006906D02*
Y0006866D01*
X0022250Y0007054D02*
Y0006922D01*
X0022160Y0009372D02*
Y0006818D01*
X0024136Y0006590D02*
X0023478D01*
X0023932Y0006860D02*
X0022614D01*
X0024247Y0006230D02*
X0023402D01*
X0023960Y0006731D02*
Y0005616D01*
X0023993Y0006680D02*
X0023387D01*
X0023510Y0007731D02*
Y0006513D01*
X0023498Y0007940D02*
X0022688D01*
X0023482Y0007850D02*
X0022748D01*
X0022430Y0009366D02*
Y0008008D01*
X0022340Y0009335D02*
Y0007964D01*
X0022250Y0009337D02*
Y0007845D01*
X0029270Y0011550D02*
Y0010239D01*
X0039150Y0008840D02*
X0028288D01*
X0028280Y0011550D02*
Y0008848D01*
X0028190Y0011550D02*
Y0008902D01*
X0028100Y0011550D02*
Y0008918D01*
X0028010Y0011550D02*
Y0008902D01*
X0038630Y0011550D02*
Y0006695D01*
X0033140Y0008185D02*
Y0000200D01*
X0033236Y0008660D02*
X0028367D01*
X0033093Y0008570D02*
X0028355D01*
X0033032Y0008390D02*
X0028163D01*
X0029990Y0009285D02*
Y0006918D01*
X0029900Y0009404D02*
Y0007022D01*
X0029810Y0010055D02*
Y0007061D01*
X0029720Y0010055D02*
Y0007066D01*
X0029630Y0010055D02*
Y0007039D01*
X0029540Y0010055D02*
Y0006966D01*
X0033511Y0007040D02*
X0029868D01*
X0033452Y0006950D02*
X0029972D01*
X0033432Y0006860D02*
X0030011D01*
X0033444Y0006770D02*
X0030016D01*
X0033493Y0006680D02*
X0029989D01*
X0033636Y0006590D02*
X0029916D01*
X0039150Y0008750D02*
X0028348D01*
X0025580Y0011550D02*
Y0006848D01*
X0025490Y0011550D02*
Y0006902D01*
X0025400Y0011550D02*
Y0006918D01*
X0024860Y0011550D02*
Y0007178D01*
X0024802Y0007130D02*
X0022767D01*
X0016490Y0011550D02*
Y0009217D01*
X0027163Y0006680D02*
X0025666D01*
X0027037Y0006500D02*
X0025622D01*
X0027035Y0006410D02*
X0025518D01*
X0027072Y0006590D02*
X0025661D01*
X0033680Y0010013D02*
Y0009637D01*
X0033590Y0009922D02*
Y0009728D01*
X0033500Y0009887D02*
Y0009763D01*
X0033410Y0009885D02*
Y0009764D01*
X0033320Y0009916D02*
Y0009734D01*
X0033230Y0009997D02*
Y0009652D01*
X0035623Y0009740D02*
X0033568D01*
X0035623Y0009650D02*
X0033672D01*
X0037333Y0009560D02*
X0033711D01*
X0037505Y0009470D02*
X0033716D01*
X0039150Y0008930D02*
X0032902D01*
X0039150Y0009380D02*
X0033689D01*
X0039150Y0009290D02*
X0033616D01*
X0033680Y0011550D02*
Y0010287D01*
X0033590Y0011550D02*
Y0010378D01*
X0033500Y0011550D02*
Y0010413D01*
X0033410Y0011550D02*
Y0010414D01*
X0033320Y0011550D02*
Y0010384D01*
X0036987Y0010370D02*
X0033602D01*
X0036977Y0010280D02*
X0033684D01*
X0035623Y0010190D02*
X0033714D01*
X0035623Y0010100D02*
X0033713D01*
X0035623Y0010010D02*
X0033678D01*
X0035623Y0009920D02*
X0033587D01*
X0027920Y0011550D02*
Y0008848D01*
X0029180Y0011550D02*
Y0011198D01*
X0029090Y0011550D02*
Y0011252D01*
X0029000Y0011550D02*
Y0011268D01*
X0028910Y0011550D02*
Y0011252D01*
X0028820Y0011550D02*
Y0011198D01*
X0039150Y0011180D02*
X0029198D01*
X0037500Y0011000D02*
X0029268D01*
X0029305Y0010910D02*
X0029252D01*
X0029305Y0010820D02*
X0029198D01*
X0039150Y0011090D02*
X0029252D01*
X0027740Y0011550D02*
Y0010618D01*
X0027650Y0011550D02*
Y0010722D01*
X0027560Y0011550D02*
Y0010761D01*
X0027002Y0010820D02*
X0022208D01*
X0027380Y0010802D02*
Y0010739D01*
X0029305Y0010730D02*
X0027637D01*
X0029305Y0010640D02*
X0027728D01*
X0029305Y0010550D02*
X0027763D01*
X0029305Y0010460D02*
X0027764D01*
X0029305Y0010370D02*
X0027734D01*
X0029305Y0010280D02*
X0027652D01*
X0024410Y0011550D02*
Y0010128D01*
X0018380Y0011550D02*
Y0009934D01*
X0018650Y0011550D02*
Y0011195D01*
X0018200Y0011550D02*
Y0009963D01*
X0018110Y0011550D02*
Y0009928D01*
X0018020Y0011550D02*
Y0009837D01*
X0022635Y0010190D02*
X0017393D01*
X0022163Y0009830D02*
X0018484D01*
X0022072Y0009740D02*
X0018514D01*
X0022037Y0009650D02*
X0018513D01*
X0022035Y0009560D02*
X0018478D01*
X0022066Y0009470D02*
X0018387D01*
X0028550Y0005102D02*
Y0004828D01*
X0028460Y0005082D02*
Y0004894D01*
X0028370Y0005094D02*
Y0004917D01*
X0028280Y0005143D02*
Y0004908D01*
X0028190Y0005286D02*
Y0004864D01*
Y0008398D02*
Y0005413D01*
X0029184Y0004880D02*
X0028487D01*
X0029189Y0004790D02*
X0028578D01*
X0029228Y0004700D02*
X0028613D01*
X0029331Y0004610D02*
X0028614D01*
X0030141Y0004520D02*
X0028584D01*
X0028802Y0004430D02*
X0028502D01*
X0018470Y0011550D02*
Y0009852D01*
X0022763Y0009920D02*
X0018402D01*
X0023150Y0010054D02*
Y0009818D01*
X0023060Y0009935D02*
Y0009802D01*
X0023486Y0009290D02*
X0023213D01*
X0023361Y0009740D02*
X0023338D01*
X0022790Y0009906D02*
Y0007702D01*
X0030465Y0007940D02*
X0024761D01*
X0023498Y0007760D02*
X0022767D01*
X0031648Y0007490D02*
X0022964D01*
X0022184Y0002810D02*
X0021968D01*
X0022340Y0006439D02*
Y0004018D01*
X0024836Y0003710D02*
X0022288D01*
X0026339Y0004250D02*
X0022218D01*
X0026220Y0004160D02*
X0022202D01*
X0026168Y0003980D02*
X0022355D01*
X0026210Y0011550D02*
Y0004145D01*
X0028640Y0011550D02*
Y0005538D01*
X0028550Y0011550D02*
Y0005598D01*
X0028460Y0011550D02*
Y0005617D01*
X0027911Y0008840D02*
X0016744D01*
X0028280Y0008452D02*
Y0005557D01*
X0029243Y0005420D02*
X0028708D01*
X0029194Y0005330D02*
X0028717D01*
X0029182Y0005240D02*
X0028694D01*
X0029202Y0005150D02*
X0028628D01*
X0030802Y0005600D02*
X0028545D01*
X0029386Y0005510D02*
X0028664D01*
X0018740Y0003785D02*
Y0002068D01*
X0018650Y0003787D02*
Y0002172D01*
X0018560Y0003822D02*
Y0002211D01*
X0018470Y0003913D02*
Y0002216D01*
X0018380Y0003852D02*
Y0002189D01*
X0018290Y0003798D02*
Y0002116D01*
X0019113Y0002180D02*
X0018637D01*
X0019022Y0002090D02*
X0018728D01*
X0018987Y0002000D02*
X0018763D01*
X0018985Y0001910D02*
X0018764D01*
X0019016Y0001820D02*
X0018734D01*
X0019097Y0001730D02*
X0018652D01*
X0023510Y0006386D02*
Y0005568D01*
X0023420Y0006243D02*
Y0002767D01*
X0023330Y0006194D02*
Y0003445D01*
X0023150Y0009282D02*
Y0008445D01*
X0023240Y0006182D02*
Y0003564D01*
X0015266Y0007130D02*
X0014619D01*
X0024644Y0003530D02*
X0023278D01*
X0024632Y0003440D02*
X0023332D01*
X0024652Y0003350D02*
X0023348D01*
X0024711Y0003260D02*
X0023332D01*
X0026252Y0003350D02*
X0025148D01*
X0025310Y0011550D02*
Y0006902D01*
X0032150Y0011550D02*
Y0007495D01*
X0032060Y0011550D02*
Y0007614D01*
X0031970Y0011550D02*
Y0007658D01*
X0031880Y0011550D02*
Y0007667D01*
X0031700Y0010300D02*
Y0007578D01*
X0036044Y0007670D02*
X0030924D01*
X0036093Y0007580D02*
X0032098D01*
X0031790Y0011550D02*
Y0007644D01*
X0039150Y0007400D02*
X0032168D01*
X0039150Y0007310D02*
X0032152D01*
X0020720Y0010350D02*
Y0006702D01*
X0020630Y0010328D02*
Y0006784D01*
X0020540Y0010326D02*
Y0006814D01*
X0020450Y0010344D02*
Y0006813D01*
X0020360Y0010383D02*
Y0006778D01*
X0020270Y0010454D02*
Y0006687D01*
X0018052Y0007130D02*
X0015734D01*
X0022141Y0006770D02*
X0020652D01*
X0022133Y0006680D02*
X0020734D01*
X0022156Y0006590D02*
X0020764D01*
X0024137Y0006500D02*
X0023513D01*
X0024135Y0006410D02*
X0023514D01*
X0031972Y0004700D02*
X0030628D01*
X0030421Y0007850D02*
X0024722D01*
X0025040Y0011550D02*
Y0007214D01*
X0037100Y0005628D02*
Y0002007D01*
X0030413Y0007760D02*
X0024618D01*
X0030584Y0008030D02*
X0024766D01*
X0033052Y0008300D02*
X0024098D01*
X0024680Y0009666D02*
Y0008198D01*
X0024590Y0009635D02*
Y0008252D01*
X0024500Y0009637D02*
Y0008268D01*
X0024320Y0009763D02*
Y0008198D01*
X0022610Y0011550D02*
Y0007994D01*
X0021800Y0002787D02*
Y0000200D01*
X0019802Y0008030D02*
X0014700D01*
X0025310Y0006398D02*
Y0006002D01*
X0024950Y0006687D02*
Y0003713D01*
X0029540Y0006634D02*
Y0005502D01*
X0029772Y0000650D02*
X0027698D01*
X0029706Y0000560D02*
X0027717D01*
X0029683Y0000470D02*
X0027705D01*
X0029691Y0000380D02*
X0027657D01*
X0029735Y0000290D02*
X0027513D01*
X0029904Y0001550D02*
X0028063D01*
X0027650Y0001378D02*
Y0000728D01*
X0027470Y0003161D02*
Y0000817D01*
X0027380Y0003134D02*
Y0000808D01*
X0027290Y0003139D02*
Y0000764D01*
X0027200Y0003178D02*
Y0000645D01*
Y0000454D02*
Y0000200D01*
X0023330Y0011550D02*
Y0009748D01*
X0023780Y0011550D02*
Y0009687D01*
X0023690Y0011550D02*
Y0009778D01*
X0023510Y0011550D02*
Y0009814D01*
X0022147Y0009380D02*
X0011470D01*
X0023420Y0011550D02*
Y0009784D01*
X0029984Y0009290D02*
X0023613D01*
X0022666Y0010280D02*
X0017396D01*
X0023782Y0010010D02*
X0023128D01*
X0029889Y0009560D02*
X0023817D01*
X0029884Y0009470D02*
X0023805D01*
X0029911Y0009380D02*
X0023757D01*
X0022435Y0007490D02*
X0014712D01*
X0022293Y0007580D02*
X0014752D01*
X0022880Y0009883D02*
Y0007648D01*
X0022520Y0009447D02*
Y0008017D01*
X0022430Y0007491D02*
Y0007408D01*
X0022340Y0007535D02*
Y0007364D01*
X0019732Y0007850D02*
X0014770D01*
X0024950Y0011550D02*
Y0007213D01*
X0031632Y0007400D02*
X0022963D01*
X0025220Y0011550D02*
Y0007102D01*
X0020450Y0000337D02*
Y0000200D01*
X0023944Y0006770D02*
X0022658D01*
X0032116Y0005420D02*
X0029657D01*
X0031113Y0005330D02*
X0029705D01*
X0031022Y0005240D02*
X0029717D01*
X0030800Y0005604D02*
Y0001898D01*
X0030861Y0005510D02*
X0029513D01*
X0032150Y0004632D02*
Y0004528D01*
X0032060Y0004648D02*
Y0004594D01*
X0031970Y0004702D02*
Y0004617D01*
Y0007141D02*
Y0005098D01*
X0031880Y0007133D02*
Y0004608D01*
X0031790Y0007156D02*
Y0004564D01*
X0033439Y0004610D02*
X0032013D01*
X0033434Y0004520D02*
X0032157D01*
X0033461Y0004430D02*
X0032205D01*
X0033534Y0004340D02*
X0032217D01*
X0038278Y0004250D02*
X0032198D01*
X0038174Y0004160D02*
X0032138D01*
X0022250Y0006478D02*
Y0004122D01*
X0022070Y0009463D02*
Y0004489D01*
X0021710Y0010506D02*
Y0008814D01*
X0021980Y0008413D02*
Y0004516D01*
X0021620Y0008316D02*
Y0003187D01*
X0018104Y0003800D02*
X0011470D01*
X0028116Y0004520D02*
X0021439D01*
X0028748Y0004340D02*
X0022202D01*
X0026300Y0003072D02*
Y0000200D01*
X0026176Y0004070D02*
X0022307D01*
X0023690Y0009322D02*
Y0008414D01*
X0023510Y0009285D02*
Y0008594D01*
X0023420Y0009316D02*
Y0008617D01*
X0023330Y0009352D02*
Y0008608D01*
X0023240Y0009298D02*
Y0008564D01*
X0023594Y0008120D02*
X0023537D01*
X0023135Y0008390D02*
X0021964D01*
X0028036D02*
X0024038D01*
X0023600Y0011550D02*
Y0009813D01*
X0022520Y0011550D02*
Y0009752D01*
X0022430Y0011550D02*
Y0009834D01*
X0022340Y0011550D02*
Y0009864D01*
X0022160Y0010584D02*
Y0009828D01*
X0022070Y0010511D02*
Y0009737D01*
X0024454Y0009650D02*
X0023798D01*
X0022970Y0009352D02*
Y0003594D01*
Y0011550D02*
Y0010408D01*
X0022961Y0009740D02*
X0022528D01*
X0022902Y0009650D02*
X0022563D01*
X0022882Y0009560D02*
X0022564D01*
X0018484Y0005960D02*
X0018416D01*
X0018470Y0009547D02*
Y0008655D01*
X0022185Y0006860D02*
X0018502D01*
X0018200Y0009437D02*
Y0007213D01*
X0018110Y0009472D02*
Y0007178D01*
X0018531Y0005510D02*
X0018368D01*
X0022981Y0002180D02*
X0020137D01*
X0023001Y0002090D02*
X0020228D01*
X0023040Y0002000D02*
X0020263D01*
X0023102Y0001910D02*
X0020264D01*
X0023201Y0001820D02*
X0020234D01*
X0022976Y0001730D02*
X0020152D01*
X0030440Y0007661D02*
Y0006528D01*
X0020180Y0006352D02*
Y0002148D01*
X0020090Y0006298D02*
Y0002202D01*
X0020000Y0006282D02*
Y0002218D01*
X0019910Y0006298D02*
Y0002202D01*
X0013927Y0005330D02*
X0011470D01*
X0029720Y0006534D02*
Y0000587D01*
X0029630Y0006561D02*
Y0005448D01*
X0029450Y0010055D02*
Y0005518D01*
X0029360Y0009834D02*
Y0005502D01*
X0030235Y0005060D02*
X0029638D01*
X0030191Y0004970D02*
X0029689D01*
X0030183Y0004880D02*
X0029716D01*
X0030206Y0004790D02*
X0029711D01*
X0030185Y0004610D02*
X0029568D01*
X0026191Y0003890D02*
X0022367D01*
X0027233Y0006770D02*
X0025639D01*
X0029511Y0006680D02*
X0027758D01*
X0027560Y0010239D02*
Y0007011D01*
X0022747Y0010370D02*
X0021552D01*
X0027200Y0010732D02*
Y0006698D01*
X0029489Y0006860D02*
X0027744D01*
X0029484Y0006770D02*
X0027767D01*
X0027290Y0010334D02*
Y0006916D01*
X0030056Y0006410D02*
X0027564D01*
X0030033Y0006320D02*
X0027534D01*
X0030041Y0006230D02*
X0027452D01*
X0030502Y0007580D02*
X0022934D01*
X0030080Y0009241D02*
Y0006452D01*
X0030530Y0007558D02*
Y0006437D01*
X0030350Y0009322D02*
Y0006563D01*
X0030260Y0009256D02*
Y0006564D01*
X0030170Y0009233D02*
Y0006534D01*
X0035390Y0005989D02*
Y0000200D01*
X0035300Y0006029D02*
Y0000200D01*
X0033547Y0006320D02*
X0030567D01*
X0033466Y0006230D02*
X0030558D01*
X0033435Y0006140D02*
X0030514D01*
X0033437Y0006050D02*
X0030395D01*
X0036236Y0007490D02*
X0032152D01*
X0030170Y0001593D02*
Y0000602D01*
X0030530Y0006163D02*
Y0005155D01*
X0030440Y0006072D02*
Y0005167D01*
X0030350Y0006037D02*
Y0005148D01*
X0030260Y0004711D02*
Y0004678D01*
X0031790Y0004135D02*
Y0001514D01*
X0031886Y0004610D02*
X0030614D01*
X0031743Y0004520D02*
X0030658D01*
X0031694Y0004430D02*
X0030667D01*
X0031682Y0004340D02*
X0030644D01*
X0033461Y0003080D02*
X0032739D01*
X0033581Y0003440D02*
X0032618D01*
X0033478Y0003350D02*
X0032722D01*
X0033439Y0003260D02*
X0032761D01*
X0033434Y0003170D02*
X0032766D01*
X0032780Y0008884D02*
Y0002934D01*
X0032600Y0005454D02*
Y0003448D01*
X0032510Y0005335D02*
Y0003467D01*
X0032420Y0005291D02*
Y0003455D01*
X0032330Y0004702D02*
Y0003407D01*
X0032240Y0004648D02*
Y0003263D01*
X0033534Y0002990D02*
X0032666D01*
X0030986Y0005960D02*
X0025566D01*
X0027380Y0010261D02*
Y0006989D01*
X0025580Y0006452D02*
Y0005948D01*
X0025490Y0006398D02*
Y0006002D01*
X0025400Y0006382D02*
Y0006018D01*
X0025130Y0011550D02*
Y0007184D01*
X0030843Y0005870D02*
X0025639D01*
X0030794Y0005780D02*
X0025666D01*
X0030782Y0005690D02*
X0025661D01*
X0022034Y0001370D02*
X0011470D01*
X0030354Y0005150D02*
X0029698D01*
X0033472Y0005960D02*
X0031113D01*
X0030980Y0010251D02*
Y0005958D01*
X0030890Y0007614D02*
Y0005914D01*
X0033563Y0005870D02*
X0031257D01*
X0032213Y0005780D02*
X0031305D01*
X0032122Y0005690D02*
X0031317D01*
X0021530Y0008397D02*
Y0003066D01*
X0023600Y0008104D02*
Y0008072D01*
X0023510Y0008106D02*
Y0007968D01*
X0024278Y0007850D02*
X0024018D01*
X0024381Y0007760D02*
X0024002D01*
X0030436Y0007670D02*
X0023948D01*
X0021260Y0010337D02*
Y0008613D01*
X0021170Y0010371D02*
Y0008757D01*
X0021572Y0008750D02*
X0021178D01*
X0021535Y0008390D02*
X0021214D01*
X0021506Y0008660D02*
X0021244D01*
X0020900Y0010476D02*
Y0008798D01*
X0020810Y0010396D02*
Y0008738D01*
X0021080Y0010432D02*
Y0008805D01*
X0020990Y0010544D02*
Y0008817D01*
X0021483Y0008570D02*
X0021267D01*
X0021491Y0008480D02*
X0021258D01*
X0021654Y0008300D02*
X0021095D01*
X0028370Y0011550D02*
Y0005605D01*
X0039150Y0000650D02*
X0036428D01*
X0039150Y0000560D02*
X0036482D01*
X0039150Y0000470D02*
X0036498D01*
X0039150Y0000380D02*
X0036482D01*
X0036470Y0002961D02*
Y0000588D01*
X0036380Y0002934D02*
Y0000692D01*
X0036290Y0002939D02*
Y0000731D01*
X0036110Y0003081D02*
Y0000709D01*
X0036020Y0009567D02*
Y0000636D01*
X0020904Y0008300D02*
X0018798D01*
X0036032Y0000650D02*
X0032768D01*
X0035978Y0000560D02*
X0032822D01*
X0035962Y0000470D02*
X0032838D01*
X0035978Y0000380D02*
X0032822D01*
X0032690Y0001111D02*
Y0000709D01*
X0032510Y0001032D02*
Y0000731D01*
X0032420Y0001044D02*
Y0000692D01*
X0032330Y0001093D02*
Y0000588D01*
X0032780Y0002466D02*
Y0000636D01*
X0016982Y0000740D02*
X0015802D01*
X0017002Y0000650D02*
X0015818D01*
X0017061Y0000560D02*
X0015802D01*
X0015770Y0009852D02*
Y0000802D01*
X0015680Y0006802D02*
Y0000884D01*
X0015500Y0006732D02*
Y0000913D01*
X0015590Y0006748D02*
Y0000914D01*
X0015410Y0006748D02*
Y0000878D01*
X0015320Y0006802D02*
Y0000787D01*
X0016994Y0000830D02*
X0015748D01*
X0017716Y0000470D02*
X0015748D01*
X0030644Y0001730D02*
X0030258D01*
X0030632Y0001640D02*
X0030214D01*
X0030652Y0001550D02*
X0030095D01*
X0030693Y0001820D02*
X0030267D01*
X0030836Y0001910D02*
X0030244D01*
X0037095Y0002000D02*
X0030178D01*
X0030260Y0004222D02*
Y0001863D01*
X0030170Y0004313D02*
Y0002007D01*
X0030080Y0006147D02*
Y0002055D01*
X0029990Y0006681D02*
Y0002067D01*
X0029900Y0006578D02*
Y0002048D01*
X0029810Y0006539D02*
Y0001988D01*
X0027020Y0010802D02*
Y0004267D01*
X0039150Y0005870D02*
X0038945D01*
X0026930Y0011550D02*
Y0004258D01*
X0026840Y0011550D02*
Y0004214D01*
X0028802Y0004070D02*
X0027258D01*
X0028732Y0004250D02*
X0027095D01*
X0028748Y0004160D02*
X0027214D01*
X0033466Y0003980D02*
X0027267D01*
X0033435Y0003890D02*
X0027244D01*
X0033437Y0003800D02*
X0027178D01*
X0027200Y0006202D02*
Y0004178D01*
X0027110Y0006261D02*
Y0004244D01*
X0026293Y0003080D02*
X0022116D01*
X0027085Y0003440D02*
X0026688D01*
X0027087Y0003350D02*
X0026748D01*
X0027122Y0003260D02*
X0026767D01*
X0027213Y0003170D02*
X0026755D01*
X0026436Y0002990D02*
X0022111D01*
X0032261Y0003080D02*
X0026707D01*
X0026930Y0003741D02*
Y0000200D01*
X0026660Y0003855D02*
Y0003464D01*
X0026570Y0003769D02*
Y0003508D01*
X0026480Y0003736D02*
Y0003517D01*
X0026390Y0003736D02*
Y0003494D01*
X0026257Y0003800D02*
X0022348D01*
X0026750Y0011550D02*
Y0004095D01*
X0026660Y0011550D02*
Y0004145D01*
X0026570Y0011550D02*
Y0004231D01*
X0026480Y0011550D02*
Y0004264D01*
X0026390Y0011550D02*
Y0004264D01*
X0026300Y0011550D02*
Y0004231D01*
X0026750Y0003904D02*
Y0003345D01*
X0026741Y0004070D02*
X0026693D01*
X0026904Y0004250D02*
X0026530D01*
X0026785Y0004160D02*
X0026649D01*
X0026733Y0003980D02*
X0026702D01*
X0027290Y0004906D02*
Y0003661D01*
X0027352Y0004790D02*
X0013517D01*
X0027650Y0006528D02*
Y0005218D01*
X0028272Y0005150D02*
X0027748D01*
X0029261Y0005060D02*
X0027802D01*
X0029211Y0004970D02*
X0027818D01*
X0028213Y0004880D02*
X0027802D01*
X0028122Y0004790D02*
X0027748D01*
X0027560Y0004702D02*
Y0003566D01*
X0027470Y0004714D02*
Y0003639D01*
X0027380Y0004763D02*
Y0003666D01*
X0038055Y0006050D02*
X0037428D01*
X0038055Y0005960D02*
X0037494D01*
X0037460Y0008034D02*
Y0006016D01*
X0037370Y0007961D02*
Y0006089D01*
X0037280Y0007934D02*
Y0006116D01*
X0037190Y0007939D02*
Y0006111D01*
X0037100Y0007978D02*
Y0006072D01*
X0037010Y0008081D02*
Y0005968D01*
X0038217Y0005780D02*
X0037508D01*
X0038141Y0005690D02*
X0037464D01*
X0038098Y0005600D02*
X0037345D01*
X0038055Y0005870D02*
X0037517D01*
X0037460Y0009489D02*
Y0008366D01*
X0037370Y0009536D02*
Y0008439D01*
X0037280Y0009599D02*
Y0008466D01*
X0037190Y0009684D02*
Y0008461D01*
X0037100Y0009803D02*
Y0008422D01*
X0037010Y0010003D02*
Y0008318D01*
X0029360Y0011550D02*
Y0010945D01*
X0039150Y0008120D02*
X0037505D01*
X0039150Y0008030D02*
X0037457D01*
X0039150Y0008390D02*
X0037438D01*
X0039150Y0008570D02*
X0033507D01*
X0039150Y0008480D02*
X0033555D01*
X0035236Y0006410D02*
X0030544D01*
X0035660Y0006786D02*
Y0006417D01*
X0035570Y0006643D02*
Y0006489D01*
X0035480Y0006594D02*
Y0006516D01*
X0035390Y0006582D02*
Y0006511D01*
X0035300Y0006602D02*
Y0006471D01*
X0035210Y0006661D02*
Y0006367D01*
X0038055Y0006500D02*
X0035546D01*
X0038055Y0006410D02*
X0035665D01*
X0035192Y0006320D02*
X0034952D01*
X0035184Y0006230D02*
X0035034D01*
X0035206Y0006140D02*
X0035064D01*
X0024050Y0008022D02*
Y0007072D01*
X0023600Y0007628D02*
Y0005672D01*
X0024411Y0007040D02*
X0024388D01*
X0022976Y0000740D02*
X0020728D01*
X0027202Y0000650D02*
X0020763D01*
X0027182Y0000560D02*
X0020764D01*
X0022976Y0000830D02*
X0020637D01*
X0027194Y0000470D02*
X0020734D01*
X0027243Y0000380D02*
X0020652D01*
X0020720Y0005816D02*
Y0000752D01*
X0020630Y0005897D02*
Y0000834D01*
X0020540Y0006285D02*
Y0000864D01*
X0020450Y0006287D02*
Y0000863D01*
X0020360Y0006322D02*
Y0000828D01*
X0020270Y0006413D02*
Y0000737D01*
X0022976Y0001010D02*
X0017313D01*
X0020360Y0000372D02*
Y0000200D01*
X0017722Y0000740D02*
X0017517D01*
X0017687Y0000650D02*
X0017498D01*
X0017480Y0006444D02*
Y0000887D01*
X0017390Y0006432D02*
Y0000978D01*
X0017300Y0006452D02*
Y0001013D01*
X0017210Y0006511D02*
Y0001014D01*
X0017120Y0004347D02*
Y0000984D01*
X0017030Y0004266D02*
Y0000902D01*
X0022976Y0000920D02*
X0017457D01*
X0020237Y0000650D02*
X0018213D01*
X0017685Y0000560D02*
X0017438D01*
X0017390Y0000522D02*
Y0000200D01*
X0018200Y0000504D02*
Y0000200D01*
X0018110Y0000385D02*
Y0000200D01*
X0017930Y0011550D02*
Y0000867D01*
X0017840Y0011550D02*
Y0000844D01*
X0017750Y0011550D02*
Y0000778D01*
X0020272Y0000740D02*
X0018178D01*
X0017813Y0000830D02*
X0017505D01*
X0020235Y0000560D02*
X0018214D01*
X0015352Y0000830D02*
X0012484D01*
X0013160Y0004548D02*
Y0000200D01*
X0013430Y0006216D02*
Y0004998D01*
X0013340Y0006185D02*
Y0005052D01*
X0013250Y0006187D02*
Y0005068D01*
X0013160Y0006222D02*
Y0005052D01*
X0013070Y0006313D02*
Y0004998D01*
X0013066Y0006320D02*
X0011470D01*
X0013002Y0004700D02*
X0011470D01*
X0013061Y0004610D02*
X0011470D01*
X0013186Y0005060D02*
X0011470D01*
X0014106Y0005240D02*
X0011470D01*
X0019802Y0007670D02*
X0014774D01*
X0023960Y0007684D02*
Y0006968D01*
X0022311Y0007940D02*
X0020252D01*
X0022252Y0007850D02*
X0020268D01*
X0022232Y0007760D02*
X0020252D01*
X0022244Y0007670D02*
X0020198D01*
X0020180Y0007652D02*
Y0006748D01*
X0020090Y0007598D02*
Y0006802D01*
X0020000Y0007582D02*
Y0006818D01*
X0019910Y0007598D02*
Y0006802D01*
X0017750Y0000422D02*
Y0000200D01*
X0012440Y0000511D02*
Y0000200D01*
X0012350Y0000452D02*
Y0000200D01*
X0012260Y0000432D02*
Y0000200D01*
X0012170Y0000444D02*
Y0000200D01*
X0017120Y0000516D02*
Y0000200D01*
X0015298Y0000740D02*
X0012514D01*
X0017043Y0000920D02*
X0012402D01*
X0011990Y0011550D02*
Y0000868D01*
X0011900Y0011550D02*
Y0000972D01*
X0011810Y0011550D02*
Y0001011D01*
X0011720Y0011550D02*
Y0001016D01*
G01X0004963Y0001425D02*
G03X0004569Y0001160I0000000J0000425D01*
G01X0009802Y0000700D02*
G03X0010070Y0000432I0000268J0000000D01*
G03X0010338Y0000700I0000000J0000268D01*
G03X0010070Y0000968I0000268J0000000D01*
G03X0009802Y0000700I0000000J0000268D01*
G01X0008732Y0006000D02*
G03X0009000Y0005732I0000268J0000000D01*
G03X0009268Y0006000I0000000J0000268D01*
G03X0009000Y0006268I0000268J0000000D01*
G03X0008732Y0006000I0000000J0000268D01*
G01X0006827Y0004055D02*
G03X0007095Y0003787I0000268J0000000D01*
G03X0007363Y0004055I0000000J0000268D01*
G03X0007095Y0004323I0000268J0000000D01*
G03X0006827Y0004055I0000000J0000268D01*
G01X0007482Y0005000D02*
G03X0007750Y0004732I0000268J0000000D01*
G03X0008018Y0005000I0000000J0000268D01*
G03X0007750Y0005268I0000268J0000000D01*
G03X0007482Y0005000I0000000J0000268D01*
G01X0007432Y0006350D02*
G03X0007700Y0006082I0000268J0000000D01*
G03X0007968Y0006350I0000000J0000268D01*
G03X0007700Y0006618I0000268J0000000D01*
G03X0007432Y0006350I0000000J0000268D01*
Y0002150D02*
G03X0007700Y0001882I0000268J0000000D01*
G03X0007968Y0002150I0000000J0000268D01*
G03X0007700Y0002418I0000268J0000000D01*
G03X0007432Y0002150I0000000J0000268D01*
G01X0008532D02*
G03X0008800Y0001882I0000268J0000000D01*
G03X0009068Y0002150I0000000J0000268D01*
G03X0008800Y0002418I0000268J0000000D01*
G03X0008532Y0002150I0000000J0000268D01*
G01X0007982Y0001450D02*
G03X0008250Y0001182I0000268J0000000D01*
G03X0008518Y0001450I0000000J0000268D01*
G03X0008250Y0001718I0000268J0000000D01*
G03X0007982Y0001450I0000000J0000268D01*
G01X0009032D02*
G03X0009300Y0001182I0000268J0000000D01*
G03X0009568Y0001450I0000000J0000268D01*
G03X0009300Y0001718I0000268J0000000D01*
G03X0009032Y0001450I0000000J0000268D01*
G01X0006932D02*
G03X0007200Y0001182I0000268J0000000D01*
G03X0007468Y0001450I0000000J0000268D01*
G03X0007200Y0001718I0000268J0000000D01*
G03X0006932Y0001450I0000000J0000268D01*
Y0002800D02*
G03X0007200Y0002532I0000268J0000000D01*
G03X0007468Y0002800I0000000J0000268D01*
G03X0007200Y0003068I0000268J0000000D01*
G03X0006932Y0002800I0000000J0000268D01*
G01X0007982D02*
G03X0008250Y0002532I0000268J0000000D01*
G03X0008518Y0002800I0000000J0000268D01*
G03X0008250Y0003068I0000268J0000000D01*
G03X0007982Y0002800I0000000J0000268D01*
G01X0009032D02*
G03X0009300Y0002532I0000268J0000000D01*
G03X0009568Y0002800I0000000J0000268D01*
G03X0009300Y0003068I0000268J0000000D01*
G03X0009032Y0002800I0000000J0000268D01*
G01X0003750Y0001000D02*
G03X0004175Y0000575I0000425J0000000D01*
G03X0004569Y0000840I0000000J0000425D01*
G01X0004175Y0001425D02*
G03X0003750Y0001000I0000000J0000425D01*
G01X0004963Y0000575D02*
G03X0005305Y0000748I0000000J0000425D01*
G01X0004569Y0000840D02*
G03X0004963Y0000575I0000394J0000160D01*
G01X0004569Y0001160D02*
G03X0004175Y0001425I0000394J0000160D01*
G01X0005287Y0010325D02*
G03X0005712Y0010750I0000000J0000425D01*
G03X0005287Y0011175I0000425J0000000D01*
G01X0004945Y0010498D02*
G03X0005287Y0010325I0000342J0000252D01*
G01X0000756Y0001575D02*
G03X0001575Y0000756I0000819J0000000D01*
G03X0002394Y0001575I0000000J0000819D01*
G03X0001575Y0002394I0000819J0000000D01*
G03X0000756Y0001575I0000000J0000819D01*
Y0010236D02*
G03X0001575Y0009417I0000819J0000000D01*
G03X0002394Y0010236I0000000J0000819D01*
G03X0001575Y0011055I0000819J0000000D01*
G03X0000756Y0010236I0000000J0000819D01*
G01X0011280Y0000200D02*
G03X0011287Y0000150I0000170J0000000D01*
G01X0005305Y0001251D02*
G03X0004963Y0001424I0000342J0000251D01*
G01X0005287Y0011175D02*
G03X0004945Y0011001I0000000J0000425D01*
G01X0030668Y0004450D02*
G03X0030567Y0004659I0000268J0000000D01*
G01X0032232Y0003200D02*
G03X0032500Y0002932I0000268J0000000D01*
G01X0032768Y0003200D02*
G03X0032500Y0003468I0000268J0000000D01*
G03X0032232Y0003200I0000000J0000268D01*
G01X0025132Y0005750D02*
G03X0025400Y0005482I0000268J0000000D01*
G03X0025668Y0005750I0000000J0000268D01*
G03X0025400Y0006018I0000268J0000000D01*
G03X0025132Y0005750I0000000J0000268D01*
G01X0030782Y0005700D02*
G03X0031050Y0005432I0000268J0000000D01*
G03X0031318Y0005700I0000000J0000268D01*
G03X0031050Y0005968I0000268J0000000D01*
G03X0030782Y0005700I0000000J0000268D01*
G01X0030982Y0005100D02*
G03X0031250Y0004832I0000268J0000000D01*
G03X0031518Y0005100I0000000J0000268D01*
G03X0031250Y0005368I0000268J0000000D01*
G03X0030982Y0005100I0000000J0000268D01*
G01X0031882Y0004900D02*
G03X0032150Y0004632I0000268J0000000D01*
G03X0032418Y0004900I0000000J0000268D01*
G03X0032150Y0005168I0000268J0000000D01*
G03X0031882Y0004900I0000000J0000268D01*
G01X0032082Y0005550D02*
G03X0032350Y0005282I0000268J0000000D01*
G03X0032618Y0005550I0000000J0000268D01*
G03X0032350Y0005818I0000268J0000000D01*
G03X0032082Y0005550I0000000J0000268D01*
G01X0021950Y0010482D02*
G03X0022218Y0010750I0000000J0000268D01*
G03X0021950Y0011018I0000268J0000000D01*
G01X0021748Y0010573D02*
G03X0021950Y0010481I0000202J0000177D01*
G01X0023586Y0008157D02*
G03X0023611Y0008079I0000264J0000043D01*
G01X0024118Y0008200D02*
G03X0023850Y0008468I0000268J0000000D01*
G01X0023482Y0005450D02*
G03X0023750Y0005182I0000268J0000000D01*
G03X0024018Y0005450I0000000J0000268D01*
G03X0023750Y0005718I0000268J0000000D01*
G03X0023482Y0005450I0000000J0000268D01*
G01X0024632Y0003450D02*
G03X0024900Y0003182I0000268J0000000D01*
G03X0025168Y0003450I0000000J0000268D01*
G03X0024900Y0003718I0000268J0000000D01*
G03X0024632Y0003450I0000000J0000268D01*
G01X0017932Y0004050D02*
G03X0018200Y0003782I0000268J0000000D01*
G03X0018450Y0003954I0000000J0000268D01*
G01X0018200Y0004318D02*
G03X0017932Y0004050I0000000J0000268D01*
G01X0029882Y0009500D02*
G03X0030150Y0009232I0000268J0000000D01*
G03X0030418Y0009500I0000000J0000268D01*
G03X0030150Y0009768I0000268J0000000D01*
G03X0029882Y0009500I0000000J0000268D01*
G01X0036082Y0003200D02*
G03X0036350Y0002932I0000268J0000000D01*
G03X0036618Y0003200I0000000J0000268D01*
G03X0036350Y0003468I0000268J0000000D01*
G03X0036082Y0003200I0000000J0000268D01*
G01X0016632Y0004500D02*
G03X0016900Y0004232I0000268J0000000D01*
G03X0017168Y0004500I0000000J0000268D01*
G03X0016900Y0004768I0000268J0000000D01*
G03X0016632Y0004500I0000000J0000268D01*
G01X0018700Y0003782D02*
G03X0018968Y0004050I0000000J0000268D01*
G03X0018700Y0004318I0000268J0000000D01*
G01X0018450Y0003954D02*
G03X0018700Y0003782I0000250J0000096D01*
G01X0019232Y0004450D02*
G03X0019500Y0004182I0000268J0000000D01*
G03X0019768Y0004450I0000000J0000268D01*
G03X0019500Y0004718I0000268J0000000D01*
G03X0019232Y0004450I0000000J0000268D01*
G01X0018282Y0008400D02*
G03X0018550Y0008132I0000268J0000000D01*
G03X0018818Y0008400I0000000J0000268D01*
G03X0018550Y0008668I0000268J0000000D01*
G03X0018282Y0008400I0000000J0000268D01*
G01X0016732Y0006700D02*
G03X0017000Y0006432I0000268J0000000D01*
G03X0017200Y0006522I0000000J0000268D01*
G01X0017000Y0006968D02*
G03X0016732Y0006700I0000000J0000268D01*
G01X0018650Y0005482D02*
G03X0018918Y0005750I0000000J0000268D01*
G03X0018650Y0006018I0000268J0000000D01*
G01X0018450Y0005572D02*
G03X0018650Y0005482I0000200J0000178D01*
G01X0018982Y0001950D02*
G03X0019250Y0001682I0000268J0000000D01*
G03X0019518Y0001950I0000000J0000268D01*
G03X0019250Y0002218I0000268J0000000D01*
G03X0018982Y0001950I0000000J0000268D01*
G01X0028732Y0004250D02*
G03X0029000Y0003982I0000268J0000000D01*
G03X0029268Y0004250I0000000J0000268D01*
G03X0029000Y0004518I0000268J0000000D01*
G03X0028732Y0004250I0000000J0000268D01*
G01X0024132Y0006450D02*
G03X0024400Y0006182I0000268J0000000D01*
G03X0024668Y0006450I0000000J0000268D01*
G01X0025000Y0007218D02*
G03X0024758Y0007065I0000000J0000268D01*
G01X0024668Y0006450D02*
G03X0024631Y0006584I0000268J0000000D01*
G01X0017400Y0006432D02*
G03X0017668Y0006700I0000000J0000268D01*
G03X0017400Y0006968I0000268J0000000D01*
G01X0017200Y0006522D02*
G03X0017400Y0006432I0000200J0000178D01*
G01X0020932Y0004400D02*
G03X0021200Y0004132I0000268J0000000D01*
G03X0021468Y0004400I0000000J0000268D01*
G03X0021200Y0004668I0000268J0000000D01*
G03X0020932Y0004400I0000000J0000268D01*
G01X0027532Y0001600D02*
G03X0027800Y0001332I0000268J0000000D01*
G03X0028068Y0001600I0000000J0000268D01*
G03X0027800Y0001868I0000268J0000000D01*
G03X0027532Y0001600I0000000J0000268D01*
G01X0027082Y0003400D02*
G03X0027350Y0003132I0000268J0000000D01*
G03X0027618Y0003400I0000000J0000268D01*
G03X0027350Y0003668I0000268J0000000D01*
G03X0027082Y0003400I0000000J0000268D01*
G01X0034750Y0002932D02*
G03X0035018Y0003200I0000000J0000268D01*
G03X0034750Y0003468I0000268J0000000D01*
G01X0033982Y0003200D02*
G03X0034250Y0002932I0000268J0000000D01*
Y0003468D02*
G03X0033982Y0003200I0000000J0000268D01*
G01X0033432D02*
G03X0033700Y0002932I0000268J0000000D01*
G03X0033968Y0003200I0000000J0000268D01*
G03X0033700Y0003468I0000268J0000000D01*
G03X0033432Y0003200I0000000J0000268D01*
G01X0034532Y0003850D02*
G03X0034800Y0003582I0000268J0000000D01*
G03X0035068Y0003850I0000000J0000268D01*
G03X0034800Y0004118I0000268J0000000D01*
G03X0034532Y0003850I0000000J0000268D01*
G01X0033982D02*
G03X0034250Y0003582I0000268J0000000D01*
G03X0034518Y0003850I0000000J0000268D01*
G03X0034250Y0004118I0000268J0000000D01*
G03X0033982Y0003850I0000000J0000268D01*
G01X0033432D02*
G03X0033700Y0003582I0000268J0000000D01*
G03X0033968Y0003850I0000000J0000268D01*
G03X0033700Y0004118I0000268J0000000D01*
G03X0033432Y0003850I0000000J0000268D01*
G01X0034532Y0004550D02*
G03X0034800Y0004282I0000268J0000000D01*
G03X0035068Y0004550I0000000J0000268D01*
G03X0034800Y0004818I0000268J0000000D01*
G03X0034532Y0004550I0000000J0000268D01*
G01X0033982D02*
G03X0034250Y0004282I0000268J0000000D01*
G03X0034518Y0004550I0000000J0000268D01*
G03X0034250Y0004818I0000268J0000000D01*
G03X0033982Y0004550I0000000J0000268D01*
G01X0033432D02*
G03X0033700Y0004282I0000268J0000000D01*
G03X0033968Y0004550I0000000J0000268D01*
G03X0033700Y0004818I0000268J0000000D01*
G03X0033432Y0004550I0000000J0000268D01*
G01X0034532Y0005350D02*
G03X0034800Y0005082I0000268J0000000D01*
G03X0035068Y0005350I0000000J0000268D01*
G03X0034800Y0005618I0000268J0000000D01*
G03X0034532Y0005350I0000000J0000268D01*
G01X0033982D02*
G03X0034250Y0005082I0000268J0000000D01*
G03X0034518Y0005350I0000000J0000268D01*
G03X0034250Y0005618I0000268J0000000D01*
G03X0033982Y0005350I0000000J0000268D01*
G01X0033432D02*
G03X0033700Y0005082I0000268J0000000D01*
G03X0033968Y0005350I0000000J0000268D01*
G03X0033700Y0005618I0000268J0000000D01*
G03X0033432Y0005350I0000000J0000268D01*
G01X0034532Y0006100D02*
G03X0034800Y0005832I0000268J0000000D01*
G03X0035068Y0006100I0000000J0000268D01*
G03X0034800Y0006368I0000268J0000000D01*
G03X0034532Y0006100I0000000J0000268D01*
Y0006850D02*
G03X0034800Y0006582I0000268J0000000D01*
G03X0035068Y0006850I0000000J0000268D01*
G03X0034800Y0007118I0000268J0000000D01*
G03X0034532Y0006850I0000000J0000268D01*
G01X0033982Y0006100D02*
G03X0034250Y0005832I0000268J0000000D01*
G03X0034518Y0006100I0000000J0000268D01*
G03X0034250Y0006368I0000268J0000000D01*
G03X0033982Y0006100I0000000J0000268D01*
G01X0033432D02*
G03X0033700Y0005832I0000268J0000000D01*
G03X0033968Y0006100I0000000J0000268D01*
G03X0033700Y0006368I0000268J0000000D01*
G03X0033432Y0006100I0000000J0000268D01*
G01X0035132Y0006850D02*
G03X0035400Y0006582I0000268J0000000D01*
G03X0035668Y0006850I0000000J0000268D01*
G03X0035400Y0007118I0000268J0000000D01*
G03X0035132Y0006850I0000000J0000268D01*
G01X0033982D02*
G03X0034250Y0006582I0000268J0000000D01*
G03X0034518Y0006850I0000000J0000268D01*
G03X0034250Y0007118I0000268J0000000D01*
G03X0033982Y0006850I0000000J0000268D01*
G01X0033432D02*
G03X0033700Y0006582I0000268J0000000D01*
G03X0033968Y0006850I0000000J0000268D01*
G03X0033700Y0007118I0000268J0000000D01*
G03X0033432Y0006850I0000000J0000268D01*
G01X0036032Y0005250D02*
G03X0036300Y0004982I0000268J0000000D01*
G03X0036568Y0005250I0000000J0000268D01*
G03X0036300Y0005518I0000268J0000000D01*
G03X0036032Y0005250I0000000J0000268D01*
G01X0029682Y0000450D02*
G03X0029854Y0000200I0000268J0000000D01*
G01X0030218Y0000450D02*
G03X0029950Y0000718I0000268J0000000D01*
G03X0029682Y0000450I0000000J0000268D01*
G01X0016232Y0008950D02*
G03X0016500Y0008682I0000268J0000000D01*
G03X0016768Y0008950I0000000J0000268D01*
G03X0016500Y0009218I0000268J0000000D01*
G03X0016232Y0008950I0000000J0000268D01*
G01X0013720Y0005750D02*
G03X0014250Y0005220I0000530J0000000D01*
G03X0014780Y0005750I0000000J0000530D01*
G03X0014426Y0006250I0000530J0000000D01*
G01X0013720Y0006750D02*
G03X0014074Y0006250I0000530J0000000D01*
G01X0014780Y0006750D02*
G03X0014426Y0007250I0000530J0000000D01*
G01X0013720Y0007750D02*
G03X0014074Y0007250I0000530J0000000D01*
G01X0014780Y0007750D02*
G03X0014250Y0008280I0000530J0000000D01*
G03X0013720Y0007750I0000000J0000530D01*
G01X0016508Y0010250D02*
G03X0016953Y0009805I0000445J0000000D01*
G03X0017398Y0010250I0000000J0000445D01*
G01X0017397D02*
G03X0016953Y0010694I0000444J0000000D01*
Y0010695D02*
G03X0016508Y0010250I0000000J0000445D01*
G01X0015524D02*
G03X0015968Y0009806I0000444J0000000D01*
Y0009805D02*
G03X0016413Y0010250I0000000J0000445D01*
G03X0015968Y0010695I0000445J0000000D01*
G03X0015523Y0010250I0000000J0000445D01*
G01X0014539D02*
G03X0014984Y0009805I0000445J0000000D01*
G03X0015429Y0010250I0000000J0000445D01*
G03X0014984Y0010695I0000445J0000000D01*
G03X0014539Y0010250I0000000J0000445D01*
G01X0022976Y0002250D02*
G03X0023282Y0001774I0000524J0000000D01*
G01X0024344Y0001750D02*
G03X0024024Y0001467I0000156J0000500D01*
G01X0023500Y0002774D02*
G03X0022976Y0002250I0000000J0000524D01*
G01X0026024D02*
G03X0025500Y0002774I0000524J0000000D01*
Y0000726D02*
G03X0026024Y0001250I0000000J0000524D01*
G01X0025000Y0001094D02*
G03X0025500Y0000726I0000500J0000156D01*
G01X0024500D02*
G03X0025000Y0001094I0000000J0000524D01*
G01X0024024Y0001032D02*
G03X0024500Y0000726I0000476J0000218D01*
G01X0021362Y0010325D02*
G03X0021749Y0010573I0000000J0000425D01*
G01X0020968Y0010590D02*
G03X0021362Y0010325I0000394J0000160D01*
G01X0021950Y0011018D02*
G03X0021749Y0010926I0000000J0000268D01*
G01X0020575Y0010325D02*
G03X0020968Y0010590I0000000J0000425D01*
G01X0020181D02*
G03X0020575Y0010325I0000394J0000160D01*
G01X0021362Y0011175D02*
G03X0020968Y0010910I0000000J0000425D01*
G01X0019787Y0010325D02*
G03X0020181Y0010590I0000000J0000425D01*
G01X0019445Y0010498D02*
G03X0019787Y0010325I0000342J0000252D01*
G01X0020575Y0011175D02*
G03X0020181Y0010910I0000000J0000425D01*
G01X0031325Y0010075D02*
G03X0031750Y0010500I0000000J0000425D01*
G03X0031325Y0010925I0000425J0000000D01*
G01X0030931Y0010340D02*
G03X0031325Y0010075I0000394J0000160D01*
G01X0029418Y0010000D02*
G03X0029412Y0010055I0000268J0000000D01*
G01X0030537Y0010075D02*
G03X0030931Y0010340I0000000J0000425D01*
G01X0030195Y0010248D02*
G03X0030537Y0010075I0000342J0000252D01*
G01X0031325Y0010925D02*
G03X0030931Y0010660I0000000J0000425D01*
G01X0038075Y0003888D02*
G03X0038500Y0003463I0000425J0000000D01*
G03X0038925Y0003888I0000000J0000425D01*
G03X0038660Y0004281I0000425J0000000D01*
G01X0038075Y0004675D02*
G03X0038340Y0004281I0000425J0000000D01*
G01X0038925Y0004675D02*
G03X0038660Y0005069I0000425J0000000D01*
G01X0038340Y0004281D02*
G03X0038076Y0003888I0000160J0000393D01*
G01X0038075Y0005463D02*
G03X0038340Y0005069I0000425J0000000D01*
G01X0038925Y0005463D02*
G03X0038751Y0005805I0000425J0000000D01*
G01X0038340Y0005069D02*
G03X0038075Y0004675I0000160J0000394D01*
G01X0036976Y0010236D02*
G03X0037795Y0009417I0000819J0000000D01*
G03X0038614Y0010236I0000000J0000819D01*
G03X0037795Y0011055I0000819J0000000D01*
G03X0036976Y0010236I0000000J0000819D01*
Y0001575D02*
G03X0037795Y0000756I0000819J0000000D01*
G03X0038614Y0001575I0000000J0000819D01*
G03X0037795Y0002394I0000819J0000000D01*
G03X0036976Y0001575I0000000J0000819D01*
G01X0038660Y0005069D02*
G03X0038925Y0005463I0000160J0000394D01*
G01X0038660Y0004281D02*
G03X0038925Y0004675I0000160J0000394D01*
G01X0030537Y0010925D02*
G03X0030195Y0010751I0000000J0000425D01*
G01X0034500Y0003104D02*
G03X0034750Y0002932I0000250J0000096D01*
G01X0032632Y0002967D02*
G03X0032768Y0003200I0000132J0000233D01*
G01X0032518Y0002933D02*
G03X0032382Y0002700I0000132J0000233D01*
G01X0029272Y0005050D02*
G03X0029182Y0004850I0000178J0000200D01*
G01X0019787Y0011175D02*
G03X0019445Y0011001I0000000J0000425D01*
G01X0030931Y0010660D02*
G03X0030537Y0010925I0000394J0000160D01*
G01X0022198Y0004149D02*
G03X0022218Y0004250I0000248J0000101D01*
G01X0027235Y0006710D02*
G03X0027032Y0006450I0000065J0000260D01*
G01X0025655Y0001750D02*
G03X0026023Y0002250I0000155J0000500D01*
G01X0023717Y0001774D02*
G03X0024000Y0002094I0000217J0000476D01*
G01X0023550Y0009818D02*
G03X0023350Y0009728I0000000J0000268D01*
G03X0023150Y0009818I0000200J0000178D01*
G01X0023850Y0008468D02*
G03X0023664Y0008393I0000000J0000268D01*
G01X0022435Y0007410D02*
G03X0022232Y0007150I0000065J0000260D01*
G01X0021582Y0003055D02*
G03X0021500Y0003068I0000082J0000255D01*
G01X0021850Y0003318D02*
G03X0021582Y0003055I0000000J0000268D01*
G01X0021500Y0003068D02*
G03X0021465Y0003065I0000000J0000268D01*
G01X0020968Y0010910D02*
G03X0020575Y0011174I0000393J0000160D01*
G01X0020181Y0010910D02*
G03X0019787Y0011175I0000394J0000160D01*
G01X0018450Y0004145D02*
G03X0018200Y0004317I0000250J0000095D01*
G01X0018700Y0004318D02*
G03X0018450Y0004145I0000000J0000268D01*
G01X0025400Y0006918D02*
G03X0025257Y0006876I0000000J0000268D01*
G01X0014074Y0006250D02*
G03X0013720Y0005750I0000176J0000500D01*
G01X0012009Y0000817D02*
G03X0011750Y0001018I0000259J0000067D01*
G01X0011991Y0000633D02*
G03X0012250Y0000432I0000259J0000067D01*
G01X0018450Y0005928D02*
G03X0018250Y0006018I0000200J0000178D01*
G01X0014074Y0007250D02*
G03X0013720Y0006750I0000176J0000500D01*
G01X0014426Y0007250D02*
G03X0014780Y0007750I0000176J0000500D01*
G01X0030567Y0004659D02*
G03X0030718Y0004900I0000117J0000241D01*
G01X0026024Y0001250D02*
G03X0025655Y0001750I0000524J0000000D01*
G01X0024600Y0007118D02*
G03X0024400Y0007028I0000000J0000268D01*
G01X0024000Y0002094D02*
G03X0024344Y0001750I0000500J0000156D01*
G01X0024500Y0002774D02*
G03X0024000Y0002405I0000000J0000524D01*
G01X0029305Y0010218D02*
G03X0029150Y0010267I0000155J0000218D01*
G01X0038248Y0005805D02*
G03X0038075Y0005463I0000252J0000342D01*
G01X0021500Y0002532D02*
G03X0021767Y0002795I0000000J0000268D01*
G01X0021234Y0002764D02*
G03X0021500Y0002532I0000266J0000036D01*
G01X0023482Y0007850D02*
G03X0023750Y0007582I0000268J0000000D01*
G03X0024018Y0007850I0000000J0000268D01*
G03X0023989Y0007971I0000268J0000000D01*
G01X0020732Y0008550D02*
G03X0021000Y0008282I0000268J0000000D01*
G03X0021268Y0008550I0000000J0000268D01*
G03X0021000Y0008818I0000268J0000000D01*
G03X0020732Y0008550I0000000J0000268D01*
G01X0035962Y0000470D02*
G03X0036230Y0000202I0000268J0000000D01*
G03X0036498Y0000470I0000000J0000268D01*
G03X0036230Y0000738I0000268J0000000D01*
G03X0035962Y0000470I0000000J0000268D01*
G01X0032302D02*
G03X0032570Y0000202I0000268J0000000D01*
G03X0032838Y0000470I0000000J0000268D01*
G03X0032570Y0000738I0000268J0000000D01*
G03X0032302Y0000470I0000000J0000268D01*
G01X0015282Y0000650D02*
G03X0015550Y0000382I0000268J0000000D01*
G03X0015818Y0000650I0000000J0000268D01*
G03X0015550Y0000918I0000268J0000000D01*
G03X0015282Y0000650I0000000J0000268D01*
G01X0029732Y0001800D02*
G03X0030000Y0001532I0000268J0000000D01*
G03X0030268Y0001800I0000000J0000268D01*
G03X0030000Y0002068I0000268J0000000D01*
G03X0029732Y0001800I0000000J0000268D01*
G01X0026732Y0004000D02*
G03X0027000Y0003732I0000268J0000000D01*
G03X0027268Y0004000I0000000J0000268D01*
G03X0027000Y0004268I0000268J0000000D01*
G03X0026732Y0004000I0000000J0000268D01*
G01X0027532Y0001600D02*
G03X0027800Y0001332I0000268J0000000D01*
G03X0028068Y0001600I0000000J0000268D01*
G03X0027800Y0001868I0000268J0000000D01*
G03X0027532Y0001600I0000000J0000268D01*
G01X0021482Y0008550D02*
G03X0021750Y0008282I0000268J0000000D01*
G03X0022018Y0008550I0000000J0000268D01*
G03X0021750Y0008818I0000268J0000000D01*
G03X0021482Y0008550I0000000J0000268D01*
G01X0026232Y0003250D02*
G03X0026500Y0002982I0000268J0000000D01*
G03X0026768Y0003250I0000000J0000268D01*
G03X0026500Y0003518I0000268J0000000D01*
G03X0026232Y0003250I0000000J0000268D01*
G03X0026500Y0002982I0000268J0000000D01*
G03X0026768Y0003250I0000000J0000268D01*
G03X0026500Y0003518I0000268J0000000D01*
G03X0026232Y0003250I0000000J0000268D01*
G01X0026167Y0004000D02*
G03X0026435Y0003732I0000268J0000000D01*
G03X0026703Y0004000I0000000J0000268D01*
G03X0026435Y0004268I0000268J0000000D01*
G03X0026167Y0004000I0000000J0000268D01*
G01X0027282Y0004970D02*
G03X0027550Y0004702I0000268J0000000D01*
G03X0027818Y0004970I0000000J0000268D01*
G03X0027550Y0005238I0000268J0000000D01*
G03X0027282Y0004970I0000000J0000268D01*
G01X0027232Y0006750D02*
G03X0027235Y0006710I0000268J0000000D01*
G01X0027768Y0006750D02*
G03X0027500Y0007018I0000268J0000000D01*
G03X0027232Y0006750I0000000J0000268D01*
G01X0026167Y0004000D02*
G03X0026435Y0003732I0000268J0000000D01*
G03X0026703Y0004000I0000000J0000268D01*
G03X0026435Y0004268I0000268J0000000D01*
G03X0026167Y0004000I0000000J0000268D01*
G01X0027282Y0004970D02*
G03X0027550Y0004702I0000268J0000000D01*
G03X0027818Y0004970I0000000J0000268D01*
G03X0027550Y0005238I0000268J0000000D01*
G03X0027282Y0004970I0000000J0000268D01*
G01X0023782Y0010000D02*
G03X0024050Y0009732I0000268J0000000D01*
G03X0024284Y0009870I0000000J0000268D01*
G01X0024050Y0010268D02*
G03X0023782Y0010000I0000000J0000268D01*
G01X0025268Y0006950D02*
G03X0025000Y0007218I0000268J0000000D01*
G01X0024841Y0006734D02*
G03X0025000Y0006682I0000159J0000216D01*
G01X0019732Y0007850D02*
G03X0020000Y0007582I0000268J0000000D01*
G03X0020268Y0007850I0000000J0000268D01*
G03X0020000Y0008118I0000268J0000000D01*
G03X0019732Y0007850I0000000J0000268D01*
G01X0036982Y0005850D02*
G03X0037250Y0005582I0000268J0000000D01*
G03X0037518Y0005850I0000000J0000268D01*
G03X0037250Y0006118I0000268J0000000D01*
G03X0036982Y0005850I0000000J0000268D01*
Y0008200D02*
G03X0037250Y0007932I0000268J0000000D01*
G03X0037518Y0008200I0000000J0000268D01*
G03X0037250Y0008468I0000268J0000000D01*
G03X0036982Y0008200I0000000J0000268D01*
G01X0035183Y0006250D02*
G03X0035451Y0005982I0000268J0000000D01*
G03X0035719Y0006250I0000000J0000268D01*
G01X0035718D02*
G03X0035451Y0006517I0000267J0000000D01*
Y0006518D02*
G03X0035183Y0006250I0000000J0000268D01*
G03X0035451Y0005982I0000268J0000000D01*
G03X0035719Y0006250I0000000J0000268D01*
G01X0035718D02*
G03X0035451Y0006517I0000267J0000000D01*
Y0006518D02*
G03X0035183Y0006250I0000000J0000268D01*
G01X0012982Y0004800D02*
G03X0013250Y0004532I0000268J0000000D01*
G03X0013518Y0004800I0000000J0000268D01*
G03X0013250Y0005068I0000268J0000000D01*
G03X0012982Y0004800I0000000J0000268D01*
G01X0023932Y0006850D02*
G03X0024168Y0006584I0000268J0000000D01*
G01X0024200Y0007118D02*
G03X0023932Y0006850I0000000J0000268D01*
G01X0020232Y0000600D02*
G03X0020500Y0000332I0000268J0000000D01*
G03X0020768Y0000600I0000000J0000268D01*
G03X0020500Y0000868I0000268J0000000D01*
G03X0020232Y0000600I0000000J0000268D01*
G01X0017682D02*
G03X0017950Y0000332I0000268J0000000D01*
G03X0018218Y0000600I0000000J0000268D01*
G03X0017950Y0000868I0000268J0000000D01*
G03X0017682Y0000600I0000000J0000268D01*
G01X0016982Y0000750D02*
G03X0017250Y0000482I0000268J0000000D01*
G03X0017518Y0000750I0000000J0000268D01*
G03X0017250Y0001018I0000268J0000000D01*
G03X0016982Y0000750I0000000J0000268D01*
G01X0017682Y0000600D02*
G03X0017950Y0000332I0000268J0000000D01*
G03X0018218Y0000600I0000000J0000268D01*
G03X0017950Y0000868I0000268J0000000D01*
G03X0017682Y0000600I0000000J0000268D01*
G01X0012982Y0004800D02*
G03X0013250Y0004532I0000268J0000000D01*
G03X0013518Y0004800I0000000J0000268D01*
G03X0013250Y0005068I0000268J0000000D01*
G03X0012982Y0004800I0000000J0000268D01*
G01X0015232Y0007000D02*
G03X0015500Y0006732I0000268J0000000D01*
G03X0015768Y0007000I0000000J0000268D01*
G03X0015500Y0007268I0000268J0000000D01*
G03X0015232Y0007000I0000000J0000268D01*
G01X0022082Y0002600D02*
G03X0022350Y0002332I0000268J0000000D01*
G03X0022618Y0002600I0000000J0000268D01*
G03X0022350Y0002868I0000268J0000000D01*
G03X0022082Y0002600I0000000J0000268D01*
G01X0019732Y0007850D02*
G03X0020000Y0007582I0000268J0000000D01*
G03X0020268Y0007850I0000000J0000268D01*
G03X0020000Y0008118I0000268J0000000D01*
G03X0019732Y0007850I0000000J0000268D01*
G01X0019232Y0006550D02*
G03X0019500Y0006282I0000268J0000000D01*
G03X0019750Y0006454I0000000J0000268D01*
G01X0019500Y0006818D02*
G03X0019232Y0006550I0000000J0000268D01*
G01X0011482Y0000750D02*
G03X0011750Y0000482I0000268J0000000D01*
G03X0011991Y0000633I0000000J0000268D01*
G01X0011750Y0001018D02*
G03X0011482Y0000750I0000000J0000268D01*
G01X0012250Y0000432D02*
G03X0012518Y0000700I0000000J0000268D01*
G03X0012250Y0000968I0000268J0000000D01*
G01X0020000Y0006818D02*
G03X0019750Y0006645I0000000J0000268D01*
G01X0011482Y0000750D02*
G03X0011750Y0000482I0000268J0000000D01*
G01X0012009Y0000817D02*
G03X0011750Y0001018I0000259J0000067D01*
Y0000482D02*
G03X0011991Y0000633I0000000J0000268D01*
G01X0011750Y0001018D02*
G03X0011482Y0000750I0000000J0000268D01*
G01X0017982Y0006950D02*
G03X0018250Y0006682I0000268J0000000D01*
G03X0018518Y0006950I0000000J0000268D01*
G03X0018250Y0007218I0000268J0000000D01*
G03X0017982Y0006950I0000000J0000268D01*
G01X0013032Y0006450D02*
G03X0013300Y0006182I0000268J0000000D01*
G03X0013568Y0006450I0000000J0000268D01*
G03X0013300Y0006718I0000268J0000000D01*
G03X0013032Y0006450I0000000J0000268D01*
G01X0015232Y0007000D02*
G03X0015500Y0006732I0000268J0000000D01*
G03X0015768Y0007000I0000000J0000268D01*
G03X0015500Y0007268I0000268J0000000D01*
G03X0015232Y0007000I0000000J0000268D01*
G01X0022082Y0002600D02*
G03X0022350Y0002332I0000268J0000000D01*
G03X0022618Y0002600I0000000J0000268D01*
G03X0022350Y0002868I0000268J0000000D01*
G03X0022082Y0002600I0000000J0000268D01*
G01X0022032Y0001400D02*
G03X0022300Y0001132I0000268J0000000D01*
G03X0022568Y0001400I0000000J0000268D01*
G03X0022300Y0001668I0000268J0000000D01*
G03X0022032Y0001400I0000000J0000268D01*
G03X0022300Y0001132I0000268J0000000D01*
G03X0022568Y0001400I0000000J0000268D01*
G03X0022300Y0001668I0000268J0000000D01*
G03X0022032Y0001400I0000000J0000268D01*
G01X0032482Y0009150D02*
G03X0032750Y0008882I0000268J0000000D01*
G03X0033018Y0009150I0000000J0000268D01*
G03X0032750Y0009418I0000268J0000000D01*
G03X0032482Y0009150I0000000J0000268D01*
G01X0019232Y0006550D02*
G03X0019500Y0006282I0000268J0000000D01*
G01X0019750Y0006645D02*
G03X0019500Y0006817I0000250J0000095D01*
Y0006282D02*
G03X0019750Y0006454I0000000J0000268D01*
G01X0019500Y0006818D02*
G03X0019232Y0006550I0000000J0000268D01*
G01X0023782Y0010000D02*
G03X0024050Y0009732I0000268J0000000D01*
G01X0024316Y0010030D02*
G03X0024050Y0010268I0000266J0000030D01*
Y0009732D02*
G03X0024284Y0009870I0000000J0000268D01*
G01X0024050Y0010268D02*
G03X0023782Y0010000I0000000J0000268D01*
G01X0021482Y0008550D02*
G03X0021750Y0008282I0000268J0000000D01*
G03X0022018Y0008550I0000000J0000268D01*
G03X0021750Y0008818I0000268J0000000D01*
G03X0021482Y0008550I0000000J0000268D01*
G01X0020932Y0003030D02*
G03X0021200Y0002762I0000268J0000000D01*
G03X0021235Y0002764I0000000J0000268D01*
G01X0021200Y0003298D02*
G03X0020932Y0003030I0000000J0000268D01*
G01X0020582Y0006050D02*
G03X0020850Y0005782I0000268J0000000D01*
G03X0021118Y0006050I0000000J0000268D01*
G03X0020850Y0006318I0000268J0000000D01*
G03X0020582Y0006050I0000000J0000268D01*
G01X0027564Y0006490D02*
G03X0027768Y0006750I0000064J0000260D01*
G01X0027232D02*
G03X0027235Y0006710I0000268J0000000D01*
G01X0027768Y0006750D02*
G03X0027500Y0007018I0000268J0000000D01*
G03X0027232Y0006750I0000000J0000268D01*
G01X0024400Y0007028D02*
G03X0024200Y0007118I0000200J0000178D01*
G01X0025000Y0006682D02*
G03X0025142Y0006723I0000000J0000268D01*
G01X0025268Y0006950D02*
G03X0025000Y0007218I0000268J0000000D01*
G01X0024841Y0006734D02*
G03X0025000Y0006682I0000159J0000216D01*
G01X0022632Y0010150D02*
G03X0022900Y0009882I0000268J0000000D01*
G03X0023168Y0010150I0000000J0000268D01*
G03X0022900Y0010418I0000268J0000000D01*
G03X0022632Y0010150I0000000J0000268D01*
G01X0026932Y0011000D02*
G03X0027200Y0010732I0000268J0000000D01*
G03X0027468Y0011000I0000000J0000268D01*
G03X0027200Y0011268I0000268J0000000D01*
G03X0026932Y0011000I0000000J0000268D01*
G01X0022082Y0002600D02*
G03X0022350Y0002332I0000268J0000000D01*
G03X0022618Y0002600I0000000J0000268D01*
G03X0022350Y0002868I0000268J0000000D01*
G03X0022082Y0002600I0000000J0000268D01*
G01X0022982Y0006450D02*
G03X0023250Y0006182I0000268J0000000D01*
G03X0023518Y0006450I0000000J0000268D01*
G03X0023250Y0006718I0000268J0000000D01*
G03X0022982Y0006450I0000000J0000268D01*
G03X0023250Y0006182I0000268J0000000D01*
G03X0023518Y0006450I0000000J0000268D01*
G03X0023250Y0006718I0000268J0000000D01*
G03X0022982Y0006450I0000000J0000268D01*
G01X0020582Y0006050D02*
G03X0020850Y0005782I0000268J0000000D01*
G03X0021118Y0006050I0000000J0000268D01*
G03X0020850Y0006318I0000268J0000000D01*
G03X0020582Y0006050I0000000J0000268D01*
G01X0032232Y0001300D02*
G03X0032500Y0001032I0000268J0000000D01*
G03X0032768Y0001300I0000000J0000268D01*
G03X0032500Y0001568I0000268J0000000D01*
G03X0032232Y0001300I0000000J0000268D01*
G01X0032382Y0002700D02*
G03X0032650Y0002432I0000268J0000000D01*
G03X0032918Y0002700I0000000J0000268D01*
G03X0032650Y0002968I0000268J0000000D01*
G01X0030632Y0001650D02*
G03X0030900Y0001382I0000268J0000000D01*
G03X0031168Y0001650I0000000J0000268D01*
G03X0030900Y0001918I0000268J0000000D01*
G03X0030632Y0001650I0000000J0000268D01*
G01X0031482Y0001250D02*
G03X0031750Y0000982I0000268J0000000D01*
G03X0032018Y0001250I0000000J0000268D01*
G03X0031750Y0001518I0000268J0000000D01*
G03X0031482Y0001250I0000000J0000268D01*
G01X0030632Y0001650D02*
G03X0030900Y0001382I0000268J0000000D01*
G03X0031168Y0001650I0000000J0000268D01*
G03X0030900Y0001918I0000268J0000000D01*
G03X0030632Y0001650I0000000J0000268D01*
G01X0032382Y0002700D02*
G03X0032650Y0002432I0000268J0000000D01*
G03X0032918Y0002700I0000000J0000268D01*
G03X0032650Y0002968I0000268J0000000D01*
G01X0032518Y0002933D02*
G03X0032382Y0002700I0000132J0000233D01*
G01X0031482Y0001250D02*
G03X0031750Y0000982I0000268J0000000D01*
G03X0032018Y0001250I0000000J0000268D01*
G03X0031750Y0001518I0000268J0000000D01*
G03X0031482Y0001250I0000000J0000268D01*
G01X0034432Y0001600D02*
G03X0034700Y0001332I0000268J0000000D01*
G03X0034968Y0001600I0000000J0000268D01*
G03X0034700Y0001868I0000268J0000000D01*
G03X0034432Y0001600I0000000J0000268D01*
G01X0033032Y0008400D02*
G03X0033300Y0008132I0000268J0000000D01*
G03X0033568Y0008400I0000000J0000268D01*
G03X0033300Y0008668I0000268J0000000D01*
G03X0033032Y0008400I0000000J0000268D01*
G01X0036032Y0003800D02*
G03X0036300Y0003532I0000268J0000000D01*
G03X0036568Y0003800I0000000J0000268D01*
G03X0036300Y0004068I0000268J0000000D01*
G03X0036032Y0003800I0000000J0000268D01*
Y0007750D02*
G03X0036300Y0007482I0000268J0000000D01*
G03X0036568Y0007750I0000000J0000268D01*
G03X0036300Y0008018I0000268J0000000D01*
G03X0036032Y0007750I0000000J0000268D01*
G01X0030182Y0004900D02*
G03X0030283Y0004691I0000268J0000000D01*
G01X0030718Y0004900D02*
G03X0030450Y0005168I0000268J0000000D01*
G03X0030182Y0004900I0000000J0000268D01*
G01X0030412Y0007780D02*
G03X0030680Y0007512I0000268J0000000D01*
G03X0030948Y0007780I0000000J0000268D01*
G03X0030680Y0008048I0000268J0000000D01*
G03X0030412Y0007780I0000000J0000268D01*
G01X0020000Y0006282D02*
G03X0020250Y0006454I0000000J0000268D01*
G01X0028882Y0010000D02*
G03X0029150Y0009732I0000268J0000000D01*
G03X0029418Y0010000I0000000J0000268D01*
G01X0029150Y0010268D02*
G03X0028882Y0010000I0000000J0000268D01*
G01X0034132Y0002350D02*
G03X0034400Y0002082I0000268J0000000D01*
G03X0034668Y0002350I0000000J0000268D01*
G03X0034400Y0002618I0000268J0000000D01*
G03X0034132Y0002350I0000000J0000268D01*
G01X0021465Y0003065D02*
G03X0021200Y0003297I0000265J0000035D01*
G01X0021850Y0002782D02*
G03X0022118Y0003050I0000000J0000268D01*
G03X0021850Y0003318I0000268J0000000D01*
G01X0021767Y0002795D02*
G03X0021850Y0002782I0000083J0000255D01*
G01X0024550Y0009632D02*
G03X0024818Y0009900I0000000J0000268D01*
G03X0024550Y0010168I0000268J0000000D01*
G01X0017982Y0006950D02*
G03X0018250Y0006682I0000268J0000000D01*
G03X0018518Y0006950I0000000J0000268D01*
G03X0018250Y0007218I0000268J0000000D01*
G03X0017982Y0006950I0000000J0000268D01*
G01X0022391Y0005059D02*
G03X0022659Y0004791I0000268J0000000D01*
G03X0022927Y0005059I0000000J0000268D01*
G03X0022659Y0005327I0000268J0000000D01*
G03X0022391Y0005059I0000000J0000268D01*
G01X0022132Y0006700D02*
G03X0022400Y0006432I0000268J0000000D01*
G03X0022668Y0006700I0000000J0000268D01*
G03X0022583Y0006895I0000268J0000000D01*
G01X0022232Y0007750D02*
G03X0022435Y0007490I0000268J0000000D01*
G01X0022768Y0007750D02*
G03X0022500Y0008018I0000268J0000000D01*
G03X0022232Y0007750I0000000J0000268D01*
G01X0027832Y0008650D02*
G03X0028100Y0008382I0000268J0000000D01*
G03X0028368Y0008650I0000000J0000268D01*
G03X0028100Y0008918I0000268J0000000D01*
G03X0027832Y0008650I0000000J0000268D01*
G01X0029482Y0006800D02*
G03X0029750Y0006532I0000268J0000000D01*
G03X0030018Y0006800I0000000J0000268D01*
G03X0029750Y0007068I0000268J0000000D01*
G03X0029482Y0006800I0000000J0000268D01*
G01X0025132Y0006650D02*
G03X0025400Y0006382I0000268J0000000D01*
G03X0025668Y0006650I0000000J0000268D01*
G03X0025400Y0006918I0000268J0000000D01*
G01X0033182Y0009500D02*
G03X0033450Y0009232I0000268J0000000D01*
G03X0033718Y0009500I0000000J0000268D01*
G03X0033450Y0009768I0000268J0000000D01*
G03X0033182Y0009500I0000000J0000268D01*
Y0010150D02*
G03X0033450Y0009882I0000268J0000000D01*
G03X0033718Y0010150I0000000J0000268D01*
G03X0033450Y0010418I0000268J0000000D01*
G03X0033182Y0010150I0000000J0000268D01*
G01X0028732Y0011000D02*
G03X0029000Y0010732I0000268J0000000D01*
G03X0029268Y0011000I0000000J0000268D01*
G03X0029000Y0011268I0000268J0000000D01*
G03X0028732Y0011000I0000000J0000268D01*
G01X0027232Y0010500D02*
G03X0027500Y0010232I0000268J0000000D01*
G03X0027768Y0010500I0000000J0000268D01*
G03X0027500Y0010768I0000268J0000000D01*
G03X0027232Y0010500I0000000J0000268D01*
G01X0017982Y0009700D02*
G03X0018250Y0009432I0000268J0000000D01*
G03X0018518Y0009700I0000000J0000268D01*
G03X0018250Y0009968I0000268J0000000D01*
G03X0017982Y0009700I0000000J0000268D01*
G01X0028082Y0004650D02*
G03X0028350Y0004382I0000268J0000000D01*
G03X0028618Y0004650I0000000J0000268D01*
G03X0028350Y0004918I0000268J0000000D01*
G03X0028082Y0004650I0000000J0000268D01*
G01X0022882Y0009550D02*
G03X0023150Y0009282I0000268J0000000D01*
G03X0023350Y0009372I0000000J0000268D01*
G01X0023150Y0009818D02*
G03X0022882Y0009550I0000000J0000268D01*
G01X0022317Y0006954D02*
G03X0022133Y0006700I0000083J0000254D01*
G01X0022432Y0007450D02*
G03X0022435Y0007410I0000268J0000000D01*
G01X0022968Y0007450D02*
G03X0022764Y0007710I0000268J0000000D01*
G01X0021832Y0003900D02*
G03X0022100Y0003632I0000268J0000000D01*
G03X0022368Y0003900I0000000J0000268D01*
G03X0022198Y0004149I0000268J0000000D01*
G01X0028182Y0005350D02*
G03X0028450Y0005082I0000268J0000000D01*
G03X0028718Y0005350I0000000J0000268D01*
G03X0028450Y0005618I0000268J0000000D01*
G03X0028182Y0005350I0000000J0000268D01*
G01X0018232Y0001950D02*
G03X0018500Y0001682I0000268J0000000D01*
G03X0018768Y0001950I0000000J0000268D01*
G03X0018500Y0002218I0000268J0000000D01*
G03X0018232Y0001950I0000000J0000268D01*
G01X0022812Y0003350D02*
G03X0023080Y0003082I0000268J0000000D01*
G03X0023348Y0003350I0000000J0000268D01*
G03X0023080Y0003618I0000268J0000000D01*
G03X0022812Y0003350I0000000J0000268D01*
G01X0031632Y0007400D02*
G03X0031900Y0007132I0000268J0000000D01*
G03X0032168Y0007400I0000000J0000268D01*
G03X0031900Y0007668I0000268J0000000D01*
G03X0031632Y0007400I0000000J0000268D01*
G01X0019750Y0006645D02*
G03X0019500Y0006817I0000250J0000095D01*
G01X0020500Y0006282D02*
G03X0020768Y0006550I0000000J0000268D01*
G03X0020500Y0006818I0000268J0000000D01*
G01X0020250Y0006454D02*
G03X0020500Y0006282I0000250J0000096D01*
G01X0024232Y0008000D02*
G03X0024500Y0007732I0000268J0000000D01*
G03X0024768Y0008000I0000000J0000268D01*
G03X0024500Y0008268I0000268J0000000D01*
G03X0024232Y0008000I0000000J0000268D01*
G01X0025000Y0007218D02*
G03X0024758Y0007065I0000000J0000268D01*
G01X0025142Y0006723D02*
G03X0025132Y0006650I0000258J0000073D01*
G01X0027182Y0000550D02*
G03X0027450Y0000282I0000268J0000000D01*
G03X0027718Y0000550I0000000J0000268D01*
G03X0027450Y0000818I0000268J0000000D01*
G03X0027182Y0000550I0000000J0000268D01*
G01X0023550Y0009282D02*
G03X0023818Y0009550I0000000J0000268D01*
G03X0023550Y0009818I0000268J0000000D01*
G01X0023350Y0009372D02*
G03X0023550Y0009282I0000200J0000178D01*
G01X0022232Y0007150D02*
G03X0022317Y0006954I0000268J0000000D01*
G01X0022765Y0007710D02*
G03X0022768Y0007750I0000265J0000040D01*
Y0007150D02*
G03X0022764Y0007190I0000268J0000000D01*
G01X0029182Y0005250D02*
G03X0029272Y0005050I0000268J0000000D01*
G01X0029718Y0005250D02*
G03X0029450Y0005518I0000268J0000000D01*
G03X0029182Y0005250I0000000J0000268D01*
G01X0031682Y0004350D02*
G03X0031950Y0004082I0000268J0000000D01*
G03X0032218Y0004350I0000000J0000268D01*
G03X0031950Y0004618I0000268J0000000D01*
G03X0031682Y0004350I0000000J0000268D01*
G01X0021682Y0004250D02*
G03X0021852Y0004001I0000268J0000000D01*
G01X0022218Y0004250D02*
G03X0021950Y0004518I0000268J0000000D01*
G03X0021682Y0004250I0000000J0000268D01*
G01X0023132Y0008350D02*
G03X0023400Y0008082I0000268J0000000D01*
G01X0023611Y0008079D02*
G03X0023482Y0007850I0000139J0000229D01*
G01X0023400Y0008082D02*
G03X0023586Y0008157I0000000J0000268D01*
G01X0023400Y0008618D02*
G03X0023132Y0008350I0000000J0000268D01*
G01X0022032Y0009600D02*
G03X0022300Y0009332I0000268J0000000D01*
G03X0022568Y0009600I0000000J0000268D01*
G03X0022300Y0009868I0000268J0000000D01*
G03X0022032Y0009600I0000000J0000268D01*
G01X0017982Y0005750D02*
G03X0018250Y0005482I0000268J0000000D01*
G03X0018450Y0005572I0000000J0000268D01*
G01X0018250Y0006018D02*
G03X0017982Y0005750I0000000J0000268D01*
G01X0019732Y0001950D02*
G03X0020000Y0001682I0000268J0000000D01*
G03X0020268Y0001950I0000000J0000268D01*
G03X0020000Y0002218I0000268J0000000D01*
G03X0019732Y0001950I0000000J0000268D01*
G01X0029182Y0004850D02*
G03X0029450Y0004582I0000268J0000000D01*
G03X0029718Y0004850I0000000J0000268D01*
G03X0029628Y0005050I0000268J0000000D01*
G01X0027032Y0006450D02*
G03X0027300Y0006182I0000268J0000000D01*
G03X0027568Y0006450I0000000J0000268D01*
G01X0030032Y0006300D02*
G03X0030300Y0006032I0000268J0000000D01*
G03X0030568Y0006300I0000000J0000268D01*
G03X0030300Y0006568I0000268J0000000D01*
G03X0030032Y0006300I0000000J0000268D01*
G01X0030132Y0004450D02*
G03X0030400Y0004182I0000268J0000000D01*
G03X0030668Y0004450I0000000J0000268D01*
G01X0021852Y0004001D02*
G03X0021832Y0003900I0000248J0000101D01*
G01X0022764Y0007190D02*
G03X0022968Y0007450I0000064J0000260D01*
G01X0027568Y0006450D02*
G03X0027564Y0006490I0000268J0000000D01*
G01X0024550Y0010168D02*
G03X0024316Y0010030I0000000J0000268D01*
G01X0018650Y0006018D02*
G03X0018450Y0005928I0000000J0000268D01*
G01X0022583Y0006895D02*
G03X0022768Y0007150I0000083J0000255D01*
G01X0019750Y0006454D02*
G03X0020000Y0006282I0000250J0000096D01*
G01X0023989Y0007971D02*
G03X0024118Y0008200I0000139J0000229D01*
G01X0029628Y0005050D02*
G03X0029718Y0005250I0000178J0000200D01*
G01X0034500Y0003295D02*
G03X0034250Y0003467I0000250J0000095D01*
G01X0034750Y0003468D02*
G03X0034500Y0003295I0000000J0000268D01*
G01X0034250Y0002932D02*
G03X0034500Y0003104I0000000J0000268D01*
G01X0025000Y0006682D02*
G03X0025142Y0006723I0000000J0000268D01*
G01X0022435Y0007490D02*
G03X0022432Y0007450I0000265J0000040D01*
G01X0017200Y0006878D02*
G03X0017000Y0006968I0000200J0000178D01*
G01X0017400D02*
G03X0017200Y0006878I0000000J0000268D01*
G01X0014426Y0006250D02*
G03X0014780Y0006750I0000176J0000500D01*
G01X0020250Y0006645D02*
G03X0020000Y0006817I0000250J0000095D01*
G01X0024758Y0007065D02*
G03X0024600Y0007117I0000158J0000215D01*
G01X0023664Y0008393D02*
G03X0023400Y0008617I0000264J0000043D01*
G01X0021748Y0010926D02*
G03X0021362Y0011174I0000386J0000176D01*
G01X0025000Y0002405D02*
G03X0024500Y0002773I0000500J0000155D01*
G01X0024000Y0002405D02*
G03X0023500Y0002773I0000500J0000155D01*
G01X0025500Y0002774D02*
G03X0025000Y0002405I0000000J0000524D01*
G01X0032500Y0002932D02*
G03X0032518Y0002933I0000000J0000268D01*
G01X0030045Y0000200D02*
G03X0030217Y0000450I0000095J0000250D01*
G01X0025257Y0006876D02*
G03X0025267Y0006950I0000257J0000074D01*
G01X0025257Y0006876D02*
G03X0025267Y0006950I0000257J0000074D01*
G01X0024631Y0006584D02*
G03X0024841Y0006734I0000031J0000266D01*
G01X0024284Y0009870D02*
G03X0024550Y0009632I0000266J0000030D01*
G01X0024316Y0010030D02*
G03X0024050Y0010268I0000266J0000030D01*
G01X0020500Y0006818D02*
G03X0020250Y0006645I0000000J0000268D01*
G01X0027564Y0006490D02*
G03X0027768Y0006750I0000064J0000260D01*
G01X0032650Y0002968D02*
G03X0032632Y0002967I0000000J0000268D01*
G01X0032650Y0002968D02*
G03X0032632Y0002967I0000000J0000268D01*
G01X0030283Y0004691D02*
G03X0030132Y0004450I0000117J0000241D01*
G01X0024168Y0006584D02*
G03X0024132Y0006450I0000232J0000134D01*
G01X0012250Y0000968D02*
G03X0012009Y0000817I0000000J0000268D01*
G54D65*
G01X0035773Y0009717D02*
X0035867D01*
X0035820D02*
Y0010117D01*
X0035867Y0010050D01*
X0036057Y0010117D02*
Y0009717D01*
X0036103Y0009783D01*
X0036197Y0010050D01*
X0036243Y0010117D01*
Y0009717D01*
X0036387D02*
X0036480D01*
X0036433D02*
Y0010117D01*
X0036387D02*
X0036480D01*
G54D24*
X0001575Y0001575D03*
Y0010236D03*
X0037795D03*
Y0001575D03*
G54D26*
X0019787Y0010750D03*
X0020575D03*
X0021362D03*
X0030537Y0010500D03*
X0031325D03*
X0004963Y0001000D03*
X0004175D03*
X0038500Y0005463D03*
Y0004675D03*
Y0003888D03*
X0005287Y0010750D03*
G54D27*
X0014000Y0010250D03*
X0019000Y0010750D03*
X0029750Y0010500D03*
X0005750Y0001000D03*
X0038500Y0006250D03*
X0004500Y0010750D03*
G54D28*
X0024500Y0001250D03*
X0025500D03*
Y0002250D03*
X0024500D03*
X0023500D03*
G54D29*
Y0001250D03*
G54D30*
X0014984Y0010250D03*
X0015968D03*
X0016953D03*
G54D34*
X0006350Y0004750D03*
X0005650D03*
X0006350Y0005250D03*
X0005650D03*
X0006350Y0005750D03*
X0005650D03*
X0027350Y0003400D03*
X0034750Y0003200D03*
X0034250D03*
X0033700D03*
X0034800Y0003850D03*
X0034250D03*
X0033700D03*
X0034800Y0004550D03*
X0034250D03*
X0033700D03*
X0034800Y0005350D03*
X0034250D03*
X0033700D03*
X0034800Y0006100D03*
Y0006850D03*
X0034250Y0006100D03*
X0033700D03*
X0035400Y0006850D03*
X0034250D03*
X0033700D03*
X0036300Y0005250D03*
X0029950Y0000450D03*
X0007700Y0002150D03*
X0008800D03*
X0008250Y0001450D03*
X0009300D03*
X0007200D03*
Y0002800D03*
X0008250D03*
X0009300D03*
X0013200Y0002100D03*
X0014300D03*
X0014800Y0001450D03*
X0013750D03*
X0012750D03*
X0014800Y0002750D03*
X0013750D03*
X0012750D03*
X0016500Y0008950D03*
G54D47*
X0014250Y0007750D03*
Y0006750D03*
Y0005750D03*
G54D71*
X0032500Y0001300D03*
X0025250Y0011000D03*
X0030900Y0001650D03*
X0032650Y0002700D03*
X0031750Y0001250D03*
X0034700Y0001600D03*
X0033300Y0008400D03*
X0036300Y0003800D03*
X0009000Y0006000D03*
X0036300Y0007750D03*
X0030450Y0004900D03*
X0030680Y0007780D03*
X0029150Y0010000D03*
X0032100Y0006550D03*
X0034400Y0002350D03*
X0021850Y0003050D03*
X0024550Y0009900D03*
X0007095Y0004055D03*
X0022659Y0005059D03*
X0022400Y0006700D03*
X0022500Y0007750D03*
X0028100Y0008650D03*
X0029750Y0006800D03*
X0025400Y0006650D03*
X0033450Y0009500D03*
Y0010150D03*
X0029000Y0011000D03*
X0027500Y0010500D03*
X0018250Y0009700D03*
X0028350Y0004650D03*
X0023150Y0009550D03*
X0022700Y0007450D03*
X0022100Y0003900D03*
X0028450Y0005350D03*
X0018500Y0001950D03*
X0023080Y0003350D03*
X0031900Y0007400D03*
X0020500Y0006550D03*
X0024500Y0008000D03*
X0024600Y0006850D03*
X0027450Y0000550D03*
X0023550Y0009550D03*
X0022500Y0007150D03*
X0029450Y0005250D03*
X0031950Y0004350D03*
X0021950Y0004250D03*
X0023400Y0008350D03*
X0007750Y0005000D03*
X0022300Y0009600D03*
X0018250Y0005750D03*
X0020000Y0001950D03*
X0029450Y0004850D03*
X0027300Y0006450D03*
X0030300Y0006300D03*
X0030400Y0004450D03*
X0032500Y0003200D03*
X0025400Y0005750D03*
X0031050Y0005700D03*
X0031250Y0005100D03*
X0032150Y0004900D03*
X0032350Y0005550D03*
X0021950Y0010750D03*
X0023850Y0008200D03*
X0031500Y0003400D03*
X0024900Y0003450D03*
X0018200Y0004050D03*
X0030150Y0009500D03*
X0036350Y0003200D03*
X0016900Y0004500D03*
X0018700Y0004050D03*
X0007700Y0006350D03*
X0019500Y0004450D03*
X0018550Y0008400D03*
X0017000Y0006700D03*
X0018650Y0005750D03*
X0019250Y0001950D03*
X0029000Y0004250D03*
X0024400Y0006450D03*
X0017400Y0006700D03*
X0021200Y0004400D03*
G54D85*
X0021500Y0002800D03*
X0023750Y0005450D03*
Y0007850D03*
X0021000Y0008550D03*
X0010070Y0000700D03*
X0036230Y0000470D03*
X0032570D03*
X0015550Y0000650D03*
X0030000Y0001800D03*
X0020000Y0006550D03*
X0027000Y0004000D03*
X0027800Y0001600D03*
X0017400Y0004300D03*
X0026950Y0009050D03*
X0029250Y0006800D03*
X0018280Y0008970D03*
X0027450Y0010050D03*
X0016400Y0002750D03*
X0022900Y0010150D03*
X0021750Y0008550D03*
X0026500Y0003250D03*
X0027500Y0006750D03*
X0026435Y0004000D03*
X0027550Y0004970D03*
X0024050Y0010000D03*
X0025000Y0006950D03*
X0037250Y0005850D03*
Y0008200D03*
X0035451Y0006250D03*
X0024200Y0006850D03*
X0023250Y0006450D03*
X0020500Y0000600D03*
X0017250Y0000750D03*
X0017950Y0000600D03*
X0013250Y0004800D03*
X0020850Y0006050D03*
X0021200Y0003030D03*
X0007400Y0009950D03*
X0009250Y0009600D03*
X0006100Y0003250D03*
X0020000Y0007850D03*
X0009200Y0004450D03*
X0012250Y0000700D03*
X0011750Y0000750D03*
X0010250Y0002400D03*
X0019500Y0006550D03*
X0004200Y0004500D03*
X0009000Y0007526D03*
X0007700Y0008350D03*
X0013300Y0006450D03*
X0015500Y0007000D03*
X0003400Y0007750D03*
X0022350Y0002600D03*
X0022300Y0001400D03*
X0032750Y0009150D03*
X0027200Y0011000D03*
X0018250Y0006950D03*
M02*
