%
T1C0.0079F200S100
X-001300Y006650
X000400Y003200
X003400Y007750
X004200Y004500
X004500Y004100
X005650Y004750
X005650Y005250
X005650Y005750
X006100Y003250
X006350Y004750
X006350Y005250
X006350Y005750
X007200Y001450
X007200Y002800
X007400Y009950
X007700Y002150
X007700Y004500
X007750Y005000
X007700Y006350
X007700Y008350
X008250Y001450
X008800Y002150
X008250Y002800
X009000Y006000
X009000Y007526
X009200Y004450
X009250Y009600
X009300Y001450
X009300Y002800
X010070Y000700
X010250Y002400
X011750Y000750
X012250Y000700
X012750Y001450
X013200Y002100
X012750Y002750
X013250Y004800
X013300Y006450
X013750Y001450
X014300Y002100
X013750Y002750
X014800Y001450
X014800Y002750
X015500Y007000
X015550Y000650
X015950Y004350
X015950Y008150
X016400Y002750
X016500Y008950
X016900Y004500
X017000Y006700
X017250Y000750
X017400Y004300
X017400Y006700
X017950Y000600
X018200Y004050
X018250Y005750
X018250Y006950
X018280Y008970
X018250Y009700
X018500Y001950
X018550Y008400
X018650Y005750
X018700Y004050
X019250Y001950
X019500Y004450
X019500Y006550
X020000Y001950
X020500Y000600
X020500Y006550
X020000Y006550
X020000Y007850
X020850Y006050
X021000Y008550
X021200Y003030
X021500Y002800
X021200Y004400
X021750Y008550
X021850Y003050
X021950Y004250
X022100Y003900
X021950Y010750
X022150Y005400
X022300Y001400
X022300Y009600
X022350Y002600
X022400Y006700
X022500Y007150
X022700Y007450
X022500Y007750
X022850Y005050
X022900Y010150
X023080Y003350
X023150Y009550
X023250Y006450
X023400Y008350
X023550Y009550
X023750Y005450
X023750Y007850
X023850Y008200
X024050Y006650
X024050Y010000
X024500Y006400
X024500Y008000
X024550Y009900
X024600Y006800
X024900Y003450
X025000Y006700
X025250Y011000
X025400Y005750
X025400Y006650
X026435Y004000
X026500Y003250
X026950Y009050
X027000Y004000
X027200Y011000
X027300Y006450
X027350Y003400
X027450Y000550
X027500Y006750
X027450Y010050
X027500Y010500
X027550Y004970
X027800Y001600
X028100Y008650
X028350Y004650
X028450Y005350
X029000Y004250
X029000Y011000
X029150Y010000
X029250Y006800
X029450Y004850
X029450Y005250
X029750Y006800
X029950Y000450
X030000Y001800
X030150Y009500
X030300Y006300
X030400Y004450
X030450Y004900
X030680Y007780
X030900Y001650
X031050Y005700
X031250Y005100
X031500Y003400
X031750Y001250
X031900Y007400
X031950Y004350
X032100Y006550
X032150Y004900
X032350Y005550
X032500Y001300
X032500Y003200
X032570Y000470
X032650Y002700
X032750Y009150
X033300Y008400
X033450Y009500
X033450Y010150
X033700Y003200
X033700Y003850
X033700Y004550
X033700Y005350
X033700Y006100
X033700Y006850
X034250Y003200
X034250Y003850
X034250Y004550
X034250Y005350
X034250Y006100
X034250Y006850
X034400Y002350
X034700Y001600
X034750Y003200
X034800Y003850
X034800Y004550
X034800Y005350
X034800Y006100
X034800Y006850
X035400Y006850
X035451Y006250
X036230Y000470
X036300Y003800
X036350Y003200
X036300Y005250
X036300Y007750
X037250Y005850
X037250Y008200
T2C0.0394F200S100
X-001500Y002500
X-001500Y003287
X-001500Y004075
X004175Y001000
X004500Y010750
X004963Y001000
X005287Y010750
X005750Y001000
X014000Y010250
X014984Y010250
X015968Y010250
X016953Y010250
X019000Y010750
X019787Y010750
X020575Y010750
X021362Y010750
X029750Y010500
X030537Y010500
X038500Y003888
X038500Y004675
X038500Y005463
X038500Y006250
T3C0.0433F200S100
X014250Y005750
X014250Y006750
X014250Y007750
X023500Y001250
X023500Y002250
X024500Y001250
X024500Y002250
X025500Y001250
X025500Y002250
T4C0.1378F200S100
X037795Y001575
M30
